<svg xmlns="http://www.w3.org/2000/svg" width="40.613" height="45.928" viewBox="0 0 40.613 45.928"><defs><style>.a{fill:#f7caa5;}.b{fill:#b8ffd5;}.c{fill:#fbf;}.d,.e{fill:#282828;stroke:#282828;stroke-miterlimit:10;}.d{stroke-width:0.373px;}.e{stroke-width:0.28px;}</style></defs><g transform="translate(-19.813 -9.013)"><path class="a" d="M68.762,142.892l6.551-3.087a3.045,3.045,0,0,1,4.016,1.2L66,149.644a9.157,9.157,0,0,1-5.723.653l-9.211-2.585a3.423,3.423,0,0,0-2.535.276L46.6,149.016l.251-9.387h.075a8.994,8.994,0,0,1,9.362-.653l.552.276a6.3,6.3,0,0,0,2.786.728l5.4.151A4.03,4.03,0,0,1,68.762,142.892Z" transform="translate(-19.924 -96.445)"/><path class="b" d="M81.88,61.89A10.09,10.09,0,1,1,71.79,51.8,10.09,10.09,0,0,1,81.88,61.89Z" transform="translate(-31.234 -31.908)"/><path class="c" d="M28.948,145.9l-.025,1.054L23,146.8l.351-13,5.923.151-.075,2.585Z" transform="translate(-2.247 -93.327)"/><g transform="translate(20 9.2)"><path class="d" d="M58.7,59.643A10.843,10.843,0,1,0,69.543,48.8,10.829,10.829,0,0,0,58.7,59.643Zm10.843-9.337a9.337,9.337,0,1,1-9.362,9.337A9.335,9.335,0,0,1,69.543,50.306Z" transform="translate(-48.987 -38.861)"/><path class="d" d="M55.088,133.687l-5.848,2.761a4.763,4.763,0,0,0-4.066-2.51l-5.421-.151a5.949,5.949,0,0,1-2.46-.627l-.552-.276a9.715,9.715,0,0,0-8.985,0l.025-1.255a.791.791,0,0,0-.728-.778l-5.923-.151a.762.762,0,0,0-.527.2.684.684,0,0,0-.226.527L20,144.454a.791.791,0,0,0,.728.778l5.923.151h.025a.767.767,0,0,0,.753-.728l.025-.627,1.531-.828a2.712,2.712,0,0,1,1.983-.226l9.211,2.585h.05a9.311,9.311,0,0,0,2.033.2,9.962,9.962,0,0,0,4.166-.9c.025-.025.075-.025.1-.05l13.328-8.634a.76.76,0,0,0,.251-1A3.87,3.87,0,0,0,55.088,133.687Zm-29.115,9.864-.025.3-4.443-.1.326-11.52,4.443.126Zm19.753,0a8.587,8.587,0,0,1-5.2.577l-9.186-2.585a4.134,4.134,0,0,0-3.087.326l-.778.427.2-7.655a8.247,8.247,0,0,1,8.358-.452l.552.276a7.076,7.076,0,0,0,3.112.8l5.4.151a3.259,3.259,0,0,1,3.012,2.259,2.575,2.575,0,0,1,.1.351l-8.057-.226a.753.753,0,1,0-.05,1.506l8.885.251h.025a.767.767,0,0,0,.753-.728,6.428,6.428,0,0,0-.075-.979l6-2.836h.025a2.33,2.33,0,0,1,2.585.351Z" transform="translate(-20 -100.205)"/><path class="d" d="M100.306,17.056v-7.1a.753.753,0,1,0-1.506,0v7.1a.755.755,0,0,0,.753.753A.772.772,0,0,0,100.306,17.056Z" transform="translate(-79.022 -9.2)"/><path class="d" d="M122.706,28.216V24.853a.755.755,0,0,0-.753-.753.74.74,0,0,0-.753.753v3.363a.753.753,0,1,0,1.506,0Z" transform="translate(-95.8 -20.36)"/><path class="d" d="M78.006,28.216V24.853a.753.753,0,1,0-1.506,0v3.363a.755.755,0,0,0,.753.753A.772.772,0,0,0,78.006,28.216Z" transform="translate(-62.319 -20.36)"/></g><path class="e" d="M94.479,73.528a.728.728,0,0,0-.728-.728h-6a.728.728,0,1,0,0,1.456h2.083a1.794,1.794,0,0,1,1.606.979H87.728a.728.728,0,1,0,0,1.456h3.715a1.794,1.794,0,0,1-1.606.979H87.452a.025.025,0,0,0-.025.025H87.4l-.025.025h-.025l-.025.025-.025.025-.025.025-.1.075h0V77.9l-.025.025-.025.025a233.522,233.522,0,0,0-.05.05v.427h0v.251a350.327,350.327,0,0,0,.075.075l.025.025.025.025.025.025h0l4.518,4.267a.746.746,0,0,0,1.029-1.079L89.61,79.2h.2A3.278,3.278,0,0,0,93,76.741h.7a.728.728,0,0,0,0-1.456H93a3.134,3.134,0,0,0-.427-.979h1.155A.813.813,0,0,0,94.479,73.528Z" transform="translate(-50.184 -47.637)"/></g></svg>