<svg xmlns="http://www.w3.org/2000/svg" width="66.291" height="62.46" viewBox="0 0 66.291 62.46"><defs><style>.a,.b{fill:#282828;}.b,.c{stroke:#282828;stroke-miterlimit:10;stroke-width:0.358px;}.c{fill:#d9fffd;}.d{fill:#d4ffdf;}.e{fill:#dcd9ff;}.f{fill:#ffc;}</style></defs><g transform="translate(-7.9 -13.721)"><g transform="translate(7.9 13.9)"><g transform="translate(0)"><path class="a" d="M68.844,108.039h-.361a8.576,8.576,0,0,0,2.493-6.069,8.67,8.67,0,1,0-17.34,0,8.576,8.576,0,0,0,2.493,6.069h-.361a5.4,5.4,0,0,0-5.383,5.383v1.156a5.306,5.306,0,0,0-2.782-.795h-.361a8.576,8.576,0,0,0,2.493-6.069,8.67,8.67,0,1,0-17.34,0,8.576,8.576,0,0,0,2.493,6.069h-.361a5.212,5.212,0,0,0-2.782.795v-1.156a5.4,5.4,0,0,0-5.383-5.383H26a8.576,8.576,0,0,0,2.493-6.069,8.67,8.67,0,1,0-17.34,0,8.576,8.576,0,0,0,2.493,6.069h-.361A5.4,5.4,0,0,0,7.9,113.422v6.394a1.3,1.3,0,0,0,1.3,1.3H29.142v4.48a1.3,1.3,0,0,0,1.3,1.3H51.648a1.3,1.3,0,0,0,1.3-1.3v-4.48H72.89a1.3,1.3,0,0,0,1.3-1.3v-6.394a5.32,5.32,0,0,0-5.347-5.383Z" transform="translate(-7.9 -64.616)"/><g transform="translate(14.667)"><path class="b" d="M51.535,41.536H63.781l2.2,2.2a1.31,1.31,0,0,0,1.806,0l2.2-2.2H82.241A3.053,3.053,0,0,0,85.276,38.5V16.935A3.053,3.053,0,0,0,82.241,13.9H51.535A3.053,3.053,0,0,0,48.5,16.935V38.5a3.053,3.053,0,0,0,3.035,3.035Z" transform="translate(-48.5 -13.9)"/></g></g><g transform="translate(17.34 2.168)"><path class="c" d="M55.9,20.334a.439.439,0,0,1,.434-.434H87.112a.439.439,0,0,1,.434.434V41.9a.439.439,0,0,1-.434.434H74.324a1.351,1.351,0,0,0-.9.361l-1.7,1.7-1.662-1.7a1.254,1.254,0,0,0-.9-.361H56.37a.439.439,0,0,1-.434-.434L55.9,20.334Z" transform="translate(-55.9 -19.9)"/><path class="a" d="M95.954,35.475a.971.971,0,0,0-.975-.975H87.212a.975.975,0,0,0,0,1.951h2.746a2.4,2.4,0,0,1,2.1,1.264H87.212a.975.975,0,0,0,0,1.951h4.841a2.336,2.336,0,0,1-2.1,1.264H86.886a.035.035,0,0,0-.036.036L86.814,41l-.036.036-.036.036-.036.036-.036.036-.144.036-.036.036h0l-.036.036-.036.036-.036.036-.036.036a.035.035,0,0,1-.036.036,241.905,241.905,0,0,0-.072.072.035.035,0,0,1-.036.036v.325h0v.325a.035.035,0,0,0,.036.036l.036.036.036.036a.035.035,0,0,0,.036.036l.036.036.036.036.036.036.036.036h0l5.888,5.563a.972.972,0,0,0,1.373-.072.96.96,0,0,0-.036-1.337l-4.082-3.757h.289a4.254,4.254,0,0,0,4.154-3.215h.939a.975.975,0,1,0,0-1.951h-.939a3.941,3.941,0,0,0-.542-1.264h1.481A.911.911,0,0,0,95.954,35.475Z" transform="translate(-75.254 -29.226)"/></g></g><circle class="d" cx="6.069" cy="6.069" r="6.069" transform="translate(56.38 45.112)"/><path class="d" d="M133.036,143.882a2.783,2.783,0,0,1,2.782-2.782h13.041a2.783,2.783,0,0,1,2.782,2.782v5.094H133v-5.094Z" transform="translate(-79.907 -81.248)"/><circle class="e" cx="6.069" cy="6.069" r="6.069" transform="translate(35.03 51.182)"/><path class="e" d="M74,160.682a2.783,2.783,0,0,1,2.782-2.782H89.823a2.783,2.783,0,0,1,2.782,2.782v5.094H74Z" transform="translate(-42.221 -91.979)"/><circle class="f" cx="6.069" cy="6.069" r="6.069" transform="translate(13.68 45.112)"/><path class="f" d="M14.9,143.882a2.783,2.783,0,0,1,2.782-2.782H30.723a2.783,2.783,0,0,1,2.782,2.782v5.094H14.9Z" transform="translate(-4.471 -81.248)"/></g></svg>