<svg xmlns="http://www.w3.org/2000/svg" width="21" height="18.998" viewBox="0 0 21 18.998"><defs><style>.a{fill:#868686;stroke:#868686;stroke-width:0.5px;}</style></defs><g transform="translate(0.25 -24.75)"><path class="a" d="M98.882,249H97.6a.6.6,0,0,0,0,1.2h1.281a.6.6,0,0,0,0-1.2Z" transform="translate(-93.116 -215.031)"/><path class="a" d="M98.882,313H97.6a.6.6,0,0,0,0,1.2h1.281a.6.6,0,0,0,0-1.2Z" transform="translate(-93.116 -276.469)"/><path class="a" d="M98.882,377H97.6a.6.6,0,0,0,0,1.2h1.281a.6.6,0,0,0,0-1.2Z" transform="translate(-93.116 -337.906)"/><path class="a" d="M226.882,249H225.6a.6.6,0,1,0,0,1.2h1.281a.6.6,0,1,0,0-1.2Z" transform="translate(-215.991 -215.031)"/><path class="a" d="M226.882,313H225.6a.6.6,0,1,0,0,1.2h1.281a.6.6,0,1,0,0-1.2Z" transform="translate(-215.991 -276.469)"/><path class="a" d="M354.882,249H353.6a.6.6,0,0,0,0,1.2h1.281a.6.6,0,0,0,0-1.2Z" transform="translate(-338.866 -215.031)"/><path class="a" d="M354.882,313H353.6a.6.6,0,0,0,0,1.2h1.281a.6.6,0,0,0,0-1.2Z" transform="translate(-338.866 -276.469)"/><path class="a" d="M18.7,26.6H17.257v-1a.6.6,0,1,0-1.2,0v1H10.851v-1a.6.6,0,1,0-1.2,0v1H4.444v-1a.6.6,0,1,0-1.2,0v1H1.8A1.8,1.8,0,0,0,0,28.4V41.7a1.8,1.8,0,0,0,1.8,1.8H18.7a1.8,1.8,0,0,0,1.8-1.8V28.4A1.8,1.8,0,0,0,18.7,26.6ZM1.2,28.4a.6.6,0,0,1,.6-.6H3.243v1a.6.6,0,0,0,1.2,0v-1H9.649v1a.6.6,0,0,0,1.2,0v-1h5.205v1a.6.6,0,0,0,1.2,0v-1H18.7a.6.6,0,0,1,.6.6v2.362H1.2ZM18.7,42.3H1.8a.6.6,0,0,1-.6-.6v-9.73H19.3V41.7A.6.6,0,0,1,18.7,42.3Z"/><path class="a" d="M98.882,377H97.6a.6.6,0,0,0,0,1.2h1.281a.6.6,0,0,0,0-1.2Z" transform="translate(-88.116 -337.906)"/></g></svg>