<svg xmlns="http://www.w3.org/2000/svg" width="130" height="130" viewBox="0 0 130 130"><defs><style>.a{fill:#f8f9f9;}.b{fill:#688d67;}</style></defs><g transform="translate(-163 -960)"><rect class="a" width="130" height="130" rx="20" transform="translate(163 960)"/><g transform="translate(178 975)"><path class="b" d="M78.3,26.023A4.024,4.024,0,0,0,74.28,22H54.164v8.047h10.4L27.073,67.538a3.877,3.877,0,0,0,0,5.484l.209.209a3.877,3.877,0,0,0,5.484,0L70.257,35.74v10.4H78.3Z" transform="translate(0.023)"/><path class="b" d="M46.14,34.07A12.07,12.07,0,1,0,34.07,46.14,12.071,12.071,0,0,0,46.14,34.07Zm-16.093,0a4.023,4.023,0,1,1,4.023,4.023A4.024,4.024,0,0,1,30.047,34.07Z"/><path class="b" d="M54,66.07A12.07,12.07,0,1,0,66.07,54,12.071,12.071,0,0,0,54,66.07Zm16.093,0a4.023,4.023,0,1,1-4.023-4.023A4.024,4.024,0,0,1,70.093,66.07Z" transform="translate(0.187 0.187)"/></g></g></svg>