<svg xmlns="http://www.w3.org/2000/svg" width="130" height="130" viewBox="0 0 130 130"><defs><style>.a{fill:#f8f9f9;}.b{fill:#3ea4d1;}</style></defs><g transform="translate(-483 -960)"><rect class="a" width="130" height="130" rx="20" transform="translate(483 960)"/><g transform="translate(236.954 601.026)"><g transform="translate(289.775 402.734)"><path class="b" d="M348.1,426.729l-3.439,3.439-8.251,8.251-9.982,9.982-8.63,8.63c-1.4,1.4-2.823,2.779-4.207,4.207l-.065.065a4.328,4.328,0,0,0,6.121,6.121l3.439-3.439,8.251-8.251,9.982-9.982,8.63-8.63c1.4-1.4,2.823-2.779,4.207-4.207l.065-.065a4.328,4.328,0,0,0-6.121-6.121Z" transform="translate(-312.284 -425.496)"/></g><g transform="translate(287.046 399.974)"><path class="b" d="M300.083,413.019c-.227.216-.454.422-.7.616l.876-.681a7.7,7.7,0,0,1-1.438.844c.346-.141.692-.292,1.038-.433a7.333,7.333,0,0,1-1.849.508c.379-.054.768-.108,1.146-.151a8,8,0,0,1-1.763,0c.379.054.768.108,1.146.151a7.333,7.333,0,0,1-1.849-.508c.346.141.692.292,1.038.433a7.705,7.705,0,0,1-1.438-.844l.876.681a7.256,7.256,0,0,1-1.319-1.319l.681.876a7.7,7.7,0,0,1-.844-1.438c.141.346.292.692.433,1.038a7.336,7.336,0,0,1-.508-1.849c.054.379.108.768.151,1.146a8.007,8.007,0,0,1,0-1.763c-.054.379-.108.768-.151,1.146a7.336,7.336,0,0,1,.508-1.849c-.141.346-.292.692-.433,1.038a7.7,7.7,0,0,1,.844-1.438l-.681.876a7.259,7.259,0,0,1,1.319-1.319l-.876.681a7.705,7.705,0,0,1,1.438-.844c-.346.141-.692.292-1.038.433a7.334,7.334,0,0,1,1.849-.508c-.379.054-.768.108-1.146.151a8,8,0,0,1,1.763,0c-.379-.054-.768-.108-1.146-.151a7.334,7.334,0,0,1,1.849.508c-.346-.141-.692-.292-1.038-.433a7.7,7.7,0,0,1,1.438.844l-.876-.681A7.257,7.257,0,0,1,300.7,410.1l-.681-.876a7.7,7.7,0,0,1,.844,1.438c-.141-.346-.292-.692-.433-1.038a7.333,7.333,0,0,1,.508,1.849c-.054-.379-.108-.768-.151-1.146a8.007,8.007,0,0,1,0,1.763c.054-.379.108-.768.151-1.146a7.333,7.333,0,0,1-.508,1.849c.141-.346.292-.692.433-1.038a7.7,7.7,0,0,1-.844,1.438l.681-.876c-.195.249-.4.476-.616.7a4.328,4.328,0,0,0,6.121,6.121,10.861,10.861,0,0,0,3.039-5.688,12.937,12.937,0,0,0,.032-4.283,10.331,10.331,0,0,0-1.006-3.017,11.153,11.153,0,0,0-10.739-6.132,10.776,10.776,0,0,0-3.147.681,12.75,12.75,0,0,0-3.59,2.141,10.776,10.776,0,0,0-3.385,5.526,10.973,10.973,0,0,0,.249,6.435,12.946,12.946,0,0,0,2.066,3.623,10.974,10.974,0,0,0,2.509,2.228,11.007,11.007,0,0,0,6.7,1.73,12.758,12.758,0,0,0,4.326-1.146,10.715,10.715,0,0,0,2.952-2.1,4.374,4.374,0,0,0,0-6.121A4.429,4.429,0,0,0,300.083,413.019Z" transform="translate(-287.046 -399.974)"/></g><g transform="translate(313.26 426.167)"><g transform="translate(0)"><path class="b" d="M542.483,655.219c-.227.216-.454.422-.7.616l.876-.681a7.7,7.7,0,0,1-1.438.844c.346-.141.692-.292,1.038-.433a7.336,7.336,0,0,1-1.849.508c.379-.054.768-.108,1.146-.151a8.006,8.006,0,0,1-1.763,0c.378.054.768.108,1.146.151a7.335,7.335,0,0,1-1.849-.508c.346.141.692.292,1.038.433a7.7,7.7,0,0,1-1.438-.844l.876.681a7.256,7.256,0,0,1-1.319-1.319l.681.876a7.7,7.7,0,0,1-.844-1.438c.141.346.292.692.433,1.038a7.331,7.331,0,0,1-.508-1.849c.054.379.108.768.151,1.146a8,8,0,0,1,0-1.763c-.054.379-.108.768-.151,1.146a7.331,7.331,0,0,1,.508-1.849c-.141.346-.292.692-.433,1.038a7.7,7.7,0,0,1,.844-1.438l-.681.876a7.253,7.253,0,0,1,1.319-1.319l-.876.681a7.7,7.7,0,0,1,1.438-.844c-.346.141-.692.292-1.038.432a7.335,7.335,0,0,1,1.849-.508c-.379.054-.768.108-1.146.151a8,8,0,0,1,1.763,0c-.378-.054-.768-.108-1.146-.151a7.336,7.336,0,0,1,1.849.508c-.346-.141-.692-.292-1.038-.432a7.7,7.7,0,0,1,1.438.844l-.876-.681A7.254,7.254,0,0,1,543.1,652.3l-.681-.876a7.707,7.707,0,0,1,.844,1.438c-.141-.346-.292-.692-.432-1.038a7.338,7.338,0,0,1,.508,1.849c-.054-.379-.108-.768-.151-1.146a8.007,8.007,0,0,1,0,1.763c.054-.379.108-.768.151-1.146a7.338,7.338,0,0,1-.508,1.849c.14-.346.292-.692.432-1.038a7.705,7.705,0,0,1-.844,1.438l.681-.876a7.745,7.745,0,0,1-.617.7,4.328,4.328,0,0,0,6.121,6.121,10.861,10.861,0,0,0,3.039-5.689,12.94,12.94,0,0,0,.032-4.283,10.331,10.331,0,0,0-1.006-3.017,11.153,11.153,0,0,0-10.739-6.132,10.776,10.776,0,0,0-3.147.681,12.751,12.751,0,0,0-3.59,2.141,10.776,10.776,0,0,0-3.385,5.526,10.973,10.973,0,0,0,.249,6.435,12.95,12.95,0,0,0,2.066,3.623,10.975,10.975,0,0,0,2.509,2.228,11.007,11.007,0,0,0,6.705,1.73,12.758,12.758,0,0,0,4.326-1.146,10.713,10.713,0,0,0,2.952-2.1,4.374,4.374,0,0,0,0-6.121A4.439,4.439,0,0,0,542.483,655.219Z" transform="translate(-529.446 -642.174)"/></g></g></g></g></svg>