<svg xmlns="http://www.w3.org/2000/svg" width="18.206" height="18.206" viewBox="0 0 18.206 18.206"><defs><style>.a{fill:#1a8df0;stroke:#1a8df0;stroke-width:0.75px;}</style></defs><g transform="translate(-23.625 -23.625)"><path class="a" d="M145.16,37.58a.9.9,0,0,0,1.277,0h0l3.4-3.4a.9.9,0,0,0-1.277-1.277L146.7,34.761V24.9a.9.9,0,0,0-1.806,0v9.859L143.032,32.9a.9.9,0,0,0-1.277,1.277Z" transform="translate(-113.07 0)"/><path class="a" d="M40.553,232a.9.9,0,0,0-.9.9v6.922H25.806V232.9a.9.9,0,1,0-1.806,0v7.223a1.5,1.5,0,0,0,1.5,1.5H39.951a1.5,1.5,0,0,0,1.5-1.5V232.9A.9.9,0,0,0,40.553,232Z" transform="translate(0 -200.175)"/></g></svg>