<svg xmlns="http://www.w3.org/2000/svg" width="17.025" height="17.006" viewBox="0 0 17.025 17.006"><defs><style>.a{fill:#1a8df0;}</style></defs><g transform="translate(-36.269 -36.562)"><g transform="translate(46.979 36.562)"><path class="a" d="M316.534,46.5,315.1,47.933l3.872,3.872,1.434-1.434a.76.76,0,0,0,0-1.071l-2.8-2.8A.753.753,0,0,0,316.534,46.5Z" transform="translate(-314.704 -45.888)"/><g transform="translate(0 0)"><path class="a" d="M306.7,36.891l-1.434,1.434a.4.4,0,0,0,0,.562l3.382,3.382.49.49a.4.4,0,0,0,.562,0l1.151-1.151a2.455,2.455,0,0,0,.49-.566,1.181,1.181,0,0,0-.215-1.362c-.785-.825-1.613-1.613-2.418-2.418-.123-.123-.239-.247-.366-.366a1.185,1.185,0,0,0-1.641,0c-.374.351.187.912.562.562.339-.315.669.159.892.382l1.3,1.3,1.048,1.048a.41.41,0,0,1,.159.426,1.112,1.112,0,0,1-.331.39l-1.195,1.195h.562l-3.382-3.382-.49-.49v.562l1.434-1.434C307.626,37.09,307.06,36.528,306.7,36.891Z" transform="translate(-305.15 -36.562)"/></g></g><g transform="translate(36.269 39.361)"><path class="a" d="M55.759,116.8l-8.635,8.639-.924,4.776,4.764-.876,8.667-8.667Zm-9.52,13.339.96-3.581,2.621,2.621Z" transform="translate(-45.804 -116.402)"/><g transform="translate(0 0)"><path class="a" d="M37.906,356.019q.418-1.565.84-3.131c.04-.151.08-.3.119-.45l-.665.175,2.294,2.294.331.331c.06-.223.116-.442.175-.665-1.044.279-2.087.562-3.131.84l-.45.12a.4.4,0,0,0,.211.769c1.044-.279,2.087-.562,3.131-.84l.45-.119a.4.4,0,0,0,.175-.665l-2.294-2.294-.331-.331a.4.4,0,0,0-.665.175q-.418,1.565-.84,3.131c-.04.151-.08.3-.119.45A.4.4,0,0,0,37.906,356.019Z" transform="translate(-37.088 -342.174)"/><path class="a" d="M45.945,106.939l-1.593,1.593-3.342,3.342-2.979,2.979c-.227.227-.458.45-.681.681a1.657,1.657,0,0,0-.267.852q-.394,2.025-.785,4.047c-.008.032-.012.064-.02.1a.4.4,0,0,0,.49.49c1.227-.227,2.454-.45,3.68-.677l.84-.155a.747.747,0,0,0,.422-.151c.175-.155.335-.335.5-.5l2.8-2.8,3.414-3.414c.641-.641,1.3-1.267,1.924-1.924l.028-.028a.4.4,0,0,0,0-.562l-3.382-3.382-.49-.49a.4.4,0,0,0-.562.562l3.382,3.382.49.49v-.562l-2.936,2.936L42.2,118.418l-1.063,1.063.175-.1-4.166.765c-.2.036-.4.072-.6.112l.49.49q.406-2.091.809-4.182c.04-.2.076-.394.116-.593l-.1.175,2.924-2.924,4.652-4.652L46.5,107.5A.4.4,0,0,0,45.945,106.939Z" transform="translate(-36.269 -106.82)"/></g></g></g></svg>