<svg xmlns="http://www.w3.org/2000/svg" width="130" height="130" viewBox="0 0 130 130"><defs><style>.a{fill:#f8f9f9;}.b{fill:#e3b05f;}</style></defs><g transform="translate(-1123 -960)"><rect class="a" width="130" height="130" rx="20" transform="translate(1123 960)"/><g transform="translate(1146.003 983.375)"><path class="b" d="M49.572,28.788,19.84,48.441l2.7.8,2.078.614c.022.011.032.011.054.022l8.884,2.606,1.314.388L55.409,37.435l.032-.032,5.2-3.909,1.8-1.346.409-.312-12.416-3.2A1.054,1.054,0,0,0,49.572,28.788Z" transform="translate(0.603 1.151)"/><path class="b" d="M35.691,66.979l-.108-1.529-.118-1.54-.291-3.931-.323-4.157-.183-2.5-10-2.94c-.011,0-.032-.011-.043-.011L21.1,49.34l-.786-.237-1.357-.4L12.162,59.689a1.045,1.045,0,0,0-.086.958,1.066,1.066,0,0,0,.711.646l22.969,6.44-.054-.721Z" transform="translate(0 2.696)"/><path class="b" d="M70.533,40.5a1.093,1.093,0,0,0-.3-.818l-6.687-6.881-.969.732-.765.571-6.246,4.7L35.04,54.234l.506,6.817L35.923,66l.151,2.046v.065l.032.506L70.135,41.269A1.054,1.054,0,0,0,70.533,40.5Z" transform="translate(1.771 1.474)"/><path class="b" d="M41.151,20.614a1.143,1.143,0,0,0,.172.226,1.25,1.25,0,0,0,.226.172h.011l.151.086a1.049,1.049,0,0,0,.366.065c3.2,0,4.329,4.512,4.34,4.555a.948.948,0,0,0,.054.162.216.216,0,0,0,.043.086,1.208,1.208,0,0,0,.172.237.657.657,0,0,0,.162.14,1.023,1.023,0,0,0,1.228,0,.657.657,0,0,0,.162-.14,1.209,1.209,0,0,0,.172-.237.216.216,0,0,0,.043-.086.948.948,0,0,0,.054-.162c.011-.043,1.12-4.555,4.34-4.555a1.049,1.049,0,0,0,.366-.065l.151-.086h.011a1.25,1.25,0,0,0,.226-.172,1.143,1.143,0,0,0,.172-.226,1.092,1.092,0,0,0,.108-.258.744.744,0,0,0,.043-.269.137.137,0,0,0-.011-.065.4.4,0,0,0-.022-.194.533.533,0,0,0-.043-.14c-.011-.011-.011-.022-.022-.032a1.286,1.286,0,0,0-.086-.172,1.1,1.1,0,0,0-.894-.474c-3.2,0-4.329-4.512-4.34-4.555a1.008,1.008,0,0,0-.366-.582.41.41,0,0,0-.14-.1,1.037,1.037,0,0,0-1.077,0,.41.41,0,0,0-.14.1,1.292,1.292,0,0,0-.129.118,1,1,0,0,0-.237.463c-.011.043-1.12,4.555-4.34,4.555a1.1,1.1,0,0,0-.894.474,1.286,1.286,0,0,0-.086.172c-.011.011-.011.022-.022.032a.533.533,0,0,0-.043.14.4.4,0,0,0-.022.194.137.137,0,0,0-.011.065.744.744,0,0,0,.043.269A1.092,1.092,0,0,0,41.151,20.614Z" transform="translate(2.229)"/><path class="b" d="M12.151,35.614a.9.9,0,0,0,.172.226,1.249,1.249,0,0,0,.226.172h.011l.151.086h.011a.99.99,0,0,0,.355.065c3.2,0,4.329,4.512,4.34,4.555a.948.948,0,0,0,.054.162.216.216,0,0,0,.043.086,1.208,1.208,0,0,0,.172.237.657.657,0,0,0,.162.14,1.023,1.023,0,0,0,1.228,0,.657.657,0,0,0,.162-.14,1.209,1.209,0,0,0,.172-.237.216.216,0,0,0,.043-.086.947.947,0,0,0,.054-.162c.011-.043,1.12-4.555,4.34-4.555A.99.99,0,0,0,24.2,36.1h.011l.151-.086h.011a1.249,1.249,0,0,0,.226-.172.9.9,0,0,0,.172-.226,1.092,1.092,0,0,0,.108-.258.744.744,0,0,0,.043-.269.137.137,0,0,0-.011-.065.4.4,0,0,0-.022-.194.533.533,0,0,0-.043-.14c-.011-.011-.011-.022-.022-.032a1.286,1.286,0,0,0-.086-.172,1.1,1.1,0,0,0-.894-.474c-3.2,0-4.329-4.512-4.34-4.555a1,1,0,0,0-.237-.463,1.291,1.291,0,0,0-.129-.118.41.41,0,0,0-.14-.1,1.037,1.037,0,0,0-1.077,0,.41.41,0,0,0-.14.1,1.291,1.291,0,0,0-.129.118,1,1,0,0,0-.237.463c-.011.043-1.12,4.555-4.34,4.555a1.1,1.1,0,0,0-.894.474,1.286,1.286,0,0,0-.086.172c-.011.011-.011.022-.022.032a.533.533,0,0,0-.043.14.4.4,0,0,0-.022.194.137.137,0,0,0-.011.065.744.744,0,0,0,.043.269A1.092,1.092,0,0,0,12.151,35.614Z" transform="translate(0 1.153)"/><path class="b" d="M68.89,56.828a.534.534,0,0,0-.043-.14c-.011-.011-.011-.022-.022-.032a1.287,1.287,0,0,0-.086-.172,1.1,1.1,0,0,0-.894-.474c-3.2,0-4.329-4.512-4.34-4.555a1,1,0,0,0-.237-.463,1.291,1.291,0,0,0-.129-.118.41.41,0,0,0-.14-.1,1.037,1.037,0,0,0-1.077,0,.41.41,0,0,0-.14.1,1.291,1.291,0,0,0-.129.118,1,1,0,0,0-.237.463c-.011.043-1.12,4.555-4.34,4.555a1.1,1.1,0,0,0-.894.474,1.286,1.286,0,0,0-.086.172c-.011.011-.011.022-.022.032a.533.533,0,0,0-.043.14.4.4,0,0,0-.022.194.137.137,0,0,0-.011.065.744.744,0,0,0,.043.269,1.092,1.092,0,0,0,.108.258.9.9,0,0,0,.172.226,1.25,1.25,0,0,0,.226.172h.011l.151.086h.011a.99.99,0,0,0,.355.065c3.2,0,4.329,4.512,4.34,4.555a.948.948,0,0,0,.054.162.216.216,0,0,0,.043.086,1.209,1.209,0,0,0,.172.237.657.657,0,0,0,.162.14,1.023,1.023,0,0,0,1.228,0,.657.657,0,0,0,.162-.14,1.209,1.209,0,0,0,.172-.237.216.216,0,0,0,.043-.086.948.948,0,0,0,.054-.162c.011-.043,1.12-4.555,4.34-4.555A.99.99,0,0,0,68.2,58.1h.011l.151-.086h.011a1.249,1.249,0,0,0,.226-.172.9.9,0,0,0,.172-.226,1.092,1.092,0,0,0,.108-.258.744.744,0,0,0,.043-.269.137.137,0,0,0-.011-.065A.4.4,0,0,0,68.89,56.828Z" transform="translate(3.382 2.844)"/></g></g></svg>