<svg xmlns="http://www.w3.org/2000/svg" width="286.96" height="46.806" viewBox="0 0 286.96 46.806"><defs><style>.a{fill:#ef5713;}.a,.b{fill-rule:evenodd;}.b{fill:#fff;}.c{fill:#131845;}</style></defs><path class="a" d="M46.5,25a23.4,23.4,0,1,1-23.4,23.4A23.4,23.4,0,0,1,46.5,25Z" transform="translate(-23.093 -25)"/><path class="b" d="M46.733,51.949l.949-2.228H45.177l1.556,2.228Zm-.409-4.572,1.358,2.344,1-2.344Zm0,0,1.387-2.836H44.695l1.629,2.836ZM38.69,44.541l2.994,5.828,3.01-5.828Zm2.994,5.828-3.159,6.1h6.287l-1.5-2.933-1.626-3.166Zm1.546-2.992,1.5,3.26.448-.917h0l1.147-2.344Zm1.5,3.26-1.418,2.9h2.746l-1.328-2.9Zm2,1.312-.677,1.586h1.785l-1.108-1.586Zm-1.916,4.518H47.4l-1.342-2.932-1.245,2.932Zm2.795,5.441-2.8-5.441-2.323,5.441Zm2.278-5.441h0l-.445-.639-1.6-2.293h4.1L49.89,56.468ZM42.107,40.087l4.26-5.555H38.891l3.216,5.555Zm4.9,0h-4.9l2.588,4.454,2.317-4.454ZM38.69,44.541l3.416-4.454H36.4l2.288,4.454Zm0,0H29.835l4.315,5.921,4.541-5.921Zm-.165,11.927-2.819,5.441h6.783l-3.964-5.441Zm-8.981,0h8.981l-4.376-6.005-4.605,6.005ZM40.6,66.342h5.12l-3.231-4.433L40.6,66.342ZM53.047,51.949,52.1,49.721H54.6l-1.556,2.228Zm.409-4.572L52.1,49.721l-1-2.344Zm0,0L52.07,44.541h3.016l-1.63,2.836Zm7.634-2.836L58.1,50.369l-3.01-5.828ZM58.1,50.369l3.159,6.1H54.969l1.5-2.933L58.1,50.369ZM56.55,47.377l-1.5,3.26-.448-.917h0l-1.148-2.344Zm-1.5,3.26,1.418,2.9H53.724l1.328-2.9Zm-2,1.312.677,1.586H51.939l1.108-1.586Zm1.916,4.518H52.382l1.342-2.932,1.245,2.932Zm-2.8,5.441,2.8-5.441,2.323,5.441ZM49.89,47.377H51.1L49.89,44.541h0l-1.209,2.836H49.89Zm0,6.158h0l.305-.529,1.9-3.286H47.682l2.208,3.815h0Zm0,8.372h0l2.492-5.441H47.4l1.923,4.2.569,1.243h0Zm7.784-21.82-4.26-5.555h7.475l-3.215,5.555Zm-4.905,0h4.905l-2.588,4.454-2.317-4.454Zm8.321,4.454-3.416-4.454h5.7L61.09,44.541Zm0,0h8.856l-4.315,5.921L61.09,44.541Zm.165,11.927,2.819,5.441H57.291l3.964-5.441Zm8.981,0H61.255l4.376-6.005,4.605,6.005ZM59.181,66.342H54.06l3.231-4.433,1.89,4.433ZM49.89,34.532h3.524L49.89,29.938h0l-3.523,4.594H49.89Zm0,5.555h2.879L49.89,34.532h0l-2.879,5.555H49.89Zm0,4.454h2.18l-1.315-2.687-.864-1.767h0l-2.179,4.454H49.89Zm0,21.8h0l.588-1.145,1.689-3.288H47.612l2.278,4.433h0Zm0,5.723h0l4.17-5.722H45.72l4.17,5.722Z" transform="translate(-26.487 -27.598)"/><path class="b" d="M155.673,41.79h-5.034a2.931,2.931,0,0,0-2.923,2.923v27.97h5.034a2.931,2.931,0,0,0,2.923-2.923V41.79Zm8.409,0h17.055v5.162a2.8,2.8,0,0,1-2.8,2.795H169.2V53.71h9.936v5.162a2.805,2.805,0,0,1-2.8,2.8H169.2v8.178a2.846,2.846,0,0,1-2.839,2.837h-5.118V44.627a2.846,2.846,0,0,1,2.839-2.837Zm-21.936,0h-5.035a2.931,2.931,0,0,0-2.923,2.923v27.97h5.035a2.932,2.932,0,0,0,2.923-2.923V41.79Zm51.359,0h-5.118a2.846,2.846,0,0,0-2.839,2.837V72.682h14.825a2.8,2.8,0,0,0,2.8-2.8V64.725h-9.665V41.79Z" transform="translate(-81.537 -33.833)"/><path class="c" d="M513.652,64.383v-.011l0,.011Z" transform="translate(-281.159 -45.713)"/><path class="c" d="M447.829,61.745h0s.008,0,0,0Z" transform="translate(-246.532 -44.33)"/><path class="c" d="M363.652,61.743h0Z" transform="translate(-202.248 -44.329)"/><path class="c" d="M363.656,61.745h0s.006,0,0,0Z" transform="translate(-202.251 -44.33)"/><path class="b" d="M343.153,57.786h8.3a1.107,1.107,0,0,1,1.1,1.1v2.172a1.107,1.107,0,0,1-1.1,1.1h-7.164a1.2,1.2,0,0,0-1.2,1.2v3.91h8.364a1.107,1.107,0,0,1,1.1,1.1v2.173a1.107,1.107,0,0,1-1.1,1.1h-8.364v3.91a1.2,1.2,0,0,0,1.2,1.2h7.164a1.107,1.107,0,0,1,1.1,1.1v2.173a1.107,1.107,0,0,1-1.1,1.1h-8.3A4.462,4.462,0,0,1,338.7,76.7V62.235a4.462,4.462,0,0,1,4.449-4.449Z" transform="translate(-189.126 -42.248)"/><path class="b" d="M565.687,57.786h8.3a1.107,1.107,0,0,1,1.1,1.1v2.172a1.107,1.107,0,0,1-1.1,1.1h-7.164a1.2,1.2,0,0,0-1.2,1.2v3.91h8.364a1.107,1.107,0,0,1,1.1,1.1v2.173a1.107,1.107,0,0,1-1.1,1.1h-8.364v3.91a1.2,1.2,0,0,0,1.2,1.2h7.164a1.107,1.107,0,0,1,1.1,1.1v2.173a1.107,1.107,0,0,1-1.1,1.1h-8.3a4.462,4.462,0,0,1-4.449-4.449V62.235a4.462,4.462,0,0,1,4.449-4.449Z" transform="translate(-306.194 -42.248)"/><path class="b" d="M490.287,58.89V80.045a1.107,1.107,0,0,0,1.1,1.1h2.173a1.107,1.107,0,0,0,1.1-1.1V58.89a1.107,1.107,0,0,0-1.1-1.1h-2.173a1.107,1.107,0,0,0-1.1,1.1Z" transform="translate(-268.869 -42.248)"/><path class="b" d="M451.494,58.89V80.044a1.107,1.107,0,0,0,1.1,1.1h2.173a1.107,1.107,0,0,0,1.1-1.1v-8.2h2.276l4.982,8.482a2.007,2.007,0,0,0,1.586.821h2.391c.88,0,1.1-.865.68-1.577L462.87,71.2a7.017,7.017,0,0,0,4.061-6.345v-.069a7.016,7.016,0,0,0-7-7H452.6a1.108,1.108,0,0,0-1.1,1.1Zm4.381,8.628v-5.4h4a2.7,2.7,0,0,1,0,5.4Z" transform="translate(-248.461 -42.248)"/><path class="b" d="M410.307,58.89V72.64c0,.029,0,.058,0,.086v.247a8.2,8.2,0,0,0,8.174,8.174h0a8.2,8.2,0,0,0,8.174-8.174V58.89a1.107,1.107,0,0,0-1.1-1.1h-2.173a1.107,1.107,0,0,0-1.1,1.1V72.64c0,.029,0,.058,0,.086v.263a3.808,3.808,0,0,1-3.8,3.8h0a3.808,3.808,0,0,1-3.8-3.8V58.89a1.108,1.108,0,0,0-1.1-1.1h-2.173a1.108,1.108,0,0,0-1.1,1.1Z" transform="translate(-226.794 -42.248)"/><path class="b" d="M520.4,57.786H506.03a1.108,1.108,0,0,0-1.1,1.1v2.172a1.108,1.108,0,0,0,1.1,1.1h5V80.044a1.107,1.107,0,0,0,1.1,1.1H514.3a1.108,1.108,0,0,0,1.1-1.1V62.167h5a1.108,1.108,0,0,0,1.1-1.1V58.89a1.108,1.108,0,0,0-1.1-1.1Z" transform="translate(-276.57 -42.248)"/><path class="b" d="M545.378,58.89V80.045a1.107,1.107,0,0,0,1.1,1.1h2.172a1.107,1.107,0,0,0,1.1-1.1V58.89a1.107,1.107,0,0,0-1.1-1.1h-2.172a1.107,1.107,0,0,0-1.1,1.1Z" transform="translate(-297.85 -42.248)"/><path class="b" d="M387.285,57.787h-4.39l-.068,0-.22,0a9.367,9.367,0,0,0-2.132.236,7.62,7.62,0,0,0-2.166.86,6.753,6.753,0,0,0-1.914,1.71,8.4,8.4,0,0,0-1.347,2.746,13.79,13.79,0,0,0-.508,3.936v4.383a13.5,13.5,0,0,0,.509,3.891,8.422,8.422,0,0,0,1.346,2.736,6.932,6.932,0,0,0,1.911,1.724,7.622,7.622,0,0,0,2.166.886,9.017,9.017,0,0,0,2.135.252l.218,0,.069,0h4.39a1.107,1.107,0,0,0,1.1-1.1V77.872a1.107,1.107,0,0,0-1.1-1.1h-4.446l-.2,0a3.433,3.433,0,0,1-1.872-.382,3.222,3.222,0,0,1-1.25-1.591,8.529,8.529,0,0,1-.49-3.14V67.276a9.9,9.9,0,0,1,.283-2.555,3.059,3.059,0,0,1,3.33-2.555h4.641a1.107,1.107,0,0,0,1.1-1.1V58.891a1.107,1.107,0,0,0-1.1-1.1Z" transform="translate(-207.978 -42.248)"/><path class="b" d="M313.02,57.786h-5.794c-2.911,0-6.1.879-7.4,3.936-1.146,2.711-.607,6.162,1.8,7.864a8.729,8.729,0,0,0,2.422,1.178c.921.29,1.853.544,2.795.748a13.861,13.861,0,0,1,1.43.374,3.7,3.7,0,0,1,1.023.506,2.535,2.535,0,0,1-.068,3.8,4.343,4.343,0,0,1-2.424.492h-6.358a1.1,1.1,0,0,0-1.062,1.124v2.212a1.1,1.1,0,0,0,1.062,1.124h6.358a13.53,13.53,0,0,0,2.973-.362,7.816,7.816,0,0,0,2.7-1.175,5.881,5.881,0,0,0,1.862-2.157,7.289,7.289,0,0,0,.7-3.353,7.007,7.007,0,0,0-.649-3.228,5.546,5.546,0,0,0-1.7-1.967,8.383,8.383,0,0,0-2.419-1.16c-1.1-.331-4.347-.916-5.181-1.5a2.35,2.35,0,0,1,.069-3.527,3.914,3.914,0,0,1,2.112-.469h5.736a1.1,1.1,0,0,0,1.062-1.124V58.91a1.1,1.1,0,0,0-1.062-1.124Z" transform="translate(-168.371 -42.248)"/><path class="b" d="M609.012,57.786h-5.794c-2.911,0-6.1.879-7.4,3.936-1.146,2.711-.607,6.162,1.8,7.864a8.717,8.717,0,0,0,2.421,1.178c.921.29,1.853.544,2.795.748a13.842,13.842,0,0,1,1.43.374,3.7,3.7,0,0,1,1.023.506,2.535,2.535,0,0,1-.068,3.8,4.345,4.345,0,0,1-2.424.492h-6.357a1.1,1.1,0,0,0-1.062,1.124v2.212a1.1,1.1,0,0,0,1.062,1.124H602.8a13.529,13.529,0,0,0,2.973-.362,7.809,7.809,0,0,0,2.7-1.175,5.875,5.875,0,0,0,1.861-2.157,7.289,7.289,0,0,0,.7-3.353,7.009,7.009,0,0,0-.649-3.228,5.539,5.539,0,0,0-1.7-1.967,8.391,8.391,0,0,0-2.419-1.16c-1.1-.331-4.347-.916-5.181-1.5a2.35,2.35,0,0,1,.068-3.527,3.916,3.916,0,0,1,2.112-.469h5.736a1.1,1.1,0,0,0,1.062-1.124V58.91a1.1,1.1,0,0,0-1.062-1.124Z" transform="translate(-324.083 -42.248)"/></svg>