<svg xmlns="http://www.w3.org/2000/svg" width="60" height="60" viewBox="0 0 60 60"><defs><style>.a,.c{fill:#fff;}.a{stroke:#dbdbdb;}.b{fill:#ef5713;}.b,.c,.d{fill-rule:evenodd;}.d{fill:#131845;}.e{stroke:none;}.f{fill:none;}</style></defs><g transform="translate(-724 -989)"><g transform="translate(600 345)"><g class="a" transform="translate(124 644)"><circle class="e" cx="30" cy="30" r="30"/><circle class="f" cx="30" cy="30" r="29.5"/></g></g><g transform="translate(587 904)"><path class="b" d="M181.974,97a9.329,9.329,0,1,1-9.329,9.329A9.329,9.329,0,0,1,181.974,97Z" transform="translate(-15.117)"/><path class="c" d="M185.937,110.7l.378-.888h-1l.62.888Zm-.163-1.822.541.934.4-.934Zm0,0,.553-1.13h-1.2l.649,1.13Zm-3.043-1.13,1.193,2.323,1.2-2.323Zm1.193,2.323-1.259,2.431h2.506l-.6-1.169-.648-1.262Zm.616-1.193.6,1.3.179-.365h0l.457-.934Zm.6,1.3-.565,1.155h1.094l-.529-1.155Zm.8.523-.27.632h.711l-.442-.632Zm-.764,1.8H186.2l-.535-1.169-.5,1.169Zm1.114,2.169-1.116-2.169-.926,2.169Zm.908-2.169h0l-.178-.255-.639-.914h1.634L187.2,112.5Zm-3.1-6.529,1.7-2.215h-2.98l1.282,2.215Zm1.955,0h-1.955l1.032,1.775.924-1.775Zm-3.317,1.775,1.362-1.775h-2.274l.912,1.775Zm0,0H179.2l1.72,2.36,1.81-2.36Zm-.066,4.754-1.124,2.169h2.7l-1.58-2.169Zm-3.58,0h3.58l-1.744-2.394-1.836,2.394Zm4.407,3.936h2.041l-1.288-1.767-.753,1.767Zm4.962-5.737-.378-.888h1l-.621.888Zm.163-1.822-.541.934-.4-.934Zm0,0-.553-1.13h1.2l-.649,1.13Zm3.043-1.13-1.193,2.323-1.2-2.323Zm-1.193,2.323,1.259,2.431h-2.506l.6-1.169.648-1.262Zm-.616-1.193-.6,1.3-.179-.365h0l-.457-.934Zm-.6,1.3.565,1.155h-1.095l.529-1.155Zm-.8.523.27.632h-.711l.442-.632Zm.764,1.8h-1.029l.535-1.169.5,1.169Zm-1.114,2.169,1.116-2.169.926,2.169Zm-.908-5.793h.482l-.482-1.13h0l-.482,1.13h.482Zm0,2.455h0l.122-.211.758-1.31h-1.76l.88,1.521h0Zm0,3.337h0l.993-2.169H186.2l.766,1.673.227.5h0Zm3.1-8.7-1.7-2.215h2.98l-1.282,2.215Zm-1.955,0H190.3l-1.032,1.775-.923-1.775Zm3.317,1.775-1.362-1.775h2.274l-.912,1.775Zm0,0h3.53l-1.72,2.36-1.81-2.36Zm.066,4.754,1.124,2.169h-2.7l1.58-2.169Zm3.58,0h-3.58l1.744-2.394,1.836,2.394Zm-4.407,3.936h-2.041l1.288-1.767.753,1.767Zm-3.7-12.68h1.4l-1.4-1.831h0l-1.4,1.831h1.4Zm0,2.214h1.148l-1.148-2.214h0l-1.147,2.214H187.2Zm0,1.775h.869l-.524-1.071-.345-.7h0l-.869,1.775h.869Zm0,8.689h0l.234-.456.674-1.311h-1.816l.908,1.767h0Zm0,2.281h0l1.662-2.281h-3.325l1.662,2.281Z" transform="translate(-20.338 -3.997)"/><path class="d" d="M173.39,205.536h-1.52a.885.885,0,0,0-.883.883v8.446h1.52a.885.885,0,0,0,.883-.883v-8.446Zm2.539,0h5.15v1.559a.847.847,0,0,1-.845.844h-2.76v1.2h3v1.559a.847.847,0,0,1-.845.844h-2.155v2.47a.86.86,0,0,1-.857.857h-1.546v-8.472a.86.86,0,0,1,.857-.857Zm-6.625,0h-1.52a.885.885,0,0,0-.883.883v8.446h1.52a.885.885,0,0,0,.882-.883v-8.446Zm15.51,0h-1.546a.86.86,0,0,0-.857.857v8.472h4.477a.847.847,0,0,0,.845-.844v-1.559h-2.919v-6.926Z" transform="translate(-10.46 -87.996)"/><path class="d" d="M160.182,268.195l.544-3.395a.213.213,0,0,1,.2-.172h.509a.238.238,0,0,1,.22.165l.582,2.225.583-2.225a.238.238,0,0,1,.22-.165h.509a.213.213,0,0,1,.2.172l.544,3.395a.145.145,0,0,1-.149.172h-.348a.213.213,0,0,1-.2-.172l-.367-2.289-.6,2.3a.236.236,0,0,1-.157.156.166.166,0,0,1-.057.01h-.353a.161.161,0,0,1-.057-.01.236.236,0,0,1-.157-.156l-.6-2.3-.367,2.289a.213.213,0,0,1-.2.172h-.348a.145.145,0,0,1-.149-.172Zm15.325-1.615h-.68l.34-1.193.34,1.193Zm-.914-1.638-.918,3.221a.155.155,0,0,0,.162.2h.261a.3.3,0,0,0,.278-.2l.251-.882h1.08l.251.882a.3.3,0,0,0,.278.2h.261a.155.155,0,0,0,.162-.2l-.918-3.221c-.124-.436-1.027-.426-1.149,0Zm-2.566-.314h.153a1.526,1.526,0,0,1,.31.038,1.227,1.227,0,0,1,.346.138,1.078,1.078,0,0,1,.306.274,1.343,1.343,0,0,1,.216.439,2.212,2.212,0,0,1,.081.63v.7a2.164,2.164,0,0,1-.082.623,1.349,1.349,0,0,1-.215.438,1.107,1.107,0,0,1-.306.276,1.222,1.222,0,0,1-.347.142,1.444,1.444,0,0,1-.342.04h-.1a1.441,1.441,0,0,1-.342-.04,1.22,1.22,0,0,1-.347-.142,1.107,1.107,0,0,1-.306-.276,1.354,1.354,0,0,1-.216-.438,2.164,2.164,0,0,1-.081-.623v-.7a2.206,2.206,0,0,1,.081-.63,1.343,1.343,0,0,1,.216-.439,1.081,1.081,0,0,1,.306-.274,1.224,1.224,0,0,1,.347-.138,1.526,1.526,0,0,1,.309-.038Zm.015,3.039h.1a.548.548,0,0,0,.3-.061.516.516,0,0,0,.2-.255,1.362,1.362,0,0,0,.078-.5v-.7a1.586,1.586,0,0,0-.045-.409.485.485,0,0,0-.5-.409h-.142a.485.485,0,0,0-.5.409,1.586,1.586,0,0,0-.045.409v.7a1.366,1.366,0,0,0,.078.5.515.515,0,0,0,.2.255.53.53,0,0,0,.285.061Zm-3.014.7h1.322a.176.176,0,0,0,.176-.176v-.346a.176.176,0,0,0-.176-.176h-1.142a.192.192,0,0,1-.192-.191V264.8a.176.176,0,0,0-.176-.176h-.346a.176.176,0,0,0-.176.176v2.854a.711.711,0,0,0,.709.709Zm10.115,0a.344.344,0,0,1-.154-.033h0a.261.261,0,0,1-.117-.116l-1.2-2.263v2.235a.177.177,0,0,1-.177.177h-.348a.177.177,0,0,1-.177-.177V264.8a.177.177,0,0,1,.177-.177h.367a.387.387,0,0,1,.205.043h0a.275.275,0,0,1,.063.056h0a.407.407,0,0,1,.045.066v0l1.188,2.24V264.8a.177.177,0,0,1,.177-.177h.348a.177.177,0,0,1,.177.177v3.386a.177.177,0,0,1-.177.177Zm-20.677-3.739h.153a1.526,1.526,0,0,1,.309.038,1.226,1.226,0,0,1,.347.138,1.078,1.078,0,0,1,.306.274,1.338,1.338,0,0,1,.216.439,2.2,2.2,0,0,1,.081.63v.7a2.163,2.163,0,0,1-.081.623,1.349,1.349,0,0,1-.215.438,1.108,1.108,0,0,1-.306.276,1.219,1.219,0,0,1-.347.142,1.444,1.444,0,0,1-.342.04h-.1a1.441,1.441,0,0,1-.342-.04,1.217,1.217,0,0,1-.347-.142,1.1,1.1,0,0,1-.306-.276,1.349,1.349,0,0,1-.216-.438,2.168,2.168,0,0,1-.081-.623v-.7a2.2,2.2,0,0,1,.081-.63,1.338,1.338,0,0,1,.216-.439,1.083,1.083,0,0,1,.306-.274,1.225,1.225,0,0,1,.347-.138,1.526,1.526,0,0,1,.309-.038Zm.016,3.039h.1a.546.546,0,0,0,.3-.061.515.515,0,0,0,.2-.255,1.362,1.362,0,0,0,.078-.5v-.7a1.594,1.594,0,0,0-.045-.409.485.485,0,0,0-.5-.409h-.142a.485.485,0,0,0-.5.409,1.586,1.586,0,0,0-.045.409v.7a1.366,1.366,0,0,0,.078.5.515.515,0,0,0,.2.255.53.53,0,0,0,.285.061ZM154,264.8v3.387a.176.176,0,0,0,.176.176h.346a.177.177,0,0,0,.176-.176v-1.41h1.3v1.41a.176.176,0,0,0,.176.176h.346a.176.176,0,0,0,.176-.176V264.8a.176.176,0,0,0-.176-.176h-.346a.177.177,0,0,0-.176.176v1.279h-1.3V264.8a.177.177,0,0,0-.176-.176h-.346a.176.176,0,0,0-.176.176Zm11.313-.176h1.322a.177.177,0,0,1,.176.176v.346a.177.177,0,0,1-.176.176h-1.142a.192.192,0,0,0-.191.191v.623h1.333a.176.176,0,0,1,.176.176v.346a.177.177,0,0,1-.176.176H165.3v.638a.192.192,0,0,0,.191.191h1.142a.177.177,0,0,1,.176.176v.346a.177.177,0,0,1-.176.176h-1.322a.711.711,0,0,1-.709-.709v-2.321a.711.711,0,0,1,.709-.709Z" transform="translate(0 -135.898)"/></g></g></svg>