<svg xmlns="http://www.w3.org/2000/svg" width="428.99" height="69.973" viewBox="0 0 428.99 69.973"><defs><style>.a{fill:#ef5713;}.a,.b,.c{fill-rule:evenodd;}.b{fill:#fff;}.c,.d{fill:#131845;}</style></defs><g transform="translate(-23.093 -25)"><path class="a" d="M58.08,25A34.987,34.987,0,1,1,23.093,59.987,34.987,34.987,0,0,1,58.08,25Z"/><path class="b" d="M55.241,62.844l1.419-3.331H52.914l2.327,3.331Zm-.611-6.835,2.031,3.5,1.494-3.5Zm0,0,2.073-4.24H52.194l2.436,4.24Zm-11.412-4.24,4.476,8.712,4.5-8.712Zm4.476,8.712L42.97,69.6h9.4l-2.245-4.384-2.431-4.733ZM50,56.009l2.24,4.874.67-1.37h0l1.715-3.5Zm2.24,4.874-2.12,4.333h4.105l-1.985-4.333Zm3,1.961-1.012,2.371H56.9l-1.656-2.371ZM52.377,69.6h3.858l-2.006-4.384L52.369,69.6Zm4.178,8.134L52.369,69.6,48.9,77.733ZM59.96,69.6h0l-.666-.955-2.4-3.428h6.126L59.96,69.6ZM48.324,45.111l6.369-8.305H43.517l4.807,8.305Zm7.332,0H48.324l3.869,6.659,3.463-6.659ZM43.217,51.769l5.107-6.659H39.8l3.421,6.659Zm0,0H29.978l6.45,8.852,6.789-8.852ZM42.97,69.6l-4.215,8.134H48.9L42.97,69.6Zm-13.426,0H42.97l-6.542-8.977L29.544,69.6ZM46.071,84.36h7.655L48.9,77.733,46.071,84.36ZM64.68,62.844l-1.419-3.331h3.746L64.68,62.844Zm.611-6.835-2.03,3.5-1.494-3.5Zm0,0-2.072-4.24h4.509l-2.437,4.24ZM76.7,51.769l-4.476,8.712-4.5-8.712Zm-4.476,8.712L76.951,69.6h-9.4L69.8,65.215l2.432-4.733Zm-2.311-4.473-2.24,4.874-.67-1.37h0l-1.716-3.5Zm-2.24,4.874L69.8,65.215h-4.1l1.985-4.333Zm-3,1.961,1.012,2.371H63.024l1.656-2.371ZM67.544,69.6H63.685l2.006-4.384L67.553,69.6Zm-4.179,8.134L67.553,69.6l3.472,8.134ZM59.96,56.009h1.807l-1.807-4.24h0l-1.807,4.24H59.96Zm0,9.206h0l.456-.791,2.843-4.912h-6.6l3.3,5.7h0Zm0,12.516v0L63.685,69.6H56.235l2.874,6.276.85,1.858h0ZM71.6,45.111l-6.369-8.305H76.4L71.6,45.111Zm-7.333,0H71.6l-3.869,6.659-3.464-6.659ZM76.7,51.769,71.6,45.111h8.528L76.7,51.769Zm0,0H89.943l-6.45,8.852L76.7,51.769Zm.247,17.83,4.214,8.134H71.025L76.951,69.6Zm13.426,0H76.951l6.542-8.977L90.377,69.6ZM73.85,84.36H66.194l4.831-6.627L73.85,84.36ZM59.96,36.806h5.268L59.96,29.938h0l-5.267,6.868H59.96Zm0,8.305h4.3l-4.3-8.305h0l-4.3,8.305h4.3Zm0,6.659h3.258l-1.965-4.017-1.292-2.641h0L56.7,51.769H59.96Zm0,32.59h0l.879-1.712,2.525-4.916h-6.81L59.96,84.36v0Zm0,8.555h0l6.234-8.554H53.726l6.234,8.554Z" transform="translate(-1.88 -1.439)"/><path class="c" d="M166.307,41.79h-7.526a4.382,4.382,0,0,0-4.369,4.369V87.973h7.526a4.382,4.382,0,0,0,4.369-4.369V41.79Zm12.572,0h25.5v7.717a4.193,4.193,0,0,1-4.182,4.178H186.53V59.61h14.853v7.717a4.194,4.194,0,0,1-4.182,4.179H186.53V83.731a4.255,4.255,0,0,1-4.244,4.241h-7.651V46.031a4.255,4.255,0,0,1,4.244-4.241Zm-32.794,0h-7.526a4.382,4.382,0,0,0-4.369,4.369V87.973h7.526a4.383,4.383,0,0,0,4.369-4.369V41.79Zm76.779,0h-7.651a4.255,4.255,0,0,0-4.245,4.241V87.973h22.163a4.193,4.193,0,0,0,4.182-4.179V76.077H222.864V41.79Z" transform="translate(-32.384 -4.894)"/><path class="d" d="M513.653,64.389v-.016l0,.016Z" transform="translate(-142.994 -11.477)"/><path class="d" d="M447.831,61.746h0c.006,0,.012,0,0,0Z" transform="translate(-123.807 -10.711)"/><path class="d" d="M363.653,61.744l0,0h0Z" transform="translate(-99.27 -10.71)"/><path class="d" d="M363.657,61.746h0s.008,0,0,0Z" transform="translate(-99.272 -10.711)"/><path class="c" d="M345.355,57.786h12.4a1.656,1.656,0,0,1,1.65,1.651v3.248a1.656,1.656,0,0,1-1.65,1.651H347.047a1.8,1.8,0,0,0-1.795,1.794v5.845h12.5a1.655,1.655,0,0,1,1.65,1.65v3.249a1.655,1.655,0,0,1-1.65,1.65h-12.5v5.845a1.8,1.8,0,0,0,1.795,1.795h10.709a1.655,1.655,0,0,1,1.65,1.65v3.248a1.655,1.655,0,0,1-1.65,1.65h-12.4A6.671,6.671,0,0,1,338.7,86.06V64.437a6.671,6.671,0,0,1,6.651-6.651Z" transform="translate(-91.999 -9.557)"/><path class="c" d="M567.889,57.786h12.4a1.656,1.656,0,0,1,1.65,1.651v3.248a1.656,1.656,0,0,1-1.65,1.651h-10.71a1.8,1.8,0,0,0-1.794,1.794v5.845h12.5a1.655,1.655,0,0,1,1.65,1.65v3.249a1.655,1.655,0,0,1-1.65,1.65h-12.5v5.845a1.8,1.8,0,0,0,1.794,1.795h10.71a1.655,1.655,0,0,1,1.65,1.65v3.248a1.655,1.655,0,0,1-1.65,1.65h-12.4a6.671,6.671,0,0,1-6.651-6.651V64.437a6.671,6.671,0,0,1,6.651-6.651Z" transform="translate(-156.866 -9.557)"/><path class="c" d="M490.287,59.437V91.062a1.655,1.655,0,0,0,1.65,1.65h3.248a1.655,1.655,0,0,0,1.65-1.65V59.437a1.655,1.655,0,0,0-1.65-1.651h-3.248a1.655,1.655,0,0,0-1.65,1.651Z" transform="translate(-136.184 -9.557)"/><path class="c" d="M451.494,59.437V91.061a1.655,1.655,0,0,0,1.65,1.651h3.249a1.655,1.655,0,0,0,1.65-1.651V78.8h3.4l7.447,12.68a3,3,0,0,0,2.371,1.227h3.575c1.316,0,1.642-1.294,1.017-2.358L468.5,77.832a10.49,10.49,0,0,0,6.07-9.485v-.1a10.488,10.488,0,0,0-10.458-10.458h-10.97a1.656,1.656,0,0,0-1.65,1.651Zm6.549,12.9v-8.08h5.98a4.04,4.04,0,0,1,0,8.08Z" transform="translate(-124.876 -9.557)"/><path class="c" d="M410.307,59.437V79.993c0,.043,0,.086.006.129v.37a12.256,12.256,0,0,0,12.22,12.22h0a12.257,12.257,0,0,0,12.22-12.22V59.437a1.656,1.656,0,0,0-1.65-1.651h-3.249a1.656,1.656,0,0,0-1.65,1.651V79.993c0,.043,0,.086,0,.129v.393a5.693,5.693,0,0,1-5.677,5.677h0a5.693,5.693,0,0,1-5.677-5.677V59.437a1.656,1.656,0,0,0-1.651-1.651h-3.248a1.656,1.656,0,0,0-1.651,1.651Z" transform="translate(-112.871 -9.557)"/><path class="c" d="M528.063,57.786H506.576a1.656,1.656,0,0,0-1.65,1.651v3.248a1.656,1.656,0,0,0,1.65,1.651h7.469V91.061a1.655,1.655,0,0,0,1.651,1.651h3.248a1.656,1.656,0,0,0,1.651-1.651V64.335h7.468a1.656,1.656,0,0,0,1.65-1.651V59.437a1.656,1.656,0,0,0-1.65-1.651Z" transform="translate(-140.451 -9.557)"/><path class="c" d="M545.378,59.437V91.062a1.655,1.655,0,0,0,1.651,1.65h3.248a1.655,1.655,0,0,0,1.651-1.65V59.437a1.655,1.655,0,0,0-1.651-1.651h-3.248a1.655,1.655,0,0,0-1.651,1.651Z" transform="translate(-152.243 -9.557)"/><path class="c" d="M393.593,57.787H387.03c-.034,0-.068,0-.1,0l-.329,0a14,14,0,0,0-3.187.353,11.391,11.391,0,0,0-3.238,1.286,10.094,10.094,0,0,0-2.861,2.557,12.545,12.545,0,0,0-2.014,4.105,20.608,20.608,0,0,0-.76,5.884v6.553a20.2,20.2,0,0,0,.761,5.818,12.6,12.6,0,0,0,2.012,4.089,10.362,10.362,0,0,0,2.857,2.577,11.4,11.4,0,0,0,3.238,1.325,13.487,13.487,0,0,0,3.192.376l.327,0c.034,0,.069,0,.1,0h6.564a1.655,1.655,0,0,0,1.65-1.65V87.813a1.655,1.655,0,0,0-1.65-1.65H387.03l-.083,0-.294,0a5.133,5.133,0,0,1-2.8-.57,4.817,4.817,0,0,1-1.868-2.378,12.749,12.749,0,0,1-.732-4.694V71.973a14.8,14.8,0,0,1,.422-3.82c.752-2.749,2.374-3.835,4.979-3.82h6.938a1.655,1.655,0,0,0,1.65-1.65V59.437a1.655,1.655,0,0,0-1.65-1.65Z" transform="translate(-102.445 -9.557)"/><path class="c" d="M319.834,57.786h-8.661c-4.352,0-9.126,1.314-11.058,5.885-1.713,4.053-.908,9.212,2.7,11.757a13.049,13.049,0,0,0,3.62,1.761c1.377.434,2.77.813,4.178,1.119a20.71,20.71,0,0,1,2.138.56,5.536,5.536,0,0,1,1.529.756,3.79,3.79,0,0,1-.1,5.685,6.493,6.493,0,0,1-3.623.736h-9.5a1.64,1.64,0,0,0-1.587,1.68v3.307a1.64,1.64,0,0,0,1.587,1.68h9.5A20.23,20.23,0,0,0,315,92.17a11.681,11.681,0,0,0,4.043-1.756,8.792,8.792,0,0,0,2.783-3.224,10.9,10.9,0,0,0,1.046-5.012,10.475,10.475,0,0,0-.971-4.826,8.29,8.29,0,0,0-2.539-2.941,12.531,12.531,0,0,0-3.616-1.734c-1.639-.5-6.5-1.369-7.745-2.248-1.614-1.139-1.461-4.2.1-5.273a5.851,5.851,0,0,1,3.157-.7h8.575a1.64,1.64,0,0,0,1.587-1.68V59.467a1.641,1.641,0,0,0-1.587-1.681Z" transform="translate(-80.499 -9.557)"/><path class="c" d="M615.827,57.786h-8.662c-4.352,0-9.125,1.314-11.057,5.885-1.713,4.053-.908,9.212,2.7,11.757a13.045,13.045,0,0,0,3.62,1.761c1.377.434,2.77.813,4.179,1.119a20.7,20.7,0,0,1,2.138.56,5.528,5.528,0,0,1,1.529.756,3.79,3.79,0,0,1-.1,5.685,6.5,6.5,0,0,1-3.624.736h-9.5a1.64,1.64,0,0,0-1.587,1.68v3.307a1.64,1.64,0,0,0,1.587,1.68h9.5a20.223,20.223,0,0,0,4.444-.541,11.67,11.67,0,0,0,4.043-1.756,8.786,8.786,0,0,0,2.783-3.224,10.9,10.9,0,0,0,1.046-5.012,10.477,10.477,0,0,0-.971-4.826,8.282,8.282,0,0,0-2.539-2.941,12.539,12.539,0,0,0-3.616-1.734c-1.639-.5-6.5-1.369-7.745-2.248-1.615-1.139-1.462-4.2.1-5.273a5.852,5.852,0,0,1,3.158-.7h8.575a1.64,1.64,0,0,0,1.587-1.68V59.467a1.641,1.641,0,0,0-1.587-1.681Z" transform="translate(-166.779 -9.557)"/></g></svg>