<svg xmlns="http://www.w3.org/2000/svg" width="553.977" height="261.007" viewBox="0 0 553.977 261.007"><defs><style>.a{fill:#ff6e6e;}.b{fill:#ff935e;}.c{fill:#ffd073;}.d{fill:#ffff6b;}.e{fill:#e2ff64;}.f{fill:#97ff64;}.g{fill:#f70000;}.h{fill:#fa0;}.i{fill:#f7f700;}.j{fill:#98e300;}.k{fill:#f50;}.l{fill:#4ce300;}.m{fill:#fff;}.n{fill:#e6e6e6;}.o{fill:#212121;}</style></defs><g transform="translate(-289.417 -463.567)"><g transform="translate(362.824 499.313)"><path class="a" d="M1886.813,1043.949h-3.966a197.374,197.374,0,0,0-26.548-99.163l3.411-1.967.064-.039A201.427,201.427,0,0,1,1886.813,1043.949Z" transform="translate(-1482.291 -841.688)"/><path class="b" d="M1678.162,757.5l-.064.039-3.411,1.967a199.258,199.258,0,0,0-72.584-72.592l1.967-3.411.032-.056A202.849,202.849,0,0,1,1678.162,757.5Z" transform="translate(-1300.68 -656.406)"/><path class="c" d="M1355.989,615.79l-.032.056-1.967,3.411a197.389,197.389,0,0,0-99.163-26.54v-3.966A201.4,201.4,0,0,1,1355.989,615.79Z" transform="translate(-1052.566 -588.751)"/><path class="d" d="M1001.711,588.751v3.966a197.368,197.368,0,0,0-99.163,26.54l-1.967-3.411-.032-.056A201.4,201.4,0,0,1,1001.711,588.751Z" transform="translate(-799.45 -588.751)"/><path class="e" d="M715.279,683.5l1.967,3.411A199.223,199.223,0,0,0,644.654,759.5l-3.411-1.967-.055-.032a202.928,202.928,0,0,1,74.059-74.059Z" transform="translate(-614.148 -656.406)"/><path class="f" d="M573.588,942.838,577,944.8a197.367,197.367,0,0,0-26.54,99.163h-3.966a201.4,201.4,0,0,1,27.04-101.162Z" transform="translate(-546.493 -841.707)"/></g><path class="g" d="M1675.863,979.554h0q1.077,1.862,2.1,3.761c.068.128.134.257.2.385q.872,1.633,1.7,3.293.179.357.356.716.848,1.72,1.651,3.466c.04.088.083.176.124.264q.888,1.948,1.718,3.928c.052.124.1.25.153.374q.712,1.714,1.378,3.451.165.428.326.857.628,1.668,1.215,3.355c.067.192.137.382.2.574q.686,2,1.313,4.032c.042.137.081.276.123.413q.537,1.763,1.028,3.546c.094.34.185.681.277,1.022q.43,1.608.822,3.23c.07.29.144.577.212.867q.48,2.044.9,4.109c.028.139.052.279.08.417q.364,1.821.679,3.66c.067.391.131.784.195,1.177q.255,1.56.474,3.132c.052.37.106.738.156,1.109.182,1.386.349,2.776.49,4.175.011.112.019.226.03.338q.189,1.919.322,3.852c.03.424.055.85.081,1.276q.1,1.548.156,3.105c.017.421.036.841.048,1.262.043,1.417.071,2.837.071,4.264h59.488a197.374,197.374,0,0,0-26.543-99.161Z" transform="translate(-990.554 -347.396)"/><path class="h" d="M1259.085,662.192c.422.013.842.031,1.262.048q1.557.061,3.105.156c.426.026.851.051,1.276.081q1.933.137,3.852.323c.113.011.226.019.338.03,1.4.141,2.789.308,4.175.49.371.049.739.1,1.109.155q1.571.22,3.132.474c.393.064.785.128,1.177.2q1.838.316,3.659.678c.139.028.279.052.418.08q2.066.42,4.109.9c.29.068.578.142.867.212q1.623.392,3.23.822c.341.091.682.183,1.023.277q1.782.492,3.546,1.028c.137.042.276.081.413.123q2.03.626,4.032,1.314c.192.066.382.135.574.2q1.688.586,3.355,1.215.43.162.857.326,1.736.667,3.451,1.378c.124.052.25.1.374.153q1.98.83,3.928,1.718c.089.041.176.083.264.124q1.747.8,3.467,1.651l.716.356q1.658.829,3.292,1.7c.128.068.257.134.385.2q1.9,1.021,3.761,2.1h0l29.748-51.526a197.373,197.373,0,0,0-99.161-26.543V662.12C1256.248,662.12,1257.668,662.149,1259.085,662.192Z" transform="translate(-689.738 -99.356)"/><path class="i" d="M941.061,678.6c.127-.068.254-.134.381-.2q1.635-.873,3.3-1.7.357-.178.714-.355,1.72-.847,3.465-1.65c.089-.041.178-.084.268-.125q1.948-.888,3.927-1.717c.125-.052.252-.1.378-.154q1.712-.712,3.449-1.378.427-.164.855-.325,1.669-.628,3.358-1.216c.191-.066.38-.136.571-.2q2-.686,4.034-1.314c.136-.042.274-.081.411-.122q1.765-.538,3.549-1.029.51-.14,1.021-.276,1.608-.43,3.232-.823c.289-.07.576-.143.866-.211q2.043-.48,4.107-.9c.142-.029.284-.053.426-.082q1.817-.363,3.652-.677c.392-.067.784-.131,1.177-.2q1.561-.254,3.132-.474c.37-.052.738-.107,1.109-.155,1.386-.182,2.777-.349,4.175-.49.112-.011.226-.019.338-.03q1.918-.189,3.852-.323c.425-.03.85-.055,1.276-.081q1.548-.1,3.105-.156c.421-.016.841-.035,1.262-.048,1.417-.043,2.837-.071,4.264-.071V602.632a197.373,197.373,0,0,0-99.161,26.543L937.3,680.7Q939.162,679.623,941.061,678.6Z" transform="translate(-441.629 -99.356)"/><path class="j" d="M704.858,797.926c.7-1.214,1.427-2.414,2.165-3.6q.194-.313.391-.626,1.057-1.685,2.158-3.339c.048-.071.094-.144.141-.215q1.222-1.821,2.5-3.6c.069-.1.14-.19.209-.286q1.138-1.579,2.321-3.123c.148-.193.295-.386.443-.578q2.615-3.385,5.43-6.6c.123-.14.248-.279.372-.419q1.243-1.408,2.523-2.782c.153-.164.306-.33.459-.494q2.923-3.107,6.031-6.031c.163-.153.327-.3.491-.457q1.376-1.281,2.786-2.527c.139-.123.276-.247.416-.369q3.216-2.816,6.605-5.432.287-.221.575-.441,1.548-1.183,3.127-2.324c.095-.068.188-.138.283-.206q1.781-1.277,3.6-2.5l.211-.139q1.654-1.105,3.344-2.161l.623-.389q1.787-1.108,3.606-2.166l-29.748-51.526a199.259,199.259,0,0,0-72.591,72.591l51.525,29.748Z" transform="translate(-260.001 -165.768)"/><path class="k" d="M1497.91,747.113q1.822,1.054,3.6,2.166l.626.391q1.685,1.057,3.34,2.158l.215.141q1.822,1.222,3.6,2.5c.094.068.187.138.282.206q1.581,1.139,3.127,2.324c.193.147.386.295.578.443q3.386,2.616,6.6,5.431c.139.122.277.247.416.37q1.41,1.244,2.784,2.525c.164.153.33.305.493.459q3.106,2.922,6.03,6.03c.154.164.306.329.459.494q1.281,1.375,2.525,2.784c.123.139.247.277.369.416q2.815,3.216,5.431,6.6.222.288.443.578,1.182,1.547,2.324,3.127c.068.095.138.187.206.282q1.277,1.781,2.5,3.6c.048.071.094.144.141.215q1.1,1.652,2.159,3.339.2.313.391.626,1.107,1.786,2.166,3.6h0l51.526-29.748a199.261,199.261,0,0,0-72.591-72.591l-29.748,51.526Z" transform="translate(-863.414 -165.768)"/><path class="l" d="M619.936,1044.7c.013-.422.031-.842.048-1.262q.061-1.557.156-3.105c.026-.425.051-.851.081-1.276q.136-1.933.322-3.852c.011-.112.019-.226.03-.338.141-1.4.308-2.789.49-4.175.049-.371.1-.739.155-1.109q.22-1.571.474-3.132c.064-.393.128-.785.2-1.177q.316-1.834.677-3.652c.028-.142.053-.285.082-.426q.419-2.066.9-4.107c.068-.29.142-.578.212-.868q.393-1.622.822-3.23.137-.512.277-1.022.492-1.783,1.028-3.546c.042-.138.081-.276.123-.413q.626-2.03,1.313-4.032c.066-.192.136-.382.2-.574q.586-1.688,1.215-3.355.161-.43.326-.857.666-1.734,1.376-3.446c.052-.126.1-.254.156-.38q.829-1.979,1.716-3.925c.041-.091.085-.18.126-.271q.8-1.744,1.648-3.461.177-.359.356-.716.829-1.659,1.7-3.293c.068-.128.134-.257.2-.385q1.021-1.9,2.1-3.761h0l-51.525-29.748a197.374,197.374,0,0,0-26.543,99.161h59.489C619.865,1047.54,619.893,1046.12,619.936,1044.7Z" transform="translate(-193.588 -347.396)"/><path class="m" d="M1046.252,945.508c-.013-.422-.031-.842-.048-1.262q-.061-1.557-.156-3.105c-.026-.426-.051-.852-.081-1.276q-.137-1.933-.323-3.852c-.011-.112-.019-.226-.03-.338-.141-1.4-.308-2.789-.49-4.175-.049-.371-.1-.739-.155-1.109q-.22-1.571-.474-3.132c-.064-.393-.128-.785-.195-1.177q-.317-1.838-.678-3.66c-.028-.139-.052-.279-.08-.417q-.42-2.066-.9-4.109c-.068-.29-.142-.578-.212-.867q-.392-1.622-.822-3.23c-.091-.341-.183-.682-.277-1.023q-.492-1.783-1.028-3.546c-.042-.138-.08-.276-.123-.414q-.626-2.03-1.314-4.032c-.066-.192-.135-.382-.2-.574q-.586-1.687-1.215-3.355-.161-.429-.326-.857-.667-1.736-1.378-3.451c-.052-.124-.1-.25-.153-.374q-.829-1.98-1.718-3.928c-.041-.089-.083-.176-.124-.264q-.8-1.747-1.651-3.466-.177-.359-.356-.716-.829-1.659-1.7-3.293c-.068-.128-.134-.257-.2-.385q-1.021-1.9-2.1-3.761h0q-1.054-1.821-2.166-3.6-.195-.314-.391-.626-1.057-1.685-2.159-3.339c-.047-.071-.094-.144-.141-.215q-1.221-1.822-2.5-3.6c-.068-.095-.138-.188-.206-.282q-1.14-1.581-2.324-3.127-.221-.289-.443-.578-2.616-3.385-5.431-6.6c-.122-.14-.247-.277-.37-.416q-1.243-1.409-2.525-2.784c-.153-.165-.305-.33-.459-.494q-2.922-3.106-6.03-6.03c-.164-.154-.329-.306-.493-.459q-1.375-1.281-2.784-2.525c-.139-.123-.277-.247-.416-.37q-3.216-2.815-6.6-5.431-.288-.223-.578-.443-1.547-1.182-3.127-2.323c-.094-.068-.187-.138-.282-.206q-1.781-1.277-3.6-2.5l-.215-.141q-1.653-1.1-3.34-2.159l-.625-.391q-1.786-1.107-3.6-2.166h0q-1.862-1.077-3.761-2.1c-.128-.068-.257-.135-.385-.2q-1.633-.872-3.292-1.7l-.716-.356q-1.721-.848-3.467-1.651l-.264-.124q-1.948-.888-3.928-1.718c-.124-.052-.25-.1-.374-.153q-1.714-.712-3.451-1.378l-.857-.326q-1.668-.628-3.355-1.215c-.192-.067-.382-.137-.574-.2q-2-.686-4.033-1.314c-.137-.042-.276-.081-.413-.123q-1.763-.538-3.546-1.028c-.34-.094-.682-.185-1.023-.277q-1.607-.43-3.23-.822c-.289-.07-.577-.144-.867-.212q-2.044-.481-4.109-.9c-.139-.028-.279-.052-.417-.08q-1.821-.364-3.66-.678c-.391-.067-.784-.131-1.177-.2q-1.56-.254-3.132-.474c-.369-.052-.738-.107-1.109-.155-1.386-.182-2.776-.349-4.175-.49-.112-.011-.226-.019-.338-.03q-1.918-.189-3.852-.323c-.424-.03-.85-.055-1.276-.081q-1.548-.1-3.105-.156c-.421-.016-.841-.035-1.262-.048-1.417-.043-2.837-.071-4.264-.071s-2.847.029-4.264.071c-.421.013-.841.031-1.262.048q-1.557.061-3.105.156c-.425.026-.851.051-1.276.081q-1.933.137-3.852.323c-.113.011-.226.019-.338.03-1.4.141-2.789.308-4.175.49-.37.049-.739.1-1.108.155q-1.572.22-3.132.474c-.393.064-.785.128-1.177.2q-1.834.316-3.652.677c-.142.028-.284.053-.426.082q-2.066.42-4.108.9c-.29.068-.577.141-.866.211q-1.624.393-3.232.823-.512.137-1.021.276-1.783.493-3.549,1.029c-.136.042-.274.08-.411.122q-2.03.626-4.034,1.314c-.191.065-.381.135-.571.2q-1.689.587-3.358,1.216-.428.162-.855.325-1.736.667-3.449,1.378c-.126.052-.253.1-.378.154q-1.979.83-3.927,1.717c-.09.041-.178.084-.268.125q-1.746.8-3.465,1.65-.358.176-.714.355-1.66.83-3.3,1.7c-.127.068-.255.133-.381.2q-1.9,1.021-3.762,2.1-1.823,1.055-3.606,2.166l-.623.389q-1.688,1.058-3.344,2.161l-.211.139q-1.822,1.222-3.6,2.5c-.095.068-.188.138-.283.206q-1.581,1.14-3.127,2.324-.288.22-.575.441-3.386,2.617-6.605,5.432c-.14.122-.277.246-.416.369q-1.41,1.245-2.786,2.527c-.164.153-.328.3-.491.457q-3.107,2.922-6.031,6.031c-.154.164-.306.329-.459.494q-1.28,1.374-2.523,2.782c-.124.14-.249.279-.372.419q-2.815,3.215-5.43,6.6c-.148.192-.3.385-.443.578q-1.181,1.545-2.321,3.123c-.069.1-.14.19-.209.286q-1.277,1.78-2.5,3.6c-.048.071-.094.144-.141.215q-1.1,1.652-2.158,3.339-.2.312-.391.626-1.107,1.786-2.165,3.6h0q-1.077,1.861-2.1,3.761c-.069.128-.135.257-.2.385q-.872,1.633-1.7,3.293-.178.358-.356.716-.846,1.718-1.648,3.461c-.041.091-.085.18-.126.271q-.888,1.946-1.716,3.925c-.053.126-.1.254-.156.38q-.711,1.712-1.376,3.446-.165.428-.326.857-.628,1.667-1.215,3.355c-.067.192-.136.382-.2.574q-.686,2-1.313,4.032c-.042.137-.081.276-.123.414q-.538,1.762-1.028,3.546-.141.51-.277,1.023-.43,1.607-.822,3.23c-.07.29-.144.577-.212.867q-.481,2.043-.9,4.107c-.029.141-.053.284-.082.426q-.363,1.817-.677,3.652c-.067.392-.131.784-.2,1.177q-.254,1.56-.474,3.132c-.051.37-.106.738-.155,1.109-.182,1.386-.349,2.777-.49,4.175-.011.112-.019.226-.03.338q-.189,1.918-.322,3.852c-.03.424-.055.85-.081,1.276q-.095,1.548-.156,3.105c-.017.421-.035.841-.048,1.262-.043,1.417-.071,2.837-.071,4.264h19.829a118.977,118.977,0,1,1,237.954,0h19.83C1046.323,948.345,1046.295,946.924,1046.252,945.508Z" transform="translate(-342.433 -248.2)"/><path class="n" d="M1060.182,939.89a118.977,118.977,0,0,0-222.028,59.5h237.954A118.425,118.425,0,0,0,1060.182,939.89Z" transform="translate(-392.048 -297.816)"/><path class="o" d="M1300.911,951.646l-105.683,67.923a27.735,27.735,0,1,0,17.311,20.274l88.42-88.138A.038.038,0,0,0,1300.911,951.646Z" transform="translate(-620.277 -348.706)"/><g transform="translate(289.417 640.714)"><path class="o" d="M289.417,1105.413V1085.7h4.012v16.361h9.977v3.348Z" transform="translate(-289.417 -1085.203)"/><path class="o" d="M345.574,1094.345a12.631,12.631,0,0,1,.908-5.1,9.335,9.335,0,0,1,1.85-2.725,7.744,7.744,0,0,1,2.568-1.789,10.91,10.91,0,0,1,4.284-.786,9.331,9.331,0,0,1,7.028,2.724q2.636,2.725,2.636,7.578a10.409,10.409,0,0,1-2.616,7.53,10.448,10.448,0,0,1-14.043.013A10.26,10.26,0,0,1,345.574,1094.345Zm4.134-.136a7.444,7.444,0,0,0,1.559,5.117,5.359,5.359,0,0,0,7.9.014,7.6,7.6,0,0,0,1.539-5.185,7.475,7.475,0,0,0-1.5-5.1,5.55,5.55,0,0,0-7.978.02A7.507,7.507,0,0,0,349.708,1094.209Z" transform="translate(-329.539 -1083.948)"/><path class="o" d="M422.048,1105.006l-4.745-19.872h4.108l3,13.651,3.633-13.651h4.771l3.484,13.881,3.051-13.881h4.039l-4.826,19.872H434.3l-3.958-14.857-3.945,14.857Z" transform="translate(-380.786 -1084.795)"/></g><g transform="translate(510.762 463.567)"><path class="o" d="M1064.584,483.439V463.567h6l3.605,13.555,3.566-13.555h6.018v19.872h-3.728V467.8l-3.945,15.643h-3.863l-3.931-15.643v15.643Z" transform="translate(-1064.584 -463.567)"/><path class="o" d="M1145.761,483.439V463.567H1160.5v3.362h-10.722v4.406h9.977v3.348h-9.977v5.408h11.1v3.348Z" transform="translate(-1122.581 -463.567)"/><path class="o" d="M1210.559,463.567h7.333a14.336,14.336,0,0,1,3.782.379,6.65,6.65,0,0,1,3,1.83,8.69,8.69,0,0,1,1.9,3.22,14.67,14.67,0,0,1,.651,4.7,13.062,13.062,0,0,1-.61,4.229,8.765,8.765,0,0,1-2.129,3.511,7.049,7.049,0,0,1-2.819,1.586,12.125,12.125,0,0,1-3.551.42h-7.551Zm4.012,3.362v13.162h3a10.917,10.917,0,0,0,2.426-.19,3.7,3.7,0,0,0,1.62-.827,4.206,4.206,0,0,0,1.051-1.918,12.953,12.953,0,0,0,.406-3.64,11.865,11.865,0,0,0-.406-3.538,4.543,4.543,0,0,0-1.139-1.925,3.817,3.817,0,0,0-1.857-.935,18.191,18.191,0,0,0-3.294-.19Z" transform="translate(-1168.877 -463.567)"/><path class="o" d="M1280.388,483.439V463.567h4.012v19.872Z" transform="translate(-1218.766 -463.567)"/><path class="o" d="M1307.732,463.567h4.012V474.33a22.24,22.24,0,0,0,.149,3.321,3.214,3.214,0,0,0,1.227,1.959,4.268,4.268,0,0,0,2.65.739,4.044,4.044,0,0,0,2.576-.7,2.759,2.759,0,0,0,1.043-1.715,22.318,22.318,0,0,0,.177-3.375V463.567h4.012V474a26.827,26.827,0,0,1-.325,5.056,5.591,5.591,0,0,1-1.2,2.494,6.059,6.059,0,0,1-2.338,1.62,10.183,10.183,0,0,1-3.822.6,11.014,11.014,0,0,1-4.318-.657,6.182,6.182,0,0,1-2.325-1.708,5.476,5.476,0,0,1-1.125-2.2,24.088,24.088,0,0,1-.394-5.043Z" transform="translate(-1238.302 -463.567)"/><path class="o" d="M1377.849,483.439V463.567h6l3.605,13.555,3.566-13.555h6.018v19.872h-3.728V467.8l-3.945,15.643h-3.863l-3.931-15.643v15.643Z" transform="translate(-1288.398 -463.567)"/></g><g transform="translate(778.152 640.714)"><path class="o" d="M2001,1105.006v-19.872h4.013v7.821h7.862v-7.821h4.012v19.872h-4.012v-8.689h-7.862v8.689Z" transform="translate(-2001.003 -1084.795)"/><path class="o" d="M2070.738,1105.006v-19.872h4.012v19.872Z" transform="translate(-2050.825 -1084.795)"/><path class="o" d="M2105.693,1096.853V1093.5h8.649v7.917a10.9,10.9,0,0,1-3.654,2.149,13.3,13.3,0,0,1-4.846.928,10.867,10.867,0,0,1-5.435-1.308,8.311,8.311,0,0,1-3.484-3.741,12.085,12.085,0,0,1-1.166-5.294,11.437,11.437,0,0,1,1.3-5.517,8.766,8.766,0,0,1,3.809-3.7,10.283,10.283,0,0,1,4.758-.989,9.5,9.5,0,0,1,5.782,1.552,7.019,7.019,0,0,1,2.677,4.291l-3.985.746a4.208,4.208,0,0,0-1.579-2.311,4.776,4.776,0,0,0-2.894-.847,5.437,5.437,0,0,0-4.182,1.667,7.022,7.022,0,0,0-1.553,4.948,7.782,7.782,0,0,0,1.573,5.307,5.252,5.252,0,0,0,4.121,1.769,6.9,6.9,0,0,0,2.529-.495,8.655,8.655,0,0,0,2.176-1.2v-2.521Z" transform="translate(-2068.701 -1083.948)"/><path class="o" d="M2173.849,1105.006v-19.872h4.012v7.821h7.862v-7.821h4.012v19.872h-4.012v-8.689h-7.862v8.689Z" transform="translate(-2124.494 -1084.795)"/></g></g></svg>