<svg xmlns="http://www.w3.org/2000/svg" width="122.52" height="123.955" viewBox="0 0 122.52 123.955">
    <defs>
        <style>
            .cls-1{fill:#fd8e4e}.cls-2{fill:#ffc9b2}.cls-4{opacity:.2}.cls-5{fill:#ff5d00}.cls-6{fill:#4eb7fd}.cls-7{fill:#b2e8ff}
        </style>
    </defs>
    <g id="Group_15321" data-name="Group 15321" transform="translate(-611.049 -324.277)">
        <g id="Group_13563" data-name="Group 13563" transform="translate(620.049 333.277)">
            <g id="Group_13481" data-name="Group 13481" transform="translate(69.897 93.751)">
                <circle id="Ellipse_228" data-name="Ellipse 228" class="cls-1" cx="4.16" cy="4.16" r="4.16"/>
                <circle id="Ellipse_227" data-name="Ellipse 227" class="cls-2" cx="2.219" cy="2.219" r="2.219" transform="translate(1.664 2.219)"/>
            </g>
            <g id="Group_13502" data-name="Group 13502" transform="translate(91.532 31.62)">
                <circle id="Ellipse_228-2" data-name="Ellipse 228" class="cls-1" cx="4.16" cy="4.16" r="4.16"/>
                <circle id="Ellipse_227-2" data-name="Ellipse 227" class="cls-2" cx="2.219" cy="2.219" r="2.219" transform="translate(1.664 2.219)"/>
            </g>
            <g id="Group_13503" data-name="Group 13503" transform="translate(71.006 48.262)" style="opacity:.3">
                <circle id="Ellipse_228-3" data-name="Ellipse 228" class="cls-1" cx="3.051" cy="3.051" r="3.051"/>
                <circle id="Ellipse_233" data-name="Ellipse 233" class="cls-1" cx="3.051" cy="3.051" r="3.051"/>
                <circle id="Ellipse_227-3" data-name="Ellipse 227" class="cls-2" cx="1.664" cy="1.664" r="1.664" transform="translate(1.109 1.664)"/>
            </g>
            <g id="Group_13483" data-name="Group 13483" class="cls-4" transform="rotate(-2 2199.736 -1456.535)">
                <circle id="Ellipse_228-4" data-name="Ellipse 228" class="cls-5" cx="2.774" cy="2.774" r="2.774"/>
                <circle id="Ellipse_227-4" data-name="Ellipse 227" class="cls-2" cx="1.664" cy="1.664" r="1.664" transform="translate(1.109 1.109)"/>
            </g>
            <g id="Group_13484" data-name="Group 13484" transform="translate(89.312 76.554)">
                <circle id="Ellipse_228-5" data-name="Ellipse 228" class="cls-5" cx="2.219" cy="2.219" r="2.219"/>
                <circle id="Ellipse_227-5" data-name="Ellipse 227" class="cls-2" cx="1.109" cy="1.109" r="1.109" transform="translate(1.109 1.109)"/>
            </g>
            <g id="Group_13485" data-name="Group 13485" class="cls-4" transform="translate(8.321 53.168)">
                <circle id="Ellipse_228-6" data-name="Ellipse 228" class="cls-5" cx="1.942" cy="1.942" r="1.942"/>
                <circle id="Ellipse_227-6" data-name="Ellipse 227" class="cls-2" cx="1.109" cy="1.109" r="1.109" transform="translate(.555 .555)"/>
            </g>
            <g id="Group_13495" data-name="Group 13495" transform="translate(81.824)">
                <circle id="Ellipse_228-7" data-name="Ellipse 228" class="cls-5" cx="1.942" cy="1.942" r="1.942"/>
                <circle id="Ellipse_227-7" data-name="Ellipse 227" class="cls-2" cx="1.109" cy="1.109" r="1.109" transform="translate(.555 .555)"/>
            </g>
            <g id="Group_13496" data-name="Group 13496" transform="translate(0 95.97)">
                <circle id="Ellipse_228-8" data-name="Ellipse 228" class="cls-5" cx="1.942" cy="1.942" r="1.942"/>
                <circle id="Ellipse_227-8" data-name="Ellipse 227" class="cls-2" cx="1.109" cy="1.109" r="1.109" transform="translate(.555 .555)"/>
            </g>
            <g id="Group_13497" data-name="Group 13497" transform="translate(79.882 58.802)">
                <circle id="Ellipse_228-9" data-name="Ellipse 228" class="cls-5" cx="1.942" cy="1.942" r="1.942"/>
                <circle id="Ellipse_227-9" data-name="Ellipse 227" class="cls-2" cx="1.109" cy="1.109" r="1.109" transform="translate(.555 .555)"/>
            </g>
            <g id="Group_13498" data-name="Group 13498" transform="translate(73.78 76.554)">
                <circle id="Ellipse_228-10" data-name="Ellipse 228" class="cls-5" cx="1.942" cy="1.942" r="1.942"/>
                <circle id="Ellipse_227-10" data-name="Ellipse 227" class="cls-2" cx="1.109" cy="1.109" r="1.109" transform="translate(.555 .555)"/>
            </g>
            <g id="Group_13501" data-name="Group 13501" transform="translate(28.752 102.072)">
                <circle id="Ellipse_228-11" data-name="Ellipse 228" class="cls-5" cx="1.942" cy="1.942" r="1.942"/>
                <circle id="Ellipse_227-11" data-name="Ellipse 227" class="cls-2" cx="1.109" cy="1.109" r="1.109" transform="translate(.555 .555)"/>
            </g>
            <g id="Group_13499" data-name="Group 13499" class="cls-4" transform="translate(53.255 22.744)">
                <circle id="Ellipse_228-12" data-name="Ellipse 228" class="cls-5" cx="1.942" cy="1.942" r="1.942"/>
                <circle id="Ellipse_227-12" data-name="Ellipse 227" class="cls-2" cx="1.109" cy="1.109" r="1.109" transform="translate(.555 .555)"/>
            </g>
            <g id="Group_13522" data-name="Group 13522" transform="translate(79.002 35.504)">
                <circle id="Ellipse_228-13" data-name="Ellipse 228" class="cls-6" cx="2.774" cy="2.774" r="2.774"/>
                <circle id="Ellipse_227-13" data-name="Ellipse 227" class="cls-7" cx="1.387" cy="1.387" r="1.387" transform="translate(1.664 1.664)"/>
            </g>
            <g id="Group_13523" data-name="Group 13523" transform="translate(79.002 35.504)">
                <circle id="Ellipse_228-14" data-name="Ellipse 228" class="cls-6" cx="2.774" cy="2.774" r="2.774"/>
                <circle id="Ellipse_227-14" data-name="Ellipse 227" class="cls-7" cx="1.387" cy="1.387" r="1.387" transform="translate(1.664 1.664)"/>
            </g>
            <g id="Group_13524" data-name="Group 13524" transform="translate(62.36 66.014)">
                <circle id="Ellipse_228-15" data-name="Ellipse 228" class="cls-6" cx="1.109" cy="1.109" r="1.109"/>
                <circle id="Ellipse_227-15" data-name="Ellipse 227" class="cls-7" cx=".555" cy=".555" r=".555" transform="translate(.555 .555)"/>
            </g>
            <g id="Group_13525" data-name="Group 13525" transform="translate(57.922 94.86)">
                <circle id="Ellipse_228-16" data-name="Ellipse 228" class="cls-6" cx="2.219" cy="2.219" r="2.219"/>
                <circle id="Ellipse_227-16" data-name="Ellipse 227" class="cls-7" cx="1.109" cy="1.109" r="1.109" transform="translate(1.109 1.109)"/>
            </g>
            <g id="Group_13527" data-name="Group 13527" transform="translate(100.082 54.919)">
                <circle id="Ellipse_228-17" data-name="Ellipse 228" class="cls-6" cx="2.219" cy="2.219" r="2.219"/>
                <circle id="Ellipse_227-17" data-name="Ellipse 227" class="cls-7" cx="1.109" cy="1.109" r="1.109" transform="translate(1.109 1.109)"/>
            </g>
            <g id="Group_13528" data-name="Group 13528" transform="translate(100.082 54.919)">
                <circle id="Ellipse_228-18" data-name="Ellipse 228" class="cls-6" cx="2.219" cy="2.219" r="2.219"/>
                <circle id="Ellipse_227-18" data-name="Ellipse 227" class="cls-7" cx="1.109" cy="1.109" r="1.109" transform="translate(1.109 1.109)"/>
            </g>
            <g id="Group_13526" data-name="Group 13526" transform="translate(45.718 69.897)">
                <circle id="Ellipse_228-19" data-name="Ellipse 228" class="cls-6" cx="1.664" cy="1.664" r="1.664"/>
                <circle id="Ellipse_227-19" data-name="Ellipse 227" class="cls-7" cx=".832" cy=".832" r=".832" transform="translate(1.109 1.109)"/>
            </g>
        </g>
    </g>
</svg>
