<svg xmlns="http://www.w3.org/2000/svg" width="130" height="130" viewBox="0 0 130 130"><defs><style>.a{fill:#f8f9f9;}.b{fill:#c33131;stroke:#c33131;}</style></defs><g transform="translate(-803 -960)"><rect class="a" width="130" height="130" rx="20" transform="translate(803 960)"/><g transform="translate(799.733 874.138)"><g transform="translate(39.267 127.862)"><path class="b" d="M95.012,168.563H44.464c-.682,0-1.364-.006-2.053,0H42.32l3.045,3.045V135.922c0-1.651.018-3.3,0-4.946v-.067a3.171,3.171,0,0,0-.889-2.156,3.059,3.059,0,0,0-4.312,0,3.159,3.159,0,0,0-.889,2.156V166.6c0,1.651-.018,3.3,0,4.946v.067a3.091,3.091,0,0,0,3.045,3.045H92.868c.682,0,1.364.006,2.053,0h.091a3.171,3.171,0,0,0,2.156-.889,3.059,3.059,0,0,0,0-4.312,3.187,3.187,0,0,0-2.156-.889Z" transform="translate(-39.267 -127.862)"/><path class="b" d="M263.891,381.586V366.109a3.171,3.171,0,0,0-.889-2.156,3.059,3.059,0,0,0-4.312,0,3.159,3.159,0,0,0-.889,2.156v15.477a3.171,3.171,0,0,0,.889,2.156,3.059,3.059,0,0,0,4.312,0,3.187,3.187,0,0,0,.889-2.156Z" transform="translate(-244.489 -348.736)"/><path class="b" d="M491.917,224.609v21.117c0,.981-.012,1.955,0,2.936v.043a3.171,3.171,0,0,0,.889,2.156,3.059,3.059,0,0,0,4.312,0,3.159,3.159,0,0,0,.889-2.156V227.588c0-.981.012-1.955,0-2.936v-.043a3.17,3.17,0,0,0-.889-2.156,3.059,3.059,0,0,0-4.312,0,3.2,3.2,0,0,0-.889,2.156Z" transform="translate(-464.341 -215.854)"/><path class="b" d="M734.2,323.709v18.065a3.171,3.171,0,0,0,.889,2.156,3.059,3.059,0,0,0,4.312,0,3.159,3.159,0,0,0,.889-2.156V323.709a3.171,3.171,0,0,0-.889-2.156,3.059,3.059,0,0,0-4.312,0,3.171,3.171,0,0,0-.889,2.156Z" transform="translate(-691.873 -308.918)"/></g></g></g></svg>