<svg xmlns="http://www.w3.org/2000/svg" width="48.191" height="61.409" viewBox="0 0 48.191 61.409"><defs><style>.a{fill:#2c2a2d;}.a,.b,.c,.d,.e,.f,.g,.h{stroke:#282828;stroke-miterlimit:10;}.b{fill:#85dfff;}.c{fill:#e1e1e3;}.d{fill:#fff;}.e{fill:#028c3c;}.f{fill:#fe7a09;}.g{fill:#fce292;}.h{fill:#282828;stroke-width:0.5px;}</style></defs><g transform="translate(-27.583 -8.05)"><path class="a" d="M49.065,8.6H76.211a4.36,4.36,0,0,1,4.365,4.365v51.68a4.36,4.36,0,0,1-4.365,4.365H49.065A4.36,4.36,0,0,1,44.7,64.645V12.965A4.36,4.36,0,0,1,49.065,8.6Z" transform="translate(-11.29 -0.05)"/><path class="b" d="M81.59,60.236v6.183a3.542,3.542,0,0,1-3.538,3.538H51.038A3.542,3.542,0,0,1,47.5,66.419h0V14.838A3.542,3.542,0,0,1,51.038,11.3H78.052a3.542,3.542,0,0,1,3.538,3.538v45.4Z" transform="translate(-13.164 -1.857)"/><path class="c" d="M74.5,11.3l1.455,2.91a2.019,2.019,0,0,0,1.819,1.124h9.655a2.056,2.056,0,0,0,1.819-1.124L90.7,11.3Z" transform="translate(-31.237 -1.857)"/><path class="d" d="M40.888,53.12a10.5,10.5,0,0,1-7.307-2.943,9.91,9.91,0,0,1-.265-13.986,2,2,0,0,1,.265-.265,10.523,10.523,0,0,1,14.615,0,9.91,9.91,0,0,1,.265,13.986,2,2,0,0,1-.265.265A10.272,10.272,0,0,1,40.888,53.12Z" transform="translate(-1.824 -16.366)"/><path class="e" d="M67.791,52.991,62.6,58.149V47.8Z" transform="translate(-23.271 -26.289)"/><path class="f" d="M55.858,52.991,50.7,58.149V47.8Z" transform="translate(-15.306 -26.289)"/><path class="g" d="M117.288,126.52a10.559,10.559,0,0,1-7.307-2.943,9.91,9.91,0,0,1-.265-13.986,2,2,0,0,1,.265-.265,10.523,10.523,0,0,1,14.615,0,9.88,9.88,0,0,1,.231,13.986,1.529,1.529,0,0,1-.231.231A10.248,10.248,0,0,1,117.288,126.52Z" transform="translate(-52.962 -65.496)"/><path class="h" d="M39.957,32.852l5.522-5.522a.938.938,0,0,0,0-1.323l-5.522-5.489a.938.938,0,0,0-1.323,0,.983.983,0,0,0-.265.661v1.951l-2.612-2.612a.938.938,0,0,0-1.323,0,.983.983,0,0,0-.265.661V32.191a.9.9,0,0,0,.6.86,1.189,1.189,0,0,0,.364.066.923.923,0,0,0,.661-.265L38.4,30.24v1.918a.9.9,0,0,0,.6.86,1.189,1.189,0,0,0,.364.066A.638.638,0,0,0,39.957,32.852Zm.4-4.166,1.19-1.19a1.1,1.1,0,0,0,0-1.554h0l-1.19-1.19V22.933L44.123,26.7l-3.769,3.769ZM38.436,27.43h0l-3.042,3.042V22.933l3.042,3.042h0l.727.727ZM72.261,43.2a11.878,11.878,0,0,0-2.91-2.05V12.98A4.431,4.431,0,0,0,64.921,8.55H59.663a.459.459,0,0,0-.3,0H43.429a.459.459,0,0,0-.3,0H37.874a4.431,4.431,0,0,0-4.431,4.431v4.232a11.682,11.682,0,0,0-2.315,1.719,10.768,10.768,0,0,0-.265,15.243l.265.265a10.8,10.8,0,0,0,2.315,1.719v28.4a4.431,4.431,0,0,0,4.431,4.431H64.888a4.431,4.431,0,0,0,4.431-4.431v-3.8a11.284,11.284,0,0,0,2.91-2.05,10.768,10.768,0,0,0,.265-15.243,1.89,1.89,0,0,0-.231-.265ZM58.043,10.335l-.794,1.62a1.135,1.135,0,0,1-1.025.628H46.57a1.135,1.135,0,0,1-1.025-.628l-.827-1.62ZM32.385,33.183a8.992,8.992,0,0,1-.231-12.73l.231-.231a9.6,9.6,0,0,1,13.358,0,9.032,9.032,0,0,1,.231,12.763l-.231.231A9.635,9.635,0,0,1,32.385,33.183ZM67.566,64.561a2.653,2.653,0,0,1-2.645,2.645H37.874a2.653,2.653,0,0,1-2.645-2.645V36.985a11.694,11.694,0,0,0,3.836.661A11.317,11.317,0,0,0,47,34.439,10.768,10.768,0,0,0,47.264,19.2L47,18.932a11.4,11.4,0,0,0-7.936-3.207,11.547,11.547,0,0,0-3.836.661V12.98a2.653,2.653,0,0,1,2.645-2.645h4.861l1.223,2.414a2.873,2.873,0,0,0,2.612,1.587h9.655a2.971,2.971,0,0,0,2.612-1.587l1.223-2.414h4.861a2.653,2.653,0,0,1,2.645,2.645V40.457a11.99,11.99,0,0,0-3.24-.463A11.317,11.317,0,0,0,56.39,43.2a10.768,10.768,0,0,0-.265,15.243l.265.265a11.4,11.4,0,0,0,7.936,3.207,11.99,11.99,0,0,0,3.24-.463ZM71,57.452a9.6,9.6,0,0,1-13.358,0,9.032,9.032,0,0,1-.231-12.763l.231-.231a9.6,9.6,0,0,1,13.358,0,9.032,9.032,0,0,1,.231,12.763ZM52.555,26.8v.066h0a.937.937,0,0,0,.3.6l3.406,2.844a.891.891,0,1,0,1.157-1.356l-1.554-1.29h6.844a.889.889,0,0,1,.893.893h0v7.737a.893.893,0,1,0,1.785,0V28.554a2.653,2.653,0,0,0-2.645-2.645H55.762l1.686-1.521a.89.89,0,1,0-1.19-1.323l-3.273,2.976a.845.845,0,0,0-.43.76ZM67.9,47.1a.7.7,0,0,0-.694-.694H61.515a.694.694,0,0,0,0,1.389H63.5a1.7,1.7,0,0,1,1.521.926H61.482a.694.694,0,1,0,0,1.389H65.02a1.743,1.743,0,0,1-1.521.926H61.217a.032.032,0,0,0-.033.033h-.033l-.033.033h-.033l-.033.033-.033.033-.033.033-.033.033h0v.033l-.033.033-.033.033a810.364,810.364,0,0,0-.066.066v.364h0V52.1a1215.838,1215.838,0,0,0,.1.1l.033.033.033.033.033.033h0l4.3,4.067a.7.7,0,0,0,.959-1.025l-3.009-2.844h.2a3.146,3.146,0,0,0,3.042-2.348h.661a.694.694,0,1,0,0-1.389h-.661a2.906,2.906,0,0,0-.4-.926H67.2A.752.752,0,0,0,67.9,47.1ZM59.465,63.669H43.3a.893.893,0,1,0,0,1.785H59.465a.893.893,0,1,0,0-1.785ZM46.338,53.352a.89.89,0,0,0,1.19,1.323h0L50.8,51.7a.909.909,0,0,0,.4-.727h0v-.066h0a1.026,1.026,0,0,0-.3-.6L47.5,47.467a.891.891,0,0,0-1.157,1.356h0l1.554,1.29H40.684a.889.889,0,0,1-.893-.893V40.325a.893.893,0,0,0-1.785,0v8.861a2.653,2.653,0,0,0,2.645,2.645h7.307Z" transform="translate(0 0)"/></g></svg>