<svg xmlns="http://www.w3.org/2000/svg" width="264" height="274" viewBox="0 0 264 274">
    <defs>
        <clipPath id="clip-path">
            <path id="Subtraction_41" data-name="Subtraction 41" class="cls-1" d="M120.5 183.771v-4.105a89.9 89.9 0 1 0-54.907-.492v4.126a93.265 93.265 0 0 1-8.295-3.057 93.862 93.862 0 0 1 0-172.869 93.8 93.8 0 0 1 102.84 152.765 93.587 93.587 0 0 1-39.638 23.629z"/>
        </clipPath>
        <clipPath id="clip-path-2">
            <path id="Subtraction_41-2" data-name="Subtraction 41" class="cls-1" d="M81.213 123.856v-2.767a60.589 60.589 0 1 0-37.006-.33v2.781a63.12 63.12 0 0 1-5.591-2.059A63.227 63.227 0 0 1 63.228 0a63.2 63.2 0 0 1 44.7 107.928 62.952 62.952 0 0 1-20.095 13.554 63.622 63.622 0 0 1-6.62 2.372z"/>
        </clipPath>
        <clipPath id="clip-path-3">
            <path id="Subtraction_41-3" data-name="Subtraction 41" class="cls-1" d="M53.184 81.11V79.3a39.678 39.678 0 1 0-24.234-.216V80.9a41.212 41.212 0 0 1-3.661-1.348A41.406 41.406 0 0 1 41.406 0 41.388 41.388 0 0 1 70.68 70.679a41.226 41.226 0 0 1-13.16 8.876 41.665 41.665 0 0 1-4.335 1.553z"/>
        </clipPath>
        <linearGradient id="linear-gradient" x1=".5" x2=".824" y2=".088" gradientUnits="objectBoundingBox">
            <stop offset="0" stop-color="#f36f21"/>
            <stop offset="1" stop-color="#f36f21" stop-opacity="0"/>
        </linearGradient>
        <style>
            .cls-1{fill:url(#linear-gradient)}.cls-5{fill:#f36f21}
        </style>
    </defs>
    <g id="Group_13643" data-name="Group 13643" transform="translate(-981.467 -1.824)" style="opacity:.1">
        <g id="Group_13639" data-name="Group 13639" transform="rotate(142 595.002 294.287)">
            <g id="Group_13571" data-name="Group 13571">
                <g id="Mask_Group_61" data-name="Mask Group 61" style="clip-path:url(#clip-path)">
                    <path id="Subtraction_36" data-name="Subtraction 36" class="cls-1" d="M93.807 187.615A93.832 93.832 0 0 1 57.293 7.372a93.832 93.832 0 0 1 73.028 172.871 93.221 93.221 0 0 1-36.514 7.372zm0-183.706a89.9 89.9 0 1 0 89.9 89.9 90 90 0 0 0-89.9-89.901z" transform="translate(.002 .002)"/>
                </g>
            </g>
            <circle id="Ellipse_1685" data-name="Ellipse 1685" class="cls-5" cx="6.101" cy="6.101" r="6.101" transform="translate(59.489 175.414)"/>
        </g>
        <g id="Group_13640" data-name="Group 13640" transform="rotate(-83.98 636.447 -484.073)">
            <g id="Group_13571-2" data-name="Group 13571">
                <g id="Mask_Group_61-2" data-name="Mask Group 61" style="clip-path:url(#clip-path-2)">
                    <path id="Subtraction_36-2" data-name="Subtraction 36" class="cls-1" d="M63.224 126.447A63.24 63.24 0 0 1 38.614 4.968a63.24 63.24 0 0 1 49.219 116.51 62.829 62.829 0 0 1-24.609 4.969zm0-123.813a60.59 60.59 0 1 0 60.59 60.589 60.658 60.658 0 0 0-60.59-60.589z" transform="translate(.002 .001)"/>
                </g>
            </g>
            <circle id="Ellipse_1685-2" data-name="Ellipse 1685" class="cls-5" cx="4.112" cy="4.112" r="4.112" transform="translate(40.094 118.224)"/>
        </g>
        <g id="Group_13641" data-name="Group 13641" transform="rotate(69 510.303 875.642)">
            <g id="Group_13571-3" data-name="Group 13571">
                <g id="Mask_Group_61-3" data-name="Mask Group 61" style="clip-path:url(#clip-path-3)">
                    <path id="Subtraction_36-3" data-name="Subtraction 36" class="cls-1" d="M41.4 82.807A41.414 41.414 0 0 1 25.287 3.254a41.414 41.414 0 0 1 32.232 76.3A41.145 41.145 0 0 1 41.4 82.807zm0-81.082A39.678 39.678 0 1 0 81.082 41.4 39.723 39.723 0 0 0 41.4 1.725z" transform="translate(.001 .001)"/>
                </g>
            </g>
            <circle id="Ellipse_1685-3" data-name="Ellipse 1685" class="cls-5" cx="2.693" cy="2.693" r="2.693" transform="translate(26.257 77.422)"/>
        </g>
    </g>
</svg>
