<svg xmlns="http://www.w3.org/2000/svg" width="194" height="114" viewBox="0 0 194 114">
    <defs>
        <radialGradient id="radial-gradient" cx=".317" cy=".088" r="1.475" gradientTransform="rotate(60 0 -.089)" gradientUnits="objectBoundingBox">
            <stop offset="0" stop-color="#f3c821"/>
            <stop offset="1" stop-color="#f36f21"/>
        </radialGradient>
        <style>
            .cls-2,.cls-5{fill:url(#radial-gradient)}.cls-4,.cls-5{opacity:.4}
        </style>
    </defs>
    <g id="allotment" transform="translate(-652.406 -405.999)">
        <g id="Group_21053" data-name="Group 21053" transform="translate(5 -11)">
            <g id="Group_18394" data-name="Group 18394" transform="translate(4)">
                <g id="Group_18389" data-name="Group 18389">
                    <circle id="Ellipse_1859" data-name="Ellipse 1859" class="cls-2" cx="6.5" cy="6.5" r="6.5" transform="translate(695 440)"/>
                    <rect id="Rectangle_5367" data-name="Rectangle 5367" class="cls-2" width="6" height="23.779" rx="3" transform="rotate(-23 1476.348 -1490.241)"/>
                    <rect id="Rectangle_5366" data-name="Rectangle 5366" class="cls-2" width="5.912" height="28.687" rx="2.956" transform="rotate(-11 2839.634 -3393.31)"/>
                    <rect id="Rectangle_5362" data-name="Rectangle 5362" class="cls-2" width="9" height="31" rx="4" transform="translate(697 455)"/>
                    <rect id="Rectangle_5363" data-name="Rectangle 5363" class="cls-2" width="6" height="23.779" rx="3" transform="rotate(29 -532.43 1577.155)"/>
                    <path id="Union_43" data-name="Union 43" class="cls-2" d="m4418.055-14962.346-1.6-9.065a2.951 2.951 0 0 1 .365-3.042l9.095-11.642a2.953 2.953 0 0 1 4.149-.508 2.956 2.956 0 0 1 .512 4.148l-7.967 10.194 1.558 8.839a3.1 3.1 0 0 1-2.516 3.592 3.124 3.124 0 0 1-.543.048 3.1 3.1 0 0 1-3.053-2.564z" transform="translate(-3727.626 15466.934)"/>
                </g>
                <g id="Group_18390" data-name="Group 18390" transform="translate(27.848)">
                    <path id="Union_44" data-name="Union 44" d="m4405.1-14925.261-3.271-16.828-6.514 16.976a2.961 2.961 0 0 1-3.822 1.7 2.961 2.961 0 0 1-1.7-3.822l7.835-20.409a4.509 4.509 0 0 1-.082-.854v-11.028l-3.687 6.653a3 3 0 0 1-4.078 1.17 3 3 0 0 1-1.17-4.078l8.619-15.553a2.992 2.992 0 0 1 .61-.768 4.5 4.5 0 0 1 4.206-2.9 4.5 4.5 0 0 1 4.181 2.838 3.009 3.009 0 0 1 .661.97l6.944 16.364a3 3 0 0 1-1.587 3.936 3 3 0 0 1-3.935-1.592l-1.764-4.155v7.844c0 .019.008.036.011.055l4.349 22.357a2.958 2.958 0 0 1-2.34 3.465 2.966 2.966 0 0 1-.567.056 2.96 2.96 0 0 1-2.899-2.397zm-9.555-58.239a6.5 6.5 0 0 1 6.5-6.5 6.5 6.5 0 0 1 6.5 6.5 6.5 6.5 0 0 1-6.5 6.5 6.5 6.5 0 0 1-6.504-6.5z" transform="translate(-3700.54 15430)" style="opacity:.2;fill:url(#radial-gradient)"/>
                </g>
                <g id="Group_18391" data-name="Group 18391" class="cls-4" transform="translate(56.848)">
                    <path id="Union_44-2" data-name="Union 44" class="cls-5" d="m4405.1-14925.261-3.271-16.828-6.514 16.976a2.961 2.961 0 0 1-3.822 1.7 2.961 2.961 0 0 1-1.7-3.822l7.835-20.409a4.509 4.509 0 0 1-.082-.854v-11.028l-3.687 6.653a3 3 0 0 1-4.078 1.17 3 3 0 0 1-1.17-4.078l8.619-15.553a2.992 2.992 0 0 1 .61-.768 4.5 4.5 0 0 1 4.206-2.9 4.5 4.5 0 0 1 4.181 2.838 3.009 3.009 0 0 1 .661.97l6.944 16.364a3 3 0 0 1-1.587 3.936 3 3 0 0 1-3.935-1.592l-1.764-4.155v7.844c0 .019.008.036.011.055l4.349 22.357a2.958 2.958 0 0 1-2.34 3.465 2.966 2.966 0 0 1-.567.056 2.96 2.96 0 0 1-2.899-2.397zm-9.555-58.239a6.5 6.5 0 0 1 6.5-6.5 6.5 6.5 0 0 1 6.5 6.5 6.5 6.5 0 0 1-6.5 6.5 6.5 6.5 0 0 1-6.504-6.5z" transform="translate(-3700.54 15430)"/>
                </g>
                <g id="Group_18392" data-name="Group 18392" class="cls-4" transform="translate(85.848)">
                    <path id="Union_44-3" data-name="Union 44" class="cls-5" d="m4405.1-14925.261-3.271-16.828-6.514 16.976a2.961 2.961 0 0 1-3.822 1.7 2.961 2.961 0 0 1-1.7-3.822l7.835-20.409a4.509 4.509 0 0 1-.082-.854v-11.028l-3.687 6.653a3 3 0 0 1-4.078 1.17 3 3 0 0 1-1.17-4.078l8.619-15.553a2.992 2.992 0 0 1 .61-.768 4.5 4.5 0 0 1 4.206-2.9 4.5 4.5 0 0 1 4.181 2.838 3.009 3.009 0 0 1 .661.97l6.944 16.364a3 3 0 0 1-1.587 3.936 3 3 0 0 1-3.935-1.592l-1.764-4.155v7.844c0 .019.008.036.011.055l4.349 22.357a2.958 2.958 0 0 1-2.34 3.465 2.966 2.966 0 0 1-.567.056 2.96 2.96 0 0 1-2.899-2.397zm-9.555-58.239a6.5 6.5 0 0 1 6.5-6.5 6.5 6.5 0 0 1 6.5 6.5 6.5 6.5 0 0 1-6.5 6.5 6.5 6.5 0 0 1-6.504-6.5z" transform="translate(-3700.54 15430)"/>
                </g>
                <g id="Group_18393" data-name="Group 18393" class="cls-4" transform="translate(114.848 .509)">
                    <path id="Union_44-4" data-name="Union 44" class="cls-5" d="m4405.1-14925.261-3.271-16.828-6.514 16.976a2.961 2.961 0 0 1-3.822 1.7 2.961 2.961 0 0 1-1.7-3.822l7.835-20.409a4.509 4.509 0 0 1-.082-.854v-11.028l-3.687 6.653a3 3 0 0 1-4.078 1.17 3 3 0 0 1-1.17-4.078l8.619-15.553a2.992 2.992 0 0 1 .61-.768 4.5 4.5 0 0 1 4.206-2.9 4.5 4.5 0 0 1 4.181 2.838 3.009 3.009 0 0 1 .661.97l6.944 16.364a3 3 0 0 1-1.587 3.936 3 3 0 0 1-3.935-1.592l-1.764-4.155v7.844c0 .019.008.036.011.055l4.349 22.357a2.958 2.958 0 0 1-2.34 3.465 2.966 2.966 0 0 1-.567.056 2.96 2.96 0 0 1-2.899-2.397zm-9.555-58.239a6.5 6.5 0 0 1 6.5-6.5 6.5 6.5 0 0 1 6.5 6.5 6.5 6.5 0 0 1-6.5 6.5 6.5 6.5 0 0 1-6.504-6.5z" transform="translate(-3700.54 15430)"/>
                </g>
            </g>
            <path id="Path_12336" data-name="Path 12336" class="cls-2" d="M22.589-37.794h-4.945a9.468 9.468 0 0 1 1.5 3.992h4.582l-1.134 4.129h-3.428a8.39 8.39 0 0 1-2.994 5.728 12.9 12.9 0 0 1-7.055 2.371L19.686-9.212v.295h-6.51L1.629-22.369l-.023-3.471h5.739a6.836 6.836 0 0 0 4.026-1.055 5.041 5.041 0 0 0 1.985-2.779H1.152L2.309-33.8h10.957q-1.112-3.516-6.011-3.516h-6.1l1.225-4.628h21.366z" transform="translate(656.254 495.917)"/>
        </g>
    </g>
</svg>
