<svg width="24" height="23" viewBox="0 0 24 23" fill="none" xmlns="http://www.w3.org/2000/svg">
<path d="M11.661 17.438L4.70455 21.808L6.707 13.8503L0.407616 8.58343L8.59473 8.03067L11.661 0.417175L14.7168 8.03067L22.9039 8.58343L16.6045 13.8503L18.607 21.808L11.661 17.438Z" fill="#FFC300"/>
<path d="M4.70455 22.2251C4.62111 22.2251 4.52725 22.1939 4.45424 22.1417C4.31866 22.0374 4.25608 21.8705 4.2978 21.7037L6.23767 13.9963L0.146881 8.90674C0.0112983 8.80245 -0.0304191 8.61472 0.0217281 8.45828C0.0738753 8.29141 0.219887 8.18711 0.386759 8.16625L8.31314 7.63435L11.2751 0.260736C11.3377 0.104294 11.4941 0 11.661 0C11.8279 0 11.9843 0.104294 12.0469 0.260736L15.0088 7.63435L22.9352 8.16625C23.1021 8.17668 23.2481 8.29141 23.3002 8.45828C23.3524 8.62515 23.3002 8.80245 23.1751 8.90674L17.0739 13.9963L19.0033 21.662C19.0242 21.7037 19.0242 21.7558 19.0242 21.808C19.0242 22.0374 18.8364 22.2251 18.607 22.2251C18.534 22.2251 18.4506 22.2043 18.388 22.1626L11.661 17.9386L4.934 22.1626C4.86099 22.2043 4.78798 22.2251 4.70455 22.2251ZM1.48185 8.9276L6.97817 13.527C7.10332 13.6313 7.15547 13.7982 7.11375 13.9442L5.3616 20.8902L11.4315 17.0834C11.5671 17 11.7444 17 11.88 17.0834L17.9499 20.8902L16.1978 13.9442C16.1561 13.7877 16.2082 13.6209 16.3334 13.527L21.8297 8.9276L14.6751 8.44785C14.5187 8.43742 14.3726 8.33312 14.3205 8.18711L11.6506 1.53313L8.98062 8.18711C8.91804 8.33312 8.78246 8.43742 8.62602 8.44785L1.48185 8.9276Z" fill="#FFA500"/>
</svg>
