<svg xmlns="http://www.w3.org/2000/svg" width="164.021" height="48" viewBox="0 0 164.021 48">
    <g data-name="Group 13604">
        <path data-name="Subtraction 7" d="M17.575 35.151a17.576 17.576 0 0 1-12.428-30A17.576 17.576 0 0 1 30.2 29.8a17.48 17.48 0 0 1-12.018 5.339c4.968-2.462 10.657-7.332 9.545-16.559l4.752-1.273-10.541-6.086-6.088 10.544 4.871-1.3c1.6 5.959.786 10.624-2.549 14.681-.203.002-.403.005-.597.005z" style="fill:#f36f21"/>
        <path data-name="Path 12096" d="M17.426-18.509a10.393 10.393 0 0 1 7.787 3.042q2.969 3.042 2.969 8.493V8.844h-6.814V-6.049a6.991 6.991 0 0 0-1.606-4.94 5.688 5.688 0 0 0-4.38-1.728 5.829 5.829 0 0 0-4.453 1.728A6.925 6.925 0 0 0 9.3-6.049V8.844H2.484v-26.963H9.3v3.358a9.413 9.413 0 0 1 3.48-2.75 10.765 10.765 0 0 1 4.646-.998zM59.721-5.222a16.082 16.082 0 0 1-.195 2.628H39.814a6.7 6.7 0 0 0 2.044 4.575 6.3 6.3 0 0 0 4.429 1.655A5.564 5.564 0 0 0 51.69.375h7.349a12.282 12.282 0 0 1-4.478 6.4 13.072 13.072 0 0 1-8.128 2.507 14.065 14.065 0 0 1-6.984-1.728 12.161 12.161 0 0 1-4.818-4.891 14.988 14.988 0 0 1-1.728-7.3 15.267 15.267 0 0 1 1.7-7.349 11.886 11.886 0 0 1 4.77-4.867 14.289 14.289 0 0 1 7.057-1.7 14.176 14.176 0 0 1 6.89 1.653 11.646 11.646 0 0 1 4.721 4.7 14.213 14.213 0 0 1 1.68 6.978zm-7.058-1.947a5.4 5.4 0 0 0-1.9-4.21 6.725 6.725 0 0 0-4.526-1.582 6.185 6.185 0 0 0-4.259 1.533 6.741 6.741 0 0 0-2.117 4.259zM71.4-25.128V-4.1a7.209 7.209 0 0 0 1.8 5.281A6.791 6.791 0 0 0 78.264 3a6.858 6.858 0 0 0 5.11-1.825 7.209 7.209 0 0 0 1.8-5.281v-21.022h6.863v20.977a13.542 13.542 0 0 1-1.874 7.325 11.885 11.885 0 0 1-5.013 4.5 15.914 15.914 0 0 1-6.984 1.509 15.488 15.488 0 0 1-6.886-1.507 11.487 11.487 0 0 1-4.891-4.5 13.969 13.969 0 0 1-1.8-7.325v-20.979zm34.021 10.9a10.347 10.347 0 0 1 3.626-3.091 10.989 10.989 0 0 1 5.281-1.241 11.791 11.791 0 0 1 6.254 1.7 11.985 11.985 0 0 1 4.429 4.843 15.567 15.567 0 0 1 1.63 7.276 15.865 15.865 0 0 1-1.63 7.325 12.263 12.263 0 0 1-4.429 4.94 11.544 11.544 0 0 1-6.254 1.752 10.88 10.88 0 0 1-5.228-1.211A11.224 11.224 0 0 1 105.422 5v16.693h-6.814v-39.812h6.814zm14.26 9.491a8.462 8.462 0 0 0-1-4.21 6.908 6.908 0 0 0-2.628-2.7 7.033 7.033 0 0 0-3.529-.925 6.806 6.806 0 0 0-3.48.949 7.044 7.044 0 0 0-2.628 2.75 8.6 8.6 0 0 0-1 4.234 8.6 8.6 0 0 0 1 4.234 7.044 7.044 0 0 0 2.628 2.75 6.806 6.806 0 0 0 3.48.949 6.762 6.762 0 0 0 3.529-.973 7.226 7.226 0 0 0 2.628-2.774 8.706 8.706 0 0 0 1.002-4.282z" transform="translate(37.378 26.307)" style="fill:#fff"/>
    </g>
</svg>
