<svg xmlns="http://www.w3.org/2000/svg" xmlns:xlink="http://www.w3.org/1999/xlink" width="180" height="116" viewBox="0 0 180 116">
    <defs>
        <linearGradient id="linear-gradient" x1=".5" x2=".5" y2="1" gradientUnits="objectBoundingBox">
            <stop offset="0" stop-color="#4dbcf6"/>
            <stop offset="1" stop-color="#216af3"/>
        </linearGradient>
        <linearGradient id="linear-gradient-2" x1=".286" y1="1" x2=".861" gradientUnits="objectBoundingBox">
            <stop offset="0" stop-color="#06a86d"/>
            <stop offset="1" stop-color="#4ef3ff"/>
        </linearGradient>
        <linearGradient id="linear-gradient-3" x1=".286" y1="1" x2=".861" gradientUnits="objectBoundingBox">
            <stop offset="0" stop-color="#0c5fde"/>
            <stop offset="1" stop-color="#4ef3ff"/>
        </linearGradient>
        <linearGradient id="linear-gradient-5" x1=".286" y1="1" x2=".861" gradientUnits="objectBoundingBox">
            <stop offset="0" stop-color="#bb1615"/>
            <stop offset="1" stop-color="#f338da"/>
        </linearGradient>
        <linearGradient id="linear-gradient-6" x1=".286" y1="1" x2=".861" gradientUnits="objectBoundingBox">
            <stop offset="0" stop-color="#ff5a1f"/>
            <stop offset="1" stop-color="#dcff4e"/>
        </linearGradient>
        <linearGradient id="linear-gradient-8" x1=".714" y1="0" x2=".139" y2="1" xlink:href="#linear-gradient-2"/>
        <linearGradient id="linear-gradient-9" x1=".714" x2=".139" xlink:href="#linear-gradient-3"/>
        <style>
            .cls-3{fill:url(#linear-gradient-2)}.cls-5{fill:url(#linear-gradient-5)}
        </style>
    </defs>
    <g id="Group_20897" data-name="Group 20897" transform="translate(-20640 -7163)">
        <path id="Intersection_7" data-name="Intersection 7" d="m4765.166-6419.776-12.177-14.188-.024-3.661h6.053a7.2 7.2 0 0 0 4.248-1.113 5.317 5.317 0 0 0 2.094-2.931h-12.873l1.22-4.353h11.557q-1.173-3.71-6.339-3.708h-6.437l1.292-4.881h22.538l-1.221 4.378h-5.215a9.983 9.983 0 0 1 1.579 4.212h4.834l-1.2 4.353h-3.612a8.848 8.848 0 0 1-3.158 6.042 13.6 13.6 0 0 1-7.441 2.5l11.149 13.039v.312zm17.391-35.9c0-20.257 6.144-35.426 25.92-35.426s25.92 15.168 25.92 35.426c0 20.447-6.144 35.71-25.92 35.71s-25.92-15.265-25.92-35.713zm13.248 0c0 12.479 1.344 23.232 12.673 23.232s12.671-10.753 12.671-23.232c0-12-1.344-22.945-12.671-22.945s-12.678 10.941-12.678 22.942z" transform="translate(15890.103 13677.777)" style="fill:url(#linear-gradient)"/>
        <g id="Group_18836" data-name="Group 18836" transform="translate(20737 7175.784)">
            <ellipse id="Ellipse_1761" data-name="Ellipse 1761" class="cls-3" cx="4.144" cy="3.963" rx="4.144" ry="3.963" transform="translate(47.26 45.32)"/>
            <ellipse id="Ellipse_1762" data-name="Ellipse 1762" cx="2.333" cy="2.545" rx="2.333" ry="2.545" transform="translate(-.062 -1)" style="fill:url(#linear-gradient-3)"/>
            <circle id="Ellipse_1934" data-name="Ellipse 1934" class="cls-3" cx="2.349" cy="2.349" transform="translate(21.254 88.534)" r="2.349"/>
            <ellipse id="Ellipse_1765" data-name="Ellipse 1765" class="cls-5" cx="2.333" cy="2.332" rx="2.333" ry="2.332" transform="translate(55.224 13.122)"/>
            <ellipse id="Ellipse_1764" data-name="Ellipse 1764" cx="2.333" cy="2.332" rx="2.333" ry="2.332" transform="translate(30.794 42.987)" style="fill:url(#linear-gradient-6)"/>
            <path id="Polygon_65" data-name="Polygon 65" class="cls-5" d="m3.012 0 3.011 6.023H0z" transform="rotate(-16 205.975 12.248)"/>
            <path id="Rectangle_5383" data-name="Rectangle 5383" transform="scale(-1) rotate(37 30.518 -38.858)" style="fill:url(#linear-gradient-8)" d="M0 0h2.497v6.659H0z"/>
            <path id="Rectangle_5384" data-name="Rectangle 5384" transform="rotate(-37 143.89 -36.914)" style="fill:url(#linear-gradient-9)" d="M0 0h3.614v9.637H0z"/>
        </g>
    </g>
</svg>
