<svg id="Group_13445" data-name="Group 13445" xmlns="http://www.w3.org/2000/svg" width="21" height="21" viewBox="0 0 21 21">
    <defs>
        <clipPath id="clip-path">
            <circle id="Ellipse_217" data-name="Ellipse 217" cx="10.5" cy="10.5" r="10.5" style="stroke:#707070;fill:#fff"/>
        </clipPath>
        <style>
            .cls-2{fill:#fff}
        </style>
    </defs>
    <circle id="Ellipse_216" data-name="Ellipse 216" class="cls-2" cx="10.5" cy="10.5" r="10.5"/>
    <g id="Mask_Group_55" data-name="Mask Group 55" style="clip-path:url(#clip-path)">
        <g id="g5" transform="translate(3.781 5.796)">
            <path id="path7" d="M13.161 1.472A1.684 1.684 0 0 0 11.976.288 39.321 39.321 0 0 0 6.719 0a40.878 40.878 0 0 0-5.258.277 1.718 1.718 0 0 0-1.184 1.2A17.74 17.74 0 0 0 0 4.7a17.674 17.674 0 0 0 .277 3.236 1.684 1.684 0 0 0 1.184 1.185 39.405 39.405 0 0 0 5.258.288 40.878 40.878 0 0 0 5.258-.277 1.684 1.684 0 0 0 1.184-1.184 17.74 17.74 0 0 0 .277-3.232 16.844 16.844 0 0 0-.277-3.243z" style="fill:red"/>
            <path id="polygon9" class="cls-2" d="M11.9 6.218 8.407 4.2v4.032z" transform="translate(-3.027 -1.514)"/>
        </g>
    </g>
</svg>
