<svg xmlns="http://www.w3.org/2000/svg" xmlns:xlink="http://www.w3.org/1999/xlink" width="218.691" height="171.948" viewBox="0 0 218.691 171.948">
    <defs>
        <linearGradient id="linear-gradient" x1=".255" y1=".268" x2="-.256" y2=".156" gradientUnits="objectBoundingBox">
            <stop offset="0" stop-color="#efb51b"/>
            <stop offset="1" stop-color="#d57900"/>
        </linearGradient>
        <linearGradient id="linear-gradient-2" x1=".098" y1=".335" x2=".96" y2="1.341" gradientUnits="objectBoundingBox">
            <stop offset="0" stop-color="#f8a535"/>
            <stop offset="1" stop-color="#c16f00"/>
        </linearGradient>
        <linearGradient id="linear-gradient-6" x1=".095" x2=".804" y2="1" gradientUnits="objectBoundingBox">
            <stop offset="0" stop-color="#ff9556"/>
            <stop offset="1" stop-color="#f36f21"/>
        </linearGradient>
        <linearGradient id="linear-gradient-8" x1=".255" y1=".268" x2=".694" y2="1.382" xlink:href="#linear-gradient"/>
        <radialGradient id="radial-gradient" cx="0" cy="0" r="1.338" gradientTransform="rotate(48.37)" gradientUnits="objectBoundingBox">
            <stop offset="0" stop-color="#21f3f3"/>
            <stop offset="1" stop-color="#214cf3"/>
        </radialGradient>
        <radialGradient id="radial-gradient-3" cx=".317" cy=".088" r="1.475" gradientTransform="rotate(60 0 -.089)" gradientUnits="objectBoundingBox">
            <stop offset="0" stop-color="#f3c821"/>
            <stop offset="1" stop-color="#f36f21"/>
        </radialGradient>
        <filter id="Path_12672" x="0" y="11.936" width="162.229" height="160.013" filterUnits="userSpaceOnUse">
            <feOffset dy="6"/>
            <feGaussianBlur stdDeviation="24" result="blur"/>
            <feFlood flood-color="#1c1c1c" flood-opacity=".078"/>
            <feComposite operator="in" in2="blur"/>
            <feComposite in="SourceGraphic"/>
        </filter>
        <style>
            .cls-2{fill:url(#radial-gradient)}.cls-3{fill:url(#linear-gradient)}.cls-4{fill:url(#radial-gradient-3)}.cls-5{fill:url(#linear-gradient-2)}.cls-7{fill:url(#linear-gradient-8)}.cls-8{fill:none}
        </style>
    </defs>
    <g id="growth" transform="translate(-623.758 -405.09)">
        <g id="Group_21054" data-name="Group 21054" transform="translate(0 -11)">
            <g id="Group_15712" data-name="Group 15712" transform="translate(665.449 458.517)">
                <path id="Subtraction_70" data-name="Subtraction 70" class="cls-2" d="M21.843 43.182c-.01 0-1.019-.035-1.682-.035a1.961 1.961 0 0 0-.568.03c.357-2.065 2.515-12.073 3.7-16.035-.059-.022-.086-.038-.085-.05s.023-.017.045-.024.042-.012.045-.022a.016.016 0 0 0-.005-.011c-.448.007-.9.01-1.339.01a47.212 47.212 0 0 1-14.327-1.791 13 13 0 0 1-6.192-3.8 5.619 5.619 0 0 1-1.391-4.34 42.635 42.635 0 0 1 4.506-1.965 28.191 28.191 0 0 1 9.169-1.965 13.064 13.064 0 0 1 1.432.076 9.847 9.847 0 0 1 5.13 2.477 11.387 11.387 0 0 1 2.693 3.963 16.471 16.471 0 0 1 1.215 5.294v.806a8.527 8.527 0 0 0 .5-2 22.735 22.735 0 0 1 3.6-12.978 22.3 22.3 0 0 1 8.047-7.141A33.2 33.2 0 0 1 48.544 0h.015A25.933 25.933 0 0 1 45.2 11.912a23.884 23.884 0 0 1-6.715 7.3 34.192 34.192 0 0 1-12.119 5.28h-.014a3.1 3.1 0 0 0-.67.187v.006c-1.79 2.1-3.751 17.824-3.834 18.492zM42.374 5.137a82.144 82.144 0 0 0-9.053 7.994 90.411 90.411 0 0 0-6.707 8.188l1.17.4a63.423 63.423 0 0 1 5.77-7.5c2.823-3.062 5.643-5.874 7.328-7.555l.005-.005c.93-.927 1.492-1.487 1.488-1.526z"/>
            </g>
            <path id="Union_45" data-name="Union 45" class="cls-2" d="M25.257 59.767c-.01 0-1.02-.035-1.681-.035a2.016 2.016 0 0 0-.569.031c.356-2.065 2.515-12.072 3.7-16.034-.06-.022-.087-.039-.086-.05s.023-.018.045-.024.042-.011.045-.021a.018.018 0 0 0 0-.011c-.449.006-.9.01-1.341.01a47.191 47.191 0 0 1-14.321-1.792 13 13 0 0 1-6.192-3.794A5.613 5.613 0 0 1 3.46 33.7a42.307 42.307 0 0 1 4.505-1.967 28.232 28.232 0 0 1 9.168-1.965 13.094 13.094 0 0 1 1.433.076A9.859 9.859 0 0 1 23.7 32.32a10.752 10.752 0 0 1 2.012 2.58c-.834-4.4-1.908-9.131-2.833-10.21v-.007a3.076 3.076 0 0 0-.687-.192 38.876 38.876 0 0 1-4.9-1.465 30.83 30.83 0 0 1-7.223-3.82 23.86 23.86 0 0 1-6.711-7.3A25.917 25.917 0 0 1 0 0h.015a33.215 33.215 0 0 1 12.21 3.685 22.313 22.313 0 0 1 8.047 7.142 22.738 22.738 0 0 1 3.6 12.98 4.45 4.45 0 0 0 .2.613 65.1 65.1 0 0 1 2.239 7.761c.747 3.409 1.165 6.46 1.469 8.686l.084.611a3.675 3.675 0 0 0 .236-1.088 22.719 22.719 0 0 1 3.6-12.977 22.3 22.3 0 0 1 8.045-7.142 33.225 33.225 0 0 1 12.215-3.685h.009A25.914 25.914 0 0 1 48.611 28.5a23.854 23.854 0 0 1-6.711 7.3 34.209 34.209 0 0 1-12.119 5.28h-.015a3.165 3.165 0 0 0-.669.187c-1.797 2.103-3.756 17.833-3.838 18.5zM45.79 21.724a82.349 82.349 0 0 0-9.054 7.994 90.585 90.585 0 0 0-6.707 8.188l1.17.4a63.235 63.235 0 0 1 5.771-7.5c2.823-3.062 5.642-5.874 7.328-7.555h.006c.929-.927 1.491-1.487 1.487-1.526zM7.669 6.666c1.688 1.683 4.511 4.5 7.334 7.561a63.709 63.709 0 0 1 5.774 7.5l1.167-.4a90.218 90.218 0 0 0-6.707-8.187 80.555 80.555 0 0 0-9.052-8c-.004.04.555.598 1.484 1.526z" transform="translate(773.019 436.09)"/>
            <g id="Group_15719" data-name="Group 15719" transform="translate(676.516 492.583)">
                <g id="Group_15716" data-name="Group 15716">
                    <path id="Path_12672-2" data-name="Path 12672" class="cls-3" d="m0 .018 9.344-1.455L18.229.018v12.153l-9.149 2.4-9.08-2.4z" transform="translate(0 2.879)"/>
                    <ellipse id="Ellipse_1720" data-name="Ellipse 1720" class="cls-4" cx="9.115" cy="3.038" rx="9.115" ry="3.038" transform="translate(.016)"/>
                    <path id="Path_12666" data-name="Path 12666" class="cls-5" d="M15501.114-2455.935c-2.287 0-9.114-.8-9.114-3.04V-2461a1.386 1.386 0 0 0 .466.959c1.244 1.244 4.719 2.081 8.648 2.081 5.026 0 9.115-1.364 9.115-3.04v2.027c.004 2.233-6.829 3.038-9.115 3.038z" transform="translate(-15491.983 2465.053)"/>
                    <path id="Path_12667" data-name="Path 12667" class="cls-5" d="M15501.114-2455.935c-2.287 0-9.114-.8-9.114-3.04V-2461a1.386 1.386 0 0 0 .466.959c1.244 1.244 4.719 2.081 8.648 2.081 5.026 0 9.115-1.364 9.115-3.04v2.027c.004 2.233-6.829 3.038-9.115 3.038z" transform="translate(-15491.983 2468.091)"/>
                    <path id="Path_12668" data-name="Path 12668" class="cls-5" d="M15501.114-2455.935c-2.287 0-9.114-.8-9.114-3.04V-2461a1.386 1.386 0 0 0 .466.959c1.244 1.244 4.719 2.081 8.648 2.081 5.026 0 9.115-1.364 9.115-3.04v2.027c.004 2.233-6.829 3.038-9.115 3.038z" transform="translate(-15491.983 2471.129)"/>
                    <path id="Path_12669" data-name="Path 12669" class="cls-5" d="M15501.114-2455.935c-2.287 0-9.114-.8-9.114-3.04V-2461a1.386 1.386 0 0 0 .466.959c1.244 1.244 4.719 2.081 8.648 2.081 5.026 0 9.115-1.364 9.115-3.04v2.027c.004 2.233-6.829 3.038-9.115 3.038z" transform="translate(-15491.983 2474.167)"/>
                </g>
                <g id="Group_15717" data-name="Group 15717" transform="translate(19.242)">
                    <g transform="translate(-72 -76.49)" style="filter:url(#Path_12672)">
                        <path id="Path_12672-3" data-name="Path 12672" d="m0 .018 9.344-1.455L18.229.018v12.153l-9.149 2.4-9.08-2.4z" transform="translate(72 79.37)" style="fill:url(#linear-gradient-6)"/>
                    </g>
                    <ellipse id="Ellipse_1720-2" data-name="Ellipse 1720" class="cls-4" cx="9.115" cy="3.038" rx="9.115" ry="3.038" transform="translate(.016)"/>
                    <path id="Path_12666-2" data-name="Path 12666" class="cls-4" d="M15501.114-2455.935c-2.287 0-9.114-.8-9.114-3.04V-2461a1.386 1.386 0 0 0 .466.959c1.244 1.244 4.719 2.081 8.648 2.081 5.026 0 9.115-1.364 9.115-3.04v2.027c.004 2.233-6.829 3.038-9.115 3.038z" transform="translate(-15491.983 2465.053)"/>
                    <path id="Path_12667-2" data-name="Path 12667" class="cls-4" d="M15501.114-2455.935c-2.287 0-9.114-.8-9.114-3.04V-2461a1.386 1.386 0 0 0 .466.959c1.244 1.244 4.719 2.081 8.648 2.081 5.026 0 9.115-1.364 9.115-3.04v2.027c.004 2.233-6.829 3.038-9.115 3.038z" transform="translate(-15491.983 2468.091)"/>
                    <path id="Path_12668-2" data-name="Path 12668" class="cls-4" d="M15501.114-2455.935c-2.287 0-9.114-.8-9.114-3.04V-2461a1.386 1.386 0 0 0 .466.959c1.244 1.244 4.719 2.081 8.648 2.081 5.026 0 9.115-1.364 9.115-3.04v2.027c.004 2.233-6.829 3.038-9.115 3.038z" transform="translate(-15491.983 2471.129)"/>
                    <path id="Path_12669-2" data-name="Path 12669" class="cls-4" d="M15501.114-2455.935c-2.287 0-9.114-.8-9.114-3.04V-2461a1.386 1.386 0 0 0 .466.959c1.244 1.244 4.719 2.081 8.648 2.081 5.026 0 9.115-1.364 9.115-3.04v2.027c.004 2.233-6.829 3.038-9.115 3.038z" transform="translate(-15491.983 2474.167)"/>
                </g>
            </g>
            <g id="Group_18522" data-name="Group 18522" transform="translate(787.502 492.583)">
                <g id="Group_15716-2" data-name="Group 15716">
                    <path id="Path_12672-4" data-name="Path 12672" class="cls-3" d="m0 .018 9.344-1.455L18.229.018v12.153l-9.149 2.4-9.08-2.4z" transform="translate(0 2.879)"/>
                    <ellipse id="Ellipse_1720-3" data-name="Ellipse 1720" class="cls-7" cx="9.115" cy="3.038" rx="9.115" ry="3.038" transform="translate(.016)"/>
                    <path id="Path_12666-3" data-name="Path 12666" class="cls-5" d="M15501.114-2455.935c-2.287 0-9.114-.8-9.114-3.04V-2461a1.386 1.386 0 0 0 .466.959c1.244 1.244 4.719 2.081 8.648 2.081 5.026 0 9.115-1.364 9.115-3.04v2.027c.004 2.233-6.829 3.038-9.115 3.038z" transform="translate(-15491.983 2465.053)"/>
                    <path id="Path_12667-3" data-name="Path 12667" class="cls-5" d="M15501.114-2455.935c-2.287 0-9.114-.8-9.114-3.04V-2461a1.386 1.386 0 0 0 .466.959c1.244 1.244 4.719 2.081 8.648 2.081 5.026 0 9.115-1.364 9.115-3.04v2.027c.004 2.233-6.829 3.038-9.115 3.038z" transform="translate(-15491.983 2468.091)"/>
                    <path id="Path_12668-3" data-name="Path 12668" class="cls-5" d="M15501.114-2455.935c-2.287 0-9.114-.8-9.114-3.04V-2461a1.386 1.386 0 0 0 .466.959c1.244 1.244 4.719 2.081 8.648 2.081 5.026 0 9.115-1.364 9.115-3.04v2.027c.004 2.233-6.829 3.038-9.115 3.038z" transform="translate(-15491.983 2471.129)"/>
                    <path id="Path_12669-3" data-name="Path 12669" class="cls-5" d="M15501.114-2455.935c-2.287 0-9.114-.8-9.114-3.04V-2461a1.386 1.386 0 0 0 .466.959c1.244 1.244 4.719 2.081 8.648 2.081 5.026 0 9.115-1.364 9.115-3.04v2.027c.004 2.233-6.829 3.038-9.115 3.038z" transform="translate(-15491.983 2474.167)"/>
                </g>
                <g id="Group_15717-2" data-name="Group 15717" transform="translate(19.242)">
                    <path id="Path_12672-5" data-name="Path 12672" class="cls-3" d="m0 .018 9.344-1.455L18.229.018v12.153l-9.149 2.4-9.08-2.4z" transform="translate(0 2.879)"/>
                    <ellipse id="Ellipse_1720-4" data-name="Ellipse 1720" class="cls-7" cx="9.115" cy="3.038" rx="9.115" ry="3.038" transform="translate(.016)"/>
                    <path id="Path_12666-4" data-name="Path 12666" class="cls-5" d="M15501.114-2455.935c-2.287 0-9.114-.8-9.114-3.04V-2461a1.386 1.386 0 0 0 .466.959c1.244 1.244 4.719 2.081 8.648 2.081 5.026 0 9.115-1.364 9.115-3.04v2.027c.004 2.233-6.829 3.038-9.115 3.038z" transform="translate(-15491.983 2465.053)"/>
                    <path id="Path_12667-4" data-name="Path 12667" class="cls-5" d="M15501.114-2455.935c-2.287 0-9.114-.8-9.114-3.04V-2461a1.386 1.386 0 0 0 .466.959c1.244 1.244 4.719 2.081 8.648 2.081 5.026 0 9.115-1.364 9.115-3.04v2.027c.004 2.233-6.829 3.038-9.115 3.038z" transform="translate(-15491.983 2468.091)"/>
                    <path id="Path_12668-4" data-name="Path 12668" class="cls-5" d="M15501.114-2455.935c-2.287 0-9.114-.8-9.114-3.04V-2461a1.386 1.386 0 0 0 .466.959c1.244 1.244 4.719 2.081 8.648 2.081 5.026 0 9.115-1.364 9.115-3.04v2.027c.004 2.233-6.829 3.038-9.115 3.038z" transform="translate(-15491.983 2471.129)"/>
                    <path id="Path_12669-4" data-name="Path 12669" class="cls-5" d="M15501.114-2455.935c-2.287 0-9.114-.8-9.114-3.04V-2461a1.386 1.386 0 0 0 .466.959c1.244 1.244 4.719 2.081 8.648 2.081 5.026 0 9.115-1.364 9.115-3.04v2.027c.004 2.233-6.829 3.038-9.115 3.038z" transform="translate(-15491.983 2474.167)"/>
                </g>
            </g>
            <g id="Group_18523" data-name="Group 18523" transform="translate(787.502 466.705)">
                <g id="Group_15716-3" data-name="Group 15716" transform="translate(0 13.352)">
                    <path id="Path_12672-6" data-name="Path 12672" class="cls-3" d="m0 .018 9.344-1.455L18.229.018v12.153l-9.149 2.4-9.08-2.4z" transform="translate(0 2.879)"/>
                    <ellipse id="Ellipse_1720-5" data-name="Ellipse 1720" class="cls-7" cx="9.115" cy="3.038" rx="9.115" ry="3.038" transform="translate(.016)"/>
                    <path id="Path_12666-5" data-name="Path 12666" class="cls-5" d="M15501.114-2455.935c-2.287 0-9.114-.8-9.114-3.04V-2461a1.386 1.386 0 0 0 .466.959c1.244 1.244 4.719 2.081 8.648 2.081 5.026 0 9.115-1.364 9.115-3.04v2.027c.004 2.233-6.829 3.038-9.115 3.038z" transform="translate(-15491.983 2465.053)"/>
                    <path id="Path_12667-5" data-name="Path 12667" class="cls-5" d="M15501.114-2455.935c-2.287 0-9.114-.8-9.114-3.04V-2461a1.386 1.386 0 0 0 .466.959c1.244 1.244 4.719 2.081 8.648 2.081 5.026 0 9.115-1.364 9.115-3.04v2.027c.004 2.233-6.829 3.038-9.115 3.038z" transform="translate(-15491.983 2468.091)"/>
                    <path id="Path_12668-5" data-name="Path 12668" class="cls-5" d="M15501.114-2455.935c-2.287 0-9.114-.8-9.114-3.04V-2461a1.386 1.386 0 0 0 .466.959c1.244 1.244 4.719 2.081 8.648 2.081 5.026 0 9.115-1.364 9.115-3.04v2.027c.004 2.233-6.829 3.038-9.115 3.038z" transform="translate(-15491.983 2471.129)"/>
                    <path id="Path_12669-5" data-name="Path 12669" class="cls-5" d="M15501.114-2455.935c-2.287 0-9.114-.8-9.114-3.04V-2461a1.386 1.386 0 0 0 .466.959c1.244 1.244 4.719 2.081 8.648 2.081 5.026 0 9.115-1.364 9.115-3.04v2.027c.004 2.233-6.829 3.038-9.115 3.038z" transform="translate(-15491.983 2474.167)"/>
                </g>
                <g id="Group_15717-3" data-name="Group 15717" transform="translate(19.242 13.352)">
                    <path id="Path_12672-7" data-name="Path 12672" class="cls-3" d="m0 .018 9.344-1.455L18.229.018v12.153l-9.149 2.4-9.08-2.4z" transform="translate(0 2.879)"/>
                    <ellipse id="Ellipse_1720-6" data-name="Ellipse 1720" class="cls-7" cx="9.115" cy="3.038" rx="9.115" ry="3.038" transform="translate(.016)"/>
                    <path id="Path_12666-6" data-name="Path 12666" class="cls-5" d="M15501.114-2455.935c-2.287 0-9.114-.8-9.114-3.04V-2461a1.386 1.386 0 0 0 .466.959c1.244 1.244 4.719 2.081 8.648 2.081 5.026 0 9.115-1.364 9.115-3.04v2.027c.004 2.233-6.829 3.038-9.115 3.038z" transform="translate(-15491.983 2465.053)"/>
                    <path id="Path_12667-6" data-name="Path 12667" class="cls-5" d="M15501.114-2455.935c-2.287 0-9.114-.8-9.114-3.04V-2461a1.386 1.386 0 0 0 .466.959c1.244 1.244 4.719 2.081 8.648 2.081 5.026 0 9.115-1.364 9.115-3.04v2.027c.004 2.233-6.829 3.038-9.115 3.038z" transform="translate(-15491.983 2468.091)"/>
                    <path id="Path_12668-6" data-name="Path 12668" class="cls-5" d="M15501.114-2455.935c-2.287 0-9.114-.8-9.114-3.04V-2461a1.386 1.386 0 0 0 .466.959c1.244 1.244 4.719 2.081 8.648 2.081 5.026 0 9.115-1.364 9.115-3.04v2.027c.004 2.233-6.829 3.038-9.115 3.038z" transform="translate(-15491.983 2471.129)"/>
                    <path id="Path_12669-6" data-name="Path 12669" class="cls-5" d="M15501.114-2455.935c-2.287 0-9.114-.8-9.114-3.04V-2461a1.386 1.386 0 0 0 .466.959c1.244 1.244 4.719 2.081 8.648 2.081 5.026 0 9.115-1.364 9.115-3.04v2.027c.004 2.233-6.829 3.038-9.115 3.038z" transform="translate(-15491.983 2474.167)"/>
                </g>
                <g id="Group_18526" data-name="Group 18526" transform="translate(19.242)">
                    <path id="Path_12672-8" data-name="Path 12672" class="cls-3" d="m0 .018 9.344-1.455L18.229.018v12.153l-9.149 2.4-9.08-2.4z" transform="translate(0 2.879)"/>
                    <ellipse id="Ellipse_1720-7" data-name="Ellipse 1720" class="cls-7" cx="9.115" cy="3.038" rx="9.115" ry="3.038" transform="translate(.016)"/>
                    <path id="Path_12666-7" data-name="Path 12666" class="cls-5" d="M15501.114-2455.935c-2.287 0-9.114-.8-9.114-3.04V-2461a1.386 1.386 0 0 0 .466.959c1.244 1.244 4.719 2.081 8.648 2.081 5.026 0 9.115-1.364 9.115-3.04v2.027c.004 2.233-6.829 3.038-9.115 3.038z" transform="translate(-15491.983 2465.053)"/>
                    <path id="Path_12667-7" data-name="Path 12667" class="cls-5" d="M15501.114-2455.935c-2.287 0-9.114-.8-9.114-3.04V-2461a1.386 1.386 0 0 0 .466.959c1.244 1.244 4.719 2.081 8.648 2.081 5.026 0 9.115-1.364 9.115-3.04v2.027c.004 2.233-6.829 3.038-9.115 3.038z" transform="translate(-15491.983 2468.091)"/>
                    <path id="Path_12668-7" data-name="Path 12668" class="cls-5" d="M15501.114-2455.935c-2.287 0-9.114-.8-9.114-3.04V-2461a1.386 1.386 0 0 0 .466.959c1.244 1.244 4.719 2.081 8.648 2.081 5.026 0 9.115-1.364 9.115-3.04v2.027c.004 2.233-6.829 3.038-9.115 3.038z" transform="translate(-15491.983 2471.129)"/>
                    <path id="Path_12669-7" data-name="Path 12669" class="cls-5" d="M15501.114-2455.935c-2.287 0-9.114-.8-9.114-3.04V-2461a1.386 1.386 0 0 0 .466.959c1.244 1.244 4.719 2.081 8.648 2.081 5.026 0 9.115-1.364 9.115-3.04v2.027c.004 2.233-6.829 3.038-9.115 3.038z" transform="translate(-15491.983 2474.167)"/>
                </g>
            </g>
            <g id="arrow_back_black_24dp" transform="translate(738.655 472.483)">
                <path id="Path_12214" data-name="Path 12214" class="cls-8" d="M26.7 0H0v26.7h26.7z"/>
                <path id="Path_12215" data-name="Path 12215" d="M4 12.762h15.233l-7-7L14.014 4l10.014 10.014-10.014 10.014-1.765-1.765 6.985-7H4z" transform="translate(-.662 -.662)" style="fill:#231e54"/>
            </g>
        </g>
    </g>
</svg>
