<svg xmlns="http://www.w3.org/2000/svg" width="124" height="20" viewBox="0 0 124 20">
    <defs>
        <style>
            .cls-3,.cls-4{fill:#fff}.cls-3{fill-rule:evenodd}
        </style>
    </defs>
    <g id="IIFL_Sec_" data-name="IIFL Sec" transform="translate(-21.093 -19)">
        <g id="Group_18189" data-name="Group 18189" transform="translate(-1 -6)">
            <path id="Path_12236" data-name="Path 12236" d="M33.093 25a10 10 0 1 1-10 10 10 10 0 0 1 10-10z" style="fill-rule:evenodd;fill:#ef5713"/>
            <path id="Path_12237" data-name="Path 12237" class="cls-3" d="m36.889 39.343.406-.952h-1.071l.665.952zm-.175-1.954.58 1 .427-1zm0 0 .593-1.212h-1.289l.7 1.212zm-3.262-1.212 1.279 2.49 1.286-2.49zm1.279 2.49-1.35 2.606h2.686l-.642-1.253-.695-1.353zm.661-1.278.64 1.393.192-.392.49-1zm.64 1.393-.606 1.238H36.6l-.567-1.238zm.857.561-.289.678h.763l-.473-.678zm-.819 1.931h1.1l-.57-1.253-.532 1.253zm1.194 2.326-1.2-2.325-.989 2.325zm.973-2.325-.19-.275-.685-.98h1.751l-.876 1.253zm-3.326-7 1.82-2.374h-3.193l1.374 2.374zm2.1 0h-2.1l1.106 1.9.99-1.9zm-3.555 1.9 1.46-1.9h-2.442l.978 1.9zm0 0h-3.788l1.844 2.53 1.94-2.53zm-.071 5.1-1.2 2.325h2.9l-1.694-2.325zm-3.838 0h3.838l-1.87-2.566-1.968 2.566zm4.724 4.219h2.188L35.075 43.6l-.807 1.894zm5.319-6.15-.406-.952h1.071l-.665.952zm.175-1.954-.58 1-.427-1zm0 0-.592-1.212h1.289l-.7 1.212zm3.262-1.212-1.279 2.49-1.286-2.49zm-1.279 2.49 1.35 2.606h-2.69l.641-1.253.7-1.353zm-.661-1.278-.64 1.393-.192-.392-.49-1zm-.64 1.393.606 1.238h-1.177l.567-1.238zm-.857.561.289.678h-.763l.473-.678zm.819 1.931H39.3l.573-1.253.532 1.253zM39.211 43.6l1.2-2.325.989 2.325zm-.973-6.209h.516l-.516-1.212-.516 1.212h.516zm0 2.631.13-.226.813-1.4h-1.887l.943 1.63zm0 3.577 1.062-2.325h-2.13l.822 1.794.243.531zm3.326-9.324L39.743 31.9h3.194l-1.374 2.374zm-2.1 0h2.1l-1.106 1.9-.99-1.9zm3.556 1.9-1.46-1.9H44l-.978 1.9zm0 0h3.784l-1.844 2.53-1.94-2.53zm.071 5.1L44.3 43.6h-2.9l1.694-2.325zm3.838 0h-3.835l1.87-2.566 1.968 2.566zm-4.724 4.219h-2.186L41.4 43.6l.807 1.894zM38.238 31.9h1.506l-1.506-1.963-1.506 1.963h1.505zm0 2.374h1.23l-1.23-2.374-1.23 2.374h1.23zm0 1.9h.931l-.562-1.148-.369-.755-.931 1.9h.931zm0 9.315.251-.489.722-1.4h-1.947l.973 1.894zm0 2.445 1.782-2.445h-3.564l1.782 2.445z" transform="translate(-5.145 -3.938)"/>
            <path id="Path_12238" data-name="Path 12238" class="cls-3" d="M143.369 41.79h-2.151a1.253 1.253 0 0 0-1.249 1.249V54.99h2.151a1.252 1.252 0 0 0 1.249-1.249V41.79zm3.593 0h7.287V44a1.2 1.2 0 0 1-1.2 1.194h-3.905v1.694h4.245v2.206a1.2 1.2 0 0 1-1.2 1.194h-3.05v3.494a1.216 1.216 0 0 1-1.213 1.212h-2.187V43a1.216 1.216 0 0 1 1.213-1.212zm-9.373 0h-2.151a1.252 1.252 0 0 0-1.249 1.249V54.99h2.151a1.253 1.253 0 0 0 1.249-1.249V41.79zm21.945 0h-2.187a1.216 1.216 0 0 0-1.213 1.21v11.99h6.335a1.2 1.2 0 0 0 1.2-1.194V51.59h-4.13v-9.8z" transform="translate(-88.599 -13.39)"/>
            <path id="Path_12239" data-name="Path 12239" class="cls-4" d="M513.651 64.377z" transform="translate(-391.216 -31.399)"/>
            <path id="Path_12240" data-name="Path 12240" class="cls-4" d="M447.828 61.745z" transform="translate(-338.723 -29.304)"/>
            <path id="Path_12241" data-name="Path 12241" class="cls-4" d="M363.65 61.743z" transform="translate(-271.591 -29.302)"/>
            <path id="Path_12242" data-name="Path 12242" class="cls-4" d="M363.655 61.745z" transform="translate(-271.595 -29.304)"/>
            <path id="Path_12243" data-name="Path 12243" class="cls-3" d="M340.6 57.786h3.545a.473.473 0 0 1 .472.472v.928a.473.473 0 0 1-.472.472h-3.061a.514.514 0 0 0-.513.513v1.671h3.574a.473.473 0 0 1 .472.472v.928a.473.473 0 0 1-.472.472h-3.574v1.671a.514.514 0 0 0 .513.513h3.061a.473.473 0 0 1 .472.472v.93a.473.473 0 0 1-.472.472H340.6a1.907 1.907 0 0 1-1.9-1.9v-6.18a1.907 1.907 0 0 1 1.9-1.9z" transform="translate(-251.697 -26.146)"/>
            <path id="Path_12244" data-name="Path 12244" class="cls-3" d="M563.139 57.786h3.545a.473.473 0 0 1 .472.472v.928a.473.473 0 0 1-.472.472h-3.061a.514.514 0 0 0-.513.513v1.671h3.574a.473.473 0 0 1 .472.472v.928a.473.473 0 0 1-.472.472h-3.574v1.671a.514.514 0 0 0 .513.513h3.061a.473.473 0 0 1 .472.472v.93a.473.473 0 0 1-.472.472h-3.545a1.907 1.907 0 0 1-1.9-1.9v-6.18a1.907 1.907 0 0 1 1.9-1.9z" transform="translate(-429.167 -26.146)"/>
            <path id="Path_12245" data-name="Path 12245" class="cls-3" d="M490.287 58.258V67.3a.473.473 0 0 0 .472.472h.928a.473.473 0 0 0 .472-.472v-9.042a.473.473 0 0 0-.472-.472h-.928a.473.473 0 0 0-.472.472z" transform="translate(-372.584 -26.146)"/>
            <path id="Path_12246" data-name="Path 12246" class="cls-3" d="M451.494 58.258V67.3a.473.473 0 0 0 .472.472h.928a.473.473 0 0 0 .472-.472v-3.5h.972l2.129 3.624a.857.857 0 0 0 .678.351h1.022c.376 0 .469-.37.291-.674l-2.1-3.579a3 3 0 0 0 1.732-2.722v-.03a3 3 0 0 0-2.989-2.989h-3.135a.473.473 0 0 0-.472.472zm1.872 3.687v-2.31h1.709a1.155 1.155 0 0 1 0 2.309z" transform="translate(-341.646 -26.146)"/>
            <path id="Path_12247" data-name="Path 12247" class="cls-3" d="M410.307 58.258v6.018a3.5 3.5 0 0 0 3.493 3.493 3.5 3.5 0 0 0 3.493-3.493v-6.018a.473.473 0 0 0-.472-.472h-.928a.473.473 0 0 0-.472.472v6.024A1.627 1.627 0 0 1 413.8 65.9a1.627 1.627 0 0 1-1.622-1.622v-6.02a.473.473 0 0 0-.472-.472h-.928a.473.473 0 0 0-.472.472z" transform="translate(-308.801 -26.146)"/>
            <path id="Path_12248" data-name="Path 12248" class="cls-3" d="M511.539 57.786H505.4a.473.473 0 0 0-.472.472v.928a.473.473 0 0 0 .472.472h2.135V67.3a.473.473 0 0 0 .472.472h.928a.473.473 0 0 0 .472-.472v-7.642h2.135a.473.473 0 0 0 .472-.472v-.928a.473.473 0 0 0-.472-.472z" transform="translate(-384.259 -26.146)"/>
            <path id="Path_12249" data-name="Path 12249" class="cls-3" d="M545.378 58.258V67.3a.473.473 0 0 0 .472.472h.928a.473.473 0 0 0 .472-.472v-9.042a.473.473 0 0 0-.472-.472h-.928a.473.473 0 0 0-.472.472z" transform="translate(-416.519 -26.146)"/>
            <path id="Path_12250" data-name="Path 12250" class="cls-3" d="M379.986 57.787h-2a4 4 0 0 0-.911.1 3.256 3.256 0 0 0-.925.368 2.885 2.885 0 0 0-.818.731 3.586 3.586 0 0 0-.576 1.173 5.891 5.891 0 0 0-.217 1.682v1.873a5.773 5.773 0 0 0 .217 1.663 3.6 3.6 0 0 0 .575 1.169 2.961 2.961 0 0 0 .816.737 3.258 3.258 0 0 0 .925.379 3.855 3.855 0 0 0 .912.108h2a.473.473 0 0 0 .472-.472v-.928a.473.473 0 0 0-.472-.472H378a1.467 1.467 0 0 1-.8-.163 1.377 1.377 0 0 1-.534-.68 3.644 3.644 0 0 1-.209-1.342v-1.871a4.23 4.23 0 0 1 .121-1.092A1.307 1.307 0 0 1 378 59.658h1.983a.473.473 0 0 0 .472-.472v-.929a.473.473 0 0 0-.472-.472z" transform="translate(-280.276 -26.147)"/>
            <path id="Path_12251" data-name="Path 12251" class="cls-3" d="M305.135 57.786h-2.476a3.168 3.168 0 0 0-3.161 1.682 2.806 2.806 0 0 0 .771 3.36 3.729 3.729 0 0 0 1.035.5c.394.124.792.232 1.194.32a5.921 5.921 0 0 1 .611.16 1.583 1.583 0 0 1 .437.216 1.083 1.083 0 0 1-.029 1.625 1.856 1.856 0 0 1-1.036.21h-2.717a.469.469 0 0 0-.454.48v.945a.469.469 0 0 0 .454.48h2.717a5.781 5.781 0 0 0 1.27-.155 3.339 3.339 0 0 0 1.156-.5 2.513 2.513 0 0 0 .8-.922 3.115 3.115 0 0 0 .3-1.433 2.994 2.994 0 0 0-.277-1.379 2.37 2.37 0 0 0-.726-.841 3.581 3.581 0 0 0-1.034-.5 12.969 12.969 0 0 1-2.214-.643 1 1 0 0 1 .029-1.507 1.672 1.672 0 0 1 .9-.2h2.451a.469.469 0 0 0 .454-.48v-.945a.469.469 0 0 0-.454-.48z" transform="translate(-220.234 -26.146)"/>
            <path id="Path_12252" data-name="Path 12252" class="cls-3" d="M601.127 57.786h-2.476a3.167 3.167 0 0 0-3.16 1.682 2.806 2.806 0 0 0 .771 3.36 3.729 3.729 0 0 0 1.035.5c.394.124.792.232 1.194.32a5.913 5.913 0 0 1 .611.16 1.579 1.579 0 0 1 .437.216 1.083 1.083 0 0 1-.029 1.625 1.857 1.857 0 0 1-1.036.21h-2.716a.469.469 0 0 0-.454.48v.945a.469.469 0 0 0 .454.48h2.716a5.78 5.78 0 0 0 1.27-.155 3.336 3.336 0 0 0 1.156-.5 2.511 2.511 0 0 0 .8-.922 3.114 3.114 0 0 0 .3-1.433 2.994 2.994 0 0 0-.277-1.379 2.367 2.367 0 0 0-.726-.841 3.584 3.584 0 0 0-1.034-.5 12.97 12.97 0 0 1-2.214-.643 1 1 0 0 1 .029-1.507 1.673 1.673 0 0 1 .9-.2h2.451a.469.469 0 0 0 .454-.48v-.945a.469.469 0 0 0-.454-.48z" transform="translate(-456.287 -26.146)"/>
        </g>
    </g>
</svg>
