<svg width="24" height="23" viewBox="0 0 24 23" fill="none" xmlns="http://www.w3.org/2000/svg">
<path d="M4.70455 22.9981C4.62111 22.9981 4.52725 22.9668 4.45424 22.9147C4.31866 22.8104 4.25608 22.6435 4.2978 22.4767L6.23767 14.7693L0.146881 9.67974C0.0112983 9.57545 -0.0304191 9.38771 0.0217281 9.23127C0.0738753 9.0644 0.219887 8.9601 0.386759 8.93924L8.31314 8.40734L11.2751 1.03373C11.3377 0.877289 11.4941 0.772995 11.661 0.772995C11.8279 0.772995 11.9843 0.877289 12.0469 1.03373L15.0088 8.40734L22.9352 8.93924C23.1021 8.94967 23.2481 9.0644 23.3002 9.23127C23.3524 9.39814 23.3002 9.57545 23.1751 9.67974L17.0739 14.7693L19.0033 22.4349C19.0242 22.4767 19.0242 22.5288 19.0242 22.581C19.0242 22.8104 18.8364 22.9981 18.607 22.9981C18.534 22.9981 18.4506 22.9773 18.388 22.9356L11.661 18.7116L4.934 22.9356C4.86099 22.9773 4.78798 22.9981 4.70455 22.9981ZM1.48185 9.71102L6.97817 14.3104C7.10332 14.4147 7.15547 14.5816 7.11375 14.7276L5.3616 21.6736L11.4315 17.8669C11.5671 17.7834 11.7444 17.7834 11.88 17.8669L17.9499 21.6736L16.1978 14.7276C16.1561 14.5711 16.2082 14.4043 16.3334 14.3104L21.8297 9.71102L14.6751 9.23127C14.5187 9.22084 14.3726 9.11655 14.3205 8.97053L11.6506 2.31654L8.98062 8.97053C8.91804 9.11655 8.78246 9.22084 8.62602 9.23127L1.48185 9.71102Z" fill="#B7B7B7"/>
</svg>
