<svg xmlns="http://www.w3.org/2000/svg" width="49.277" height="49.277" viewBox="0 0 49.277 49.277">
    <defs>
        <filter id="Path_20" x="0" y="0" width="49.277" height="49.277" filterUnits="userSpaceOnUse">
            <feOffset dy="3"/>
            <feGaussianBlur stdDeviation="3" result="blur"/>
            <feFlood flood-opacity=".161"/>
            <feComposite operator="in" in2="blur"/>
            <feComposite in="SourceGraphic"/>
        </filter>
        <style>
            .cls-1{fill:none}
        </style>
    </defs>
    <g id="play_circle_black_24dp" transform="translate(6.808 3.523)">
        <g id="Group_74" data-name="Group 74" transform="translate(.01 .095)">
            <path id="Rectangle_64" data-name="Rectangle 64" class="cls-1" d="M0 0h36v36H0z"/>
        </g>
        <g id="Group_75" data-name="Group 75" transform="translate(2.692 2.977)">
            <g id="Ellipse_247" data-name="Ellipse 247" transform="translate(7.053 6.762)" style="fill:#bc7a11;stroke:#707070">
                <circle cx="7.888" cy="7.888" r="7.888" style="stroke:none"/>
                <circle class="cls-1" cx="7.888" cy="7.888" r="7.388"/>
            </g>
            <g transform="translate(-9.5 -6.5)" style="filter:url(#Path_20)">
                <path id="Path_20-2" data-name="Path 20" d="M17.138 2a15.138 15.138 0 1 0 15.139 15.138A15.144 15.144 0 0 0 17.138 2zm-3.784 19.18V13.1a1.513 1.513 0 0 1 2.331-1.272l6.282 4.042a1.514 1.514 0 0 1 0 2.543l-6.282 4.042a1.513 1.513 0 0 1-2.331-1.275z" transform="translate(7.5 4.5)" style="fill:#fff;stroke:#fff"/>
            </g>
        </g>
    </g>
</svg>
