<svg id="favorite_black_24dp" xmlns="http://www.w3.org/2000/svg" width="24" height="24" viewBox="0 0 24 24">
  <defs>
    <style>
      .cls-1 {
        fill: none;
      }

      .cls-2 {
        fill: #b3bac3;
      }
    </style>
  </defs>
  <path id="Path_12" data-name="Path 12" class="cls-1" d="M0,0H24V24H0Z"/>
  <path id="Path_13" data-name="Path 13" class="cls-2" d="M13.35,20.13a2,2,0,0,1-2.69-.01l-.11-.1C5.3,15.27,1.87,12.16,2,8.28A5.459,5.459,0,0,1,4.34,3.99,5.8,5.8,0,0,1,12,5.09a5.784,5.784,0,0,1,7.66-1.1A5.459,5.459,0,0,1,22,8.28c.14,3.88-3.3,6.99-8.55,11.76l-.1.09Z"/>
</svg>
