<svg id="grid_view_black_24dp" xmlns="http://www.w3.org/2000/svg" width="24" height="24" viewBox="0 0 24 24">
  <defs>
    <style>
      .cls-1 {
        fill: none;
      }

      .cls-2 {
        fill: #b3bac3;
      }
    </style>
  </defs>
  <g id="Group_1" data-name="Group 1">
    <rect id="Rectangle_3" data-name="Rectangle 3" class="cls-1" width="24" height="24"/>
  </g>
  <g id="Group_3" data-name="Group 3">
    <g id="Group_2" data-name="Group 2">
      <path id="Path_8" data-name="Path 8" class="cls-2" d="M5,11H9a2.006,2.006,0,0,0,2-2V5A2.006,2.006,0,0,0,9,3H5A2.006,2.006,0,0,0,3,5V9A2.006,2.006,0,0,0,5,11Z"/>
      <path id="Path_9" data-name="Path 9" class="cls-2" d="M5,21H9a2.006,2.006,0,0,0,2-2V15a2.006,2.006,0,0,0-2-2H5a2.006,2.006,0,0,0-2,2v4A2.006,2.006,0,0,0,5,21Z"/>
      <path id="Path_10" data-name="Path 10" class="cls-2" d="M13,5V9a2.006,2.006,0,0,0,2,2h4a2.006,2.006,0,0,0,2-2V5a2.006,2.006,0,0,0-2-2H15A2.006,2.006,0,0,0,13,5Z"/>
      <path id="Path_11" data-name="Path 11" class="cls-2" d="M15,21h4a2.006,2.006,0,0,0,2-2V15a2.006,2.006,0,0,0-2-2H15a2.006,2.006,0,0,0-2,2v4A2.006,2.006,0,0,0,15,21Z"/>
    </g>
  </g>
</svg>
