<svg xmlns="http://www.w3.org/2000/svg" width="24" height="24.414" viewBox="0 0 24 24.414"><path d="M0,0H24V24H0Z" fill="none"/><g fill="none"><path d="M19,2H5A2,2,0,0,0,3,4V18a2,2,0,0,0,2,2H9l3,3,3-3h4a2.006,2.006,0,0,0,2-2V4A2.006,2.006,0,0,0,19,2ZM13,18H11V16h2Zm2.07-7.75-.9.92A3.4,3.4,0,0,0,13,14H11v-.5a4.025,4.025,0,0,1,1.17-2.83l1.24-1.26A1.955,1.955,0,0,0,14,8a2,2,0,0,0-4,0H8a4,4,0,0,1,8,0A3.182,3.182,0,0,1,15.07,10.25Z" stroke="none"/><path d="M 5 2 C 3.889999389648438 2 3 2.899999618530273 3 4 L 3 18 C 3 19.10000038146973 3.889999389648438 20 5 20 L 9 20 L 12 23 L 15 20 L 19 20 C 20.10000038146973 20 21 19.10000038146973 21 18 L 21 4 C 21 2.899999618530273 20.10000038146973 2 19 2 L 5 2 M 13 14 L 11 14 L 11 13.5 C 11 12.39999961853027 11.44999980926514 11.39999961853027 12.17000007629395 10.67000007629395 L 13.40999984741211 9.409999847412109 C 13.77999973297119 9.050000190734863 14 8.549999237060547 14 8 C 14 6.899999618530273 13.10000038146973 6 12 6 C 10.89999961853027 6 10 6.899999618530273 10 8 L 8 8 C 8 5.790000915527344 9.789999961853027 4 12 4 C 14.21000003814697 4 16 5.790000915527344 16 8 C 16 8.879999160766602 15.64000034332275 9.680000305175781 15.06999969482422 10.25 L 14.17000007629395 11.17000007629395 C 13.44999980926514 11.89999961853027 13 12.5 13 14 M 13 18 L 11 18 L 11 16 L 13 16 L 13 18 M 5 1 L 19 1 C 20.65420913696289 1 22 2.345790863037109 22 4 L 22 18 C 22 19.65420913696289 20.65420913696289 21 19 21 L 15.41421985626221 21 L 12 24.41420936584473 L 8.585780143737793 21 L 5 21 C 3.345790863037109 21 2 19.65420913696289 2 18 L 2 4 C 2 2.345790863037109 3.345790863037109 1 5 1 Z M 15 8 C 15 6.345790863037109 13.65421009063721 5 12 5 C 13.65421009063721 5 15 6.345790863037109 15 8 Z M 12.07202434539795 13 C 12.10438919067383 12.79391193389893 12.147047996521 12.60372638702393 12.19864940643311 12.42694091796875 C 12.12755298614502 12.61197376251221 12.07496547698975 12.80375957489014 12.04181861877441 13 L 12.07202434539795 13 Z" stroke="none" fill="#4b4b4b"/></g></svg>