<svg id="home_black_24dp" xmlns="http://www.w3.org/2000/svg" width="24" height="24" viewBox="0 0 24 24">
  <defs>
    <style>
      .cls-1 {
        fill: none;
      }

      .cls-2 {
        fill: #292929;
      }
    </style>
  </defs>
  <path id="Path_12090" data-name="Path 12090" class="cls-1" d="M0,0H24V24H0Z"/>
  <path id="Path_12091" data-name="Path 12091" class="cls-2" d="M10,19V14h4v5a1,1,0,0,0,1,1h3a1,1,0,0,0,1-1V12h1.7a.5.5,0,0,0,.33-.87L12.67,3.6a1.008,1.008,0,0,0-1.34,0L2.97,11.13A.5.5,0,0,0,3.3,12H5v7a1,1,0,0,0,1,1H9A1,1,0,0,0,10,19Z"/>
</svg>
