<svg xmlns="http://www.w3.org/2000/svg" width="80" height="80">
    <defs>
        <linearGradient id="linear-gradient" x1="-.792" y1="-.501" x2=".928" y2="1.288" gradientUnits="objectBoundingBox">
            <stop offset="0" stop-color="#30eda8"/>
            <stop offset="1" stop-color="#00bc78"/>
        </linearGradient>
        <filter id="Ellipse_1780" x="27.012" y="32.27" width="25" height="25" filterUnits="userSpaceOnUse">
            <feOffset/>
            <feGaussianBlur stdDeviation="3" result="blur"/>
            <feFlood flood-opacity=".161"/>
            <feComposite operator="in" in2="blur"/>
            <feComposite in="SourceGraphic"/>
        </filter>
        <style>
            .cls-2{fill:#fff}
        </style>
    </defs>
    <g id="Group_15651" data-name="Group 15651" transform="translate(.083 .418)">
        <circle id="Ellipse_1779" data-name="Ellipse 1779" cx="40" cy="40" r="40" transform="translate(-.083 -.418)" style="fill:url(#linear-gradient)"/>
        <g id="Group_17941" data-name="Group 17941" transform="translate(35.929 10.06)">
            <path id="Union_36" data-name="Union 36" class="cls-2" d="M.873 35.928A1.9 1.9 0 0 1 0 34.326V1.907a1.907 1.907 0 0 1 3.814 0V32.3l17.25-7.323a1.907 1.907 0 1 1 1.49 3.511l-19.309 8.2a1.907 1.907 0 0 1-2.373-.761z" transform="translate(1.798)"/>
            <g transform="translate(-36.01 -10.48)" style="filter:url(#Ellipse_1780)">
                <circle id="Ellipse_1780-2" data-name="Ellipse 1780" class="cls-2" cx="3.5" cy="3.5" r="3.5" transform="translate(36.01 41.27)"/>
            </g>
        </g>
    </g>
</svg>
