<svg xmlns="http://www.w3.org/2000/svg" width="56" height="72" viewBox="0 0 56 72">
    <defs>
        <linearGradient id="linear-gradient" x1="-.546" y1="-.242" x2="1.345" y2="1.135" gradientUnits="objectBoundingBox">
            <stop offset="0" stop-color="#21f3f3" stop-opacity=".122"/>
            <stop offset="1" stop-color="#214cf3"/>
        </linearGradient>
        <linearGradient id="linear-gradient-2" x1="-.546" y1="-.242" x2="1.345" y2="1.135" gradientUnits="objectBoundingBox">
            <stop offset="0" stop-color="#21f3f3"/>
            <stop offset="1" stop-color="#214cf3"/>
        </linearGradient>
        <style>
            .cls-4{fill:#2e276f}
        </style>
    </defs>
    <g id="Group_18558" data-name="Group 18558" transform="translate(-1122 -684)">
        <path id="Union_46" data-name="Union 46" d="M.082 58.857s.774-8.041 4.277-13.268 9.656-9.44 11.476-13.787S12.1 22.995 5.5 17.251.082.018.082.018l20.65.989L41.755 0s1.181 11.489-5.418 17.232S24.184 27.437 26 31.784s7.972 8.558 11.475 13.785 4.277 13.27 4.277 13.27h-20.5v.018z" transform="translate(1128.979 690.165)" style="opacity:.09;fill:url(#linear-gradient)"/>
        <g id="Union_48" data-name="Union 48" style="fill:none;opacity:.18">
            <path d="M.082 58.857s.774-8.041 4.277-13.268 9.656-9.44 11.476-13.787S12.1 22.995 5.5 17.251.082.018.082.018l20.65.989L41.755 0s1.181 11.489-5.418 17.232S24.184 27.437 26 31.784s7.972 8.558 11.475 13.785 4.277 13.27 4.277 13.27h-20.5v.018z" style="stroke:none" transform="translate(1128.979 690.165)"/>
            <path d="M20.253 57.857v-.018h20.364c-.346-2.33-1.397-7.873-3.97-11.713-1.523-2.273-3.585-4.368-5.58-6.395-2.525-2.567-4.91-4.991-5.987-7.561-1.995-4.768 3.073-9.163 9.49-14.729l1.11-.964c1.386-1.206 2.516-2.799 3.359-4.734.688-1.58 1.188-3.39 1.485-5.38.334-2.24.334-4.21.293-5.317l-20.085.962-.048-.002L1.02 1.064a29.463 29.463 0 0 0 .293 5.317c.297 1.99.796 3.8 1.485 5.38.842 1.936 1.973 3.529 3.359 4.735.373.326.743.647 1.11.964 6.416 5.565 11.484 9.96 9.49 14.728-1.075 2.57-3.46 4.993-5.986 7.559-1.995 2.028-4.058 4.124-5.581 6.398-2.574 3.84-3.625 9.382-3.97 11.712h19.033m1 1H.082s.774-8.041 4.277-13.269c3.502-5.228 9.656-9.44 11.476-13.786 1.818-4.347-3.736-8.807-10.335-14.551C-1.099 11.506.082.018.082.018l20.65.989L41.755 0s1.18 11.489-5.418 17.232c-6.599 5.744-12.153 10.205-10.334 14.552 1.82 4.347 7.972 8.558 11.475 13.785 3.502 5.227 4.277 13.27 4.277 13.27H21.253v.018z" style="fill:#2e276f;stroke:none" transform="translate(1128.979 690.165)"/>
        </g>
        <path id="Union_47" data-name="Union 47" d="M15.059 54.517H.393s-1.3-1.667.835-4.364 13.05-7.461 13.116-9.453.476-20.609-.683-26.692S1.227 0 1.227 0h28.617S18.571 7.925 17.412 14.008s-.748 24.7-.683 26.692 11.234 7.038 13.116 9.452.835 4.364.835 4.364z" transform="translate(1134.051 694.019)" style="fill:url(#linear-gradient-2)"/>
        <rect id="Rectangle_5606" data-name="Rectangle 5606" class="cls-4" width="56" height="8" rx="4" transform="translate(1122 684)"/>
        <rect id="Rectangle_5607" data-name="Rectangle 5607" class="cls-4" width="56" height="8" rx="4" transform="translate(1122 748)"/>
    </g>
</svg>
