<svg data-name="people_black_24dp (1)" xmlns="http://www.w3.org/2000/svg" width="23.687" height="23.687">
    <path data-name="Path 18" d="M0 0h23.687v23.687H0z" style="fill:none"/>
    <path data-name="Path 19" d="M15.8 10.922a2.961 2.961 0 1 0-2.961-2.961 2.949 2.949 0 0 0 2.961 2.961zm-7.9 0a2.961 2.961 0 1 0-2.952-2.961 2.949 2.949 0 0 0 2.961 2.961zm0 1.974C5.609 12.9 1 14.051 1 16.35v1.48a.99.99 0 0 0 .987.987h11.844a.99.99 0 0 0 .987-.987v-1.48c0-2.299-4.61-3.45-6.909-3.45zm7.9 0c-.286 0-.612.02-.957.049.02.01.03.03.039.039a4.105 4.105 0 0 1 1.9 3.366v1.48a2.965 2.965 0 0 1-.178.987h5.113a.99.99 0 0 0 .987-.987v-1.48c.009-2.299-4.604-3.45-6.904-3.45z" transform="translate(-.013 -.065)" style="fill:#2e276f"/>
</svg>
