<svg xmlns="http://www.w3.org/2000/svg" xmlns:xlink="http://www.w3.org/1999/xlink" width="312" height="312" viewBox="0 0 312 312">
    <defs>
        <linearGradient id="linear-gradient" x1=".187" y1="1.41" x2="2.7" y2="-.05" gradientUnits="objectBoundingBox">
            <stop offset="0" stop-color="#21f3f3"/>
            <stop offset="1" stop-color="#214cf3"/>
        </linearGradient>
        <linearGradient id="linear-gradient-2" x1=".5" y1="-.193" x2="1.366" y2="1.304" xlink:href="#linear-gradient"/>
        <linearGradient id="linear-gradient-3" x1="-.168" y1="-.267" x2=".768" y2="1" xlink:href="#linear-gradient"/>
        <linearGradient id="linear-gradient-4" x1="1.775" y1="-.762" x2="-.767" y2="2.095" gradientUnits="objectBoundingBox">
            <stop offset="0" stop-color="#21b6f3"/>
            <stop offset=".6" stop-color="#6329a5"/>
            <stop offset="1" stop-color="#2e276f"/>
        </linearGradient>
        <linearGradient id="linear-gradient-5" x1=".5" y1="-.193" x2="1.304" y2="1.246" xlink:href="#linear-gradient"/>
        <linearGradient id="linear-gradient-6" x1=".714" y1="1" x2=".139" gradientUnits="objectBoundingBox">
            <stop offset="0" stop-color="#06a86d"/>
            <stop offset="1" stop-color="#4ef3ff"/>
        </linearGradient>
        <linearGradient id="linear-gradient-7" x1=".714" y1="1" x2=".139" gradientUnits="objectBoundingBox">
            <stop offset="0" stop-color="#0c5fde"/>
            <stop offset="1" stop-color="#4ef3ff"/>
        </linearGradient>
        <linearGradient id="linear-gradient-9" x1=".714" y1="1" x2=".139" gradientUnits="objectBoundingBox">
            <stop offset="0" stop-color="#bb1615"/>
            <stop offset="1" stop-color="#f338da"/>
        </linearGradient>
        <linearGradient id="linear-gradient-10" x1=".714" y1="1" x2=".139" gradientUnits="objectBoundingBox">
            <stop offset="0" stop-color="#ff5a1f"/>
            <stop offset="1" stop-color="#dcff4e"/>
        </linearGradient>
        <linearGradient id="linear-gradient-13" x1=".714" y1="0" x2=".139" y2="1" xlink:href="#linear-gradient-7"/>
        <clipPath id="clip-path">
            <ellipse id="Ellipse_1931" data-name="Ellipse 1931" cx="40.875" cy="72.846" rx="40.875" ry="72.846" transform="matrix(.94 .342 -.342 .94 49.83 0)" style="stroke:#707070;fill:#fff"/>
        </clipPath>
        <style>
            .cls-4{fill:#fff}.cls-12{fill:url(#linear-gradient-6)}.cls-14{fill:url(#linear-gradient-9)}.cls-17{fill:#ffd920}.cls-18{fill:#c2982e}.cls-19{fill:#ffd421}.cls-20{fill:#de9102}.cls-21{fill:#ffa428}
        </style>
    </defs>
    <g id="illustrastion" transform="translate(-921 -410)">
        <g id="Group_20788" data-name="Group 20788" transform="translate(-27.885 -6.802)">
            <g id="Group_18835" data-name="Group 18835" transform="translate(1040.414 454.967)">
                <rect id="Rectangle_5617" data-name="Rectangle 5617" width="29.948" height="114.935" rx="14.974" transform="rotate(29 -157.481 354.831)" style="fill:url(#linear-gradient)"/>
                <g id="Group_18831" data-name="Group 18831">
                    <path id="Path_12696" data-name="Path 12696" class="cls-4" d="M13181.207-6238.128s27.188 25.821 60.67 41.891 11.631 45.347-13.961 39.85-30.756-16.787-74.248-4.817c0 0 22.672-48.654 23.984-57.754s3.555-19.17 3.555-19.17z" transform="translate(-13053.965 6303.112)"/>
                    <ellipse id="Ellipse_1929" data-name="Ellipse 1929" cx="50.183" cy="81.749" rx="50.183" ry="81.749" transform="matrix(.94 .342 -.342 .94 55.92 0)" style="fill:url(#linear-gradient-2)"/>
                    <ellipse id="Ellipse_1930" data-name="Ellipse 1930" class="cls-4" cx="40.875" cy="72.846" rx="40.875" ry="72.846" transform="rotate(20 .95 177.484)"/>
                    <g id="Mask_Group_93" data-name="Mask Group 93" transform="translate(10.928 10.374)" style="clip-path:url(#clip-path)">
                        <g id="Group_18832" data-name="Group 18832" transform="translate(54.885 61.517)">
                            <rect id="Rectangle_5618" data-name="Rectangle 5618" width="65.561" height="36.423" rx="18.211" transform="rotate(17 5.325 35.627)" style="fill:url(#linear-gradient-3);opacity:.2"/>
                            <ellipse id="Ellipse_1931-2" data-name="Ellipse 1931" cx="6.475" cy="10.522" rx="6.475" ry="10.522" transform="rotate(20 -15.445 41.826)" style="fill:url(#linear-gradient-4)"/>
                        </g>
                        <path id="Subtraction_51" data-name="Subtraction 51" d="M30.553 94.586a24.525 24.525 0 0 1-7.592-1.186 25.92 25.92 0 0 1-11.732-8.058 42.272 42.272 0 0 1-7.713-14.294 72.975 72.975 0 0 1-3.383-19 106.14 106.14 0 0 1 1.259-22.18c-.261 11.969 1.71 22.776 5.7 31.252 4.1 8.713 10.194 14.593 17.619 17.006a25.327 25.327 0 0 0 7.838 1.227c20.624 0 43.257-23.589 53.816-56.086A117.5 117.5 0 0 0 91.442 0a110.607 110.607 0 0 1-1.52 17.626 127.921 127.921 0 0 1-4.557 18.6 124.927 124.927 0 0 1-10.4 23.6 97.125 97.125 0 0 1-13.538 18.45A60.927 60.927 0 0 1 46.153 90.3a33.2 33.2 0 0 1-15.6 4.286z" transform="translate(17.209 60.662)" style="fill:#4d57be;opacity:.2"/>
                    </g>
                    <path id="Intersection_8" data-name="Intersection 8" d="M.227 39.04 0 38.991C6.085 26.326 12.227 9.972 15.807 0c28.484 14.838 12.884 39.718-9.246 39.718a30.134 30.134 0 0 1-6.334-.678z" transform="translate(173.725 107.987)" style="fill:url(#linear-gradient-5)"/>
                    <path id="Path_12699" data-name="Path 12699" d="M15554.387-6190.062a45.577 45.577 0 0 1 28.654 0c15.172 5.211 28.264 17 38.225 16.088s-2.209 10.121-19.434 4.226-26.939-11.059-41.352-8.207-21.846 5.665-21.846 5.665l9.748-17.771z" transform="translate(-15434.272 6314.266)" style="fill:#534db9;opacity:.2"/>
                </g>
            </g>
            <g id="Group_18836" data-name="Group 18836" transform="translate(960.884 417.904)">
                <ellipse id="Ellipse_1761" data-name="Ellipse 1761" class="cls-12" cx="12.459" cy="11.917" rx="12.459" ry="11.917" transform="translate(11.917 126.754)"/>
                <ellipse id="Ellipse_1762" data-name="Ellipse 1762" cx="5.959" cy="6.5" rx="5.959" ry="6.5" transform="translate(55.252)" style="fill:url(#linear-gradient-7)"/>
                <circle id="Ellipse_1934" data-name="Ellipse 1934" class="cls-12" cx="6" cy="6" r="6" transform="translate(103.547 256.822)"/>
                <circle id="Ellipse_1765" data-name="Ellipse 1765" class="cls-14" cx="5.959" cy="5.959" r="5.959" transform="translate(0 49.835)"/>
                <circle id="Ellipse_1764" data-name="Ellipse 1764" cx="5.959" cy="5.959" r="5.959" transform="translate(52.002 86.67)" style="fill:url(#linear-gradient-10)"/>
                <path id="Polygon_65" data-name="Polygon 65" class="cls-14" d="m7.694 0 7.694 15.387H0z" transform="rotate(16 -506.713 324.071)"/>
                <path id="Rectangle_5383" data-name="Rectangle 5383" class="cls-12" transform="rotate(-37 79.032 -34.822)" d="M0 0h6.38v17.012H0z"/>
                <path id="Rectangle_5384" data-name="Rectangle 5384" transform="scale(-1) rotate(37 298.56 -151.78)" style="fill:url(#linear-gradient-13)" d="M0 0h9.231v24.618H0z"/>
            </g>
            <g id="Group_20789" data-name="Group 20789" transform="translate(5821.732 -13140.179)">
                <g id="Group_20774" data-name="Group 20774" transform="translate(-4774.819 13572.082)">
                    <path id="Path_7280" data-name="Path 7280" class="cls-17" d="M-4625.689 13558.768a5.835 5.835 0 0 1 5.416 0c2.678 1.545 13.5 7.222 13.5 7.222s6.219 2.406 5.486 7.893-3 19.479-3 19.479-.817 2.557-2.482 3.489-16.178 11.565-16.178 11.565-4.483 3.207-8.826.471-15.546-8.913-16.378-9.487-.933-2.137-.532-4.213 2.407-18.264 2.407-18.264-.01-3.341 2-4.745 18.587-13.41 18.587-13.41z" transform="translate(4648.915 -13558.081)"/>
                    <path id="Path_7288" data-name="Path 7288" class="cls-18" d="M29.2 59.527a7.041 7.041 0 0 1-3.81-1.106c-1.306-.824-3.356-2.036-6.266-3.706.579.242 1.257.811 1.819 1.025 1.837.7 3.374 1.643 4.99 1.52a6 6 0 0 0 2.894-1c2.092-1.283 16.076-11.077 17.322-11.94l.1-.071.007-.005a7.763 7.763 0 0 0 3.7-5.942c.553-3.952 2.735-19.7 2.748-19.789a1.912 1.912 0 0 0-.524-1.208 10.407 10.407 0 0 0-3.095-2.462l1.3.686a11.409 11.409 0 0 1 3.018 1.889 7.825 7.825 0 0 1 1.92 2.456 6.163 6.163 0 0 1 .548 3.548c-.726 5.437-2.981 19.34-3 19.48a9.01 9.01 0 0 1-.617 1.394 5.338 5.338 0 0 1-1.854 2.09c-1.646.923-16.033 11.458-16.178 11.565a8.82 8.82 0 0 1-1.453.788 9.1 9.1 0 0 1-3.569.788zm-3.621-5.657C11.1 41.42 45.652 14.67 49.385 18.676l-2.79 20.6L25.584 53.87c-5.253 3.649 0 .001 0 .001zm-9.373-.82c-.955-.55-.988-.829.005 0z" transform="translate(-8.257 -7.617)"/>
                    <path id="Path_7281" data-name="Path 7281" class="cls-19" d="m-4619.221 13564.248-18.595 13.039-2.538 22.405 13.16 7.808 21.011-14.594 2.79-20.6z" transform="translate(4644.52 -13561.247)"/>
                    <path id="Subtraction_34" data-name="Subtraction 34" class="cls-18" d="M.545 35.768 0 35.444l2.538-22.405L21.132 0l15.829 8.058-.075.555L21.619.841 3.024 13.88.545 35.767z" transform="translate(4.167 3.001)"/>
                    <path id="Path_7282" data-name="Path 7282" class="cls-20" d="M-4620.738 13596.561v-5.053s-.489-3.5 2.615-1.977 2.68 1.246 2.68 1.246 1.553.939 2.648 0 3.743-3.132 3.743-3.132 3.136-2.014 2.223 1.886-1.854 5.117-1.155 6a26.556 26.556 0 0 0 3.1 2.707s2.278 2.374-2.528 2.8-4.26.633-5.387 2.432-2.393 4.265-2.876 4.813-1.73 1.553-2.219-.912-.612-2.955-.612-2.955-.269-.918-3.5-.945-4.415-.789-3.534-1.734a21.935 21.935 0 0 1 3.228-2.4s1.594-1.127 1.566-1.644.008-1.132.008-1.132z" transform="translate(4637.057 -13572.991)"/>
                    <path id="Path_7291" data-name="Path 7291" class="cls-21" d="M-4620.738 13596.561v-5.053s-.489-3.5 2.615-1.977 2.68 1.246 2.68 1.246 1.553.939 2.648 0 3.743-3.132 3.743-3.132 3.136-2.014 2.223 1.886-1.854 5.117-1.155 6a26.556 26.556 0 0 0 3.1 2.707s2.278 2.374-2.528 2.8-4.26.633-5.387 2.432-2.393 4.265-2.876 4.813-1.73 1.553-2.219-.912-.612-2.955-.612-2.955-.269-.918-3.5-.945-4.415-.789-3.534-1.734a21.935 21.935 0 0 1 3.228-2.4s1.594-1.127 1.566-1.644.008-1.132.008-1.132z" transform="translate(4637.057 -13573.478)"/>
                </g>
                <g id="Group_20777" data-name="Group 20777" transform="translate(-4854.345 13679.218)">
                    <path id="Path_7280-2" data-name="Path 7280" class="cls-17" d="M-4632.97 13558.553a4 4 0 0 1 3.718 0c1.838 1.061 9.269 4.958 9.269 4.958s4.269 1.651 3.767 5.418-2.062 13.374-2.062 13.374a4.8 4.8 0 0 1-1.7 2.4c-1.144.641-11.107 7.939-11.107 7.939s-3.078 2.2-6.06.323-10.673-6.119-11.244-6.513-.641-1.468-.365-2.893 1.653-12.539 1.653-12.539-.007-2.294 1.37-3.258 12.761-9.209 12.761-9.209z" transform="translate(4648.915 -13558.081)"/>
                    <path id="Path_7288-2" data-name="Path 7288" class="cls-18" d="M24.9 45.519a4.834 4.834 0 0 1-2.616-.759c-.9-.565-2.3-1.4-4.3-2.545.4.166.863.557 1.249.7 1.261.48 2.316 1.128 3.426 1.043a4.118 4.118 0 0 0 1.987-.689c1.436-.881 11.037-7.6 11.892-8.2l.07-.048h.005a5.33 5.33 0 0 0 2.542-4.079c.379-2.713 1.878-13.523 1.886-13.586a1.313 1.313 0 0 0-.36-.829 7.145 7.145 0 0 0-2.125-1.69l.9.471a7.833 7.833 0 0 1 2.072 1.3 5.372 5.372 0 0 1 1.318 1.686 4.231 4.231 0 0 1 .376 2.436c-.5 3.733-2.047 13.278-2.062 13.374a6.186 6.186 0 0 1-.423.957 3.665 3.665 0 0 1-1.285 1.439c-1.13.633-11.007 7.867-11.107 7.94a6.055 6.055 0 0 1-1 .541 6.244 6.244 0 0 1-2.445.538zm-2.486-3.884c-9.944-8.548 13.777-26.913 16.34-24.162l-1.913 14.144-14.425 10.019c-3.606 2.504 0 0 0 0zm-6.435-.563c-.657-.372-.679-.572.002 0z" transform="translate(-10.52 -9.881)"/>
                    <path id="Path_7281-2" data-name="Path 7281" class="cls-19" d="m-4625.845 13564.248-12.766 8.951-1.742 15.383 9.035 5.359 14.425-10.018 1.916-14.143z" transform="translate(4643.214 -13562.188)"/>
                    <path id="Subtraction_34-2" data-name="Subtraction 34" class="cls-18" d="M.374 24.556 0 24.334 1.742 8.952 14.508 0l10.867 5.532-.052.381L14.842.578 2.076 9.529.374 24.555z" transform="translate(2.861 2.06)"/>
                    <path id="Path_7282-2" data-name="Path 7282" class="cls-20" d="M-4622.329 13593.6v-3.469s-.336-2.4 1.8-1.357 1.839.855 1.839.855 1.066.645 1.818 0 2.57-2.15 2.57-2.15 2.153-1.382 1.526 1.295-1.273 3.513-.793 4.118a18.238 18.238 0 0 0 2.131 1.858s1.564 1.63-1.736 1.921-2.924.435-3.7 1.67-1.643 2.928-1.975 3.3-1.188 1.066-1.523-.626-.42-2.028-.42-2.028-.185-.631-2.4-.649-3.031-.542-2.426-1.19a15.036 15.036 0 0 1 2.216-1.648s1.094-.773 1.076-1.128-.003-.772-.003-.772z" transform="translate(4633.533 -13577.422)"/>
                    <path id="Path_7291-2" data-name="Path 7291" class="cls-21" d="M-4622.329 13593.6v-3.469s-.336-2.4 1.8-1.357 1.839.855 1.839.855 1.066.645 1.818 0 2.57-2.15 2.57-2.15 2.153-1.382 1.526 1.295-1.273 3.513-.793 4.118a18.238 18.238 0 0 0 2.131 1.858s1.564 1.63-1.736 1.921-2.924.435-3.7 1.67-1.643 2.928-1.975 3.3-1.188 1.066-1.523-.626-.42-2.028-.42-2.028-.185-.631-2.4-.649-3.031-.542-2.426-1.19a15.036 15.036 0 0 1 2.216-1.648s1.094-.773 1.076-1.128-.003-.772-.003-.772z" transform="translate(4633.533 -13577.756)"/>
                </g>
                <g id="Group_20775" data-name="Group 20775" transform="translate(-4774.82 13779.655)">
                    <path id="Path_7280-3" data-name="Path 7280" class="cls-17" d="M-4640.354 13558.32a2.044 2.044 0 0 0-1.9 0c-.937.541-4.725 2.527-4.725 2.527s-2.177.843-1.92 2.763 1.051 6.818 1.051 6.818a2.444 2.444 0 0 0 .869 1.221c.583.327 5.662 4.048 5.662 4.048a2.93 2.93 0 0 0 3.089.164c1.52-.957 5.441-3.119 5.732-3.319s.326-.748.186-1.475-.842-6.393-.842-6.393a2.258 2.258 0 0 0-.7-1.661c-.695-.49-6.502-4.693-6.502-4.693z" transform="translate(4648.915 -13558.08)"/>
                    <path id="Path_7288-3" data-name="Path 7288" class="cls-18" d="M24.837 30.48a2.464 2.464 0 0 0 1.334-.387 72.434 72.434 0 0 1 2.193-1.3c-.2.085-.44.284-.637.359a4.421 4.421 0 0 1-1.746.532 2.1 2.1 0 0 1-1.013-.351c-.732-.449-5.626-3.877-6.063-4.179l-.036-.025a2.717 2.717 0 0 1-1.3-2.08l-.962-6.926a.669.669 0 0 1 .184-.423 3.642 3.642 0 0 1 1.083-.862l-.457.24a3.993 3.993 0 0 0-1.056.661 2.739 2.739 0 0 0-.672.86 2.157 2.157 0 0 0-.192 1.242c.254 1.9 1.043 6.769 1.051 6.818a3.153 3.153 0 0 0 .216.488 1.868 1.868 0 0 0 .653.733c.576.323 5.611 4.01 5.662 4.048a3.087 3.087 0 0 0 .509.276 3.183 3.183 0 0 0 1.249.276zM26.1 28.5c5.07-4.358-7.024-13.72-8.33-12.318l.977 7.21L26.1 28.5c1.843 1.277 0 0 0 0zm3.28-.287c.341-.191.353-.291.005 0z" transform="translate(-15.478 -12.311)"/>
                    <path id="Path_7281-3" data-name="Path 7281" class="cls-19" d="m-4634.812 13564.247 6.508 4.563.888 7.842-4.606 2.732-7.354-5.107-.976-7.209z" transform="translate(4642.649 -13563.197)"/>
                    <path id="Subtraction_34-3" data-name="Subtraction 34" class="cls-18" d="M.191 0 0 .113l.888 7.842L7.4 12.519l5.54-2.82-.03-.199-5.344 2.72-6.507-4.559L.191 0z" transform="rotate(180 7.616 6.785)"/>
                    <path id="Path_7282-3" data-name="Path 7282" class="cls-20" d="M-4620.074 13590.427v-1.769s.171-1.226-.916-.691-.937.436-.937.436-.543.33-.927 0-1.311-1.1-1.311-1.1-1.1-.705-.778.66.649 1.791.4 2.1a9.265 9.265 0 0 1-1.086.947s-.8.83.885.979 1.491.222 1.886.852.837 1.492 1.007 1.684.605.544.776-.319.214-1.033.214-1.033.095-.321 1.224-.331 1.545-.276 1.237-.607a7.658 7.658 0 0 0-1.13-.84s-.558-.395-.548-.575.004-.393.004-.393z" transform="translate(4631.054 -13582.178)"/>
                    <path id="Path_7291-3" data-name="Path 7291" class="cls-21" d="M-4620.074 13590.427v-1.769s.171-1.226-.916-.691-.937.436-.937.436-.543.33-.927 0-1.311-1.1-1.311-1.1-1.1-.705-.778.66.649 1.791.4 2.1a9.265 9.265 0 0 1-1.086.947s-.8.83.885.979 1.491.222 1.886.852.837 1.492 1.007 1.684.605.544.776-.319.214-1.033.214-1.033.095-.321 1.224-.331 1.545-.276 1.237-.607a7.658 7.658 0 0 0-1.13-.84s-.558-.395-.548-.575.004-.393.004-.393z" transform="translate(4631.054 -13582.348)"/>
                </g>
            </g>
        </g>
    </g>
</svg>
